{
.appVersion = "1131";
classes = (
{
automatic = 1;

glyphs = (
{
glyphname = A;
layers = (
{
anchors = (
{
name = bottom;
position = "{252, 0}";
},
{
name = ogonek;
position = "{596, 0}";
},
{
name = top;
position = "{418, 676}";
},
{
name = topleft;
position = "{296, 676}";
}
);
background = {
paths = (
{
closed = 1;
nodes = (
"203 373 OFFCURVE",
"130 252 OFFCURVE",
"81 176 CURVE SMOOTH",
"32 100 OFFCURVE",
"12 81 OFFCURVE",
"-21 75 CURVE",
"-31 50 OFFCURVE",
"-35 27 OFFCURVE",
"-36 -3 CURVE",
"-15 -1 OFFCURVE",
"23 0 OFFCURVE",
"56 0 CURVE SMOOTH",
"89 0 OFFCURVE",
"157 -1 OFFCURVE",
"179 -3 CURVE",
"185 25 OFFCURVE",
"184 51 OFFCURVE",
"181 75 CURVE",
"139 82 OFFCURVE",
"131 115 OFFCURVE",
"153 152 CURVE SMOOTH",
"156 156 LINE",
"235 164 OFFCURVE",
"312 166 OFFCURVE",
"385 166 CURVE",
"389 151 LINE SMOOTH",
"400 106 OFFCURVE",
"393 85 OFFCURVE",
"337 75 CURVE",
"329 55 OFFCURVE",
"324 29 OFFCURVE",
"323 -3 CURVE",
"362 0 OFFCURVE",
"468 0 OFFCURVE",
"500 0 CURVE SMOOTH",
"532 0 OFFCURVE",
"619 0 OFFCURVE",
"659 -3 CURVE",
"663 27 OFFCURVE",
"662 57 OFFCURVE",
"658 75 CURVE",
"630 78 OFFCURVE",
"618 92 OFFCURVE",
"594 195 CURVE SMOOTH",
"569 302 OFFCURVE",
"519 488 OFFCURVE",
"457 682 CURVE",
"426 682 OFFCURVE",
"407 682 OFFCURVE",
"380 676 CURVE"
);
},
{
closed = 1;
nodes = (
"322 415 OFFCURVE",
"328 379 OFFCURVE",
"336 352 CURVE SMOOTH",
"348 312 OFFCURVE",
"359 271 OFFCURVE",
"369 231 CURVE",
"200 231 LINE",
"223 272 OFFCURVE",
"246 313 OFFCURVE",
"268 354 CURVE SMOOTH",
"281 380 OFFCURVE",
"300 415 OFFCURVE",
"318 454 CURVE"
);
}
);
};
layerId = "B20BA836-AF41-4C81-B953-D076FC766EB4";
paths = (
{
closed = 1;
nodes = (
"-15 -1 OFFCURVE",
"23 0 OFFCURVE",
"56 0 CURVE SMOOTH",
"89 0 OFFCURVE",
"157 -1 OFFCURVE",
"179 -3 CURVE",
"185 25 OFFCURVE",
"184 51 OFFCURVE",
"181 75 CURVE",
"139 82 OFFCURVE",
"131 115 OFFCURVE",
"153 152 CURVE SMOOTH",
"193 218 OFFCURVE",
"232 286 OFFCURVE",
"268 354 CURVE SMOOTH",
"290 396 OFFCURVE",
"325 465 OFFCURVE",
"352 528 CURVE",
"315 528 LINE",
"314 467 OFFCURVE",
"323 396 OFFCURVE",
"336 352 CURVE SMOOTH",
"356 285 OFFCURVE",
"373 218 OFFCURVE",
"389 151 CURVE SMOOTH",
"400 106 OFFCURVE",
"393 85 OFFCURVE",
"337 75 CURVE",
"329 55 OFFCURVE",
"324 29 OFFCURVE",
"323 -3 CURVE",
"362 0 OFFCURVE",
"468 0 OFFCURVE",
"500 0 CURVE SMOOTH",
"532 0 OFFCURVE",
"619 0 OFFCURVE",
"659 -3 CURVE",
"663 27 OFFCURVE",
"662 57 OFFCURVE",
"658 75 CURVE",
"630 78 OFFCURVE",
"618 92 OFFCURVE",
"594 195 CURVE SMOOTH",
"569 302 OFFCURVE",
"519 488 OFFCURVE",
"457 682 CURVE",
"426 682 OFFCURVE",
"407 682 OFFCURVE",
"380 676 CURVE",
"203 373 OFFCURVE",
"130 252 OFFCURVE",
"81 176 CURVE SMOOTH",
"32 100 OFFCURVE",
"12 81 OFFCURVE",
"-21 75 CURVE",
"-31 50 OFFCURVE",
"-35 27 OFFCURVE",
"-36 -3 CURVE"
);
},
{
closed = 1;
nodes = (
"221 164 OFFCURVE",
"316 166 OFFCURVE",
"406 166 CURVE",
"396 231 LINE",
"151 231 LINE",
"123 153 LINE"
);
}
);
width = 710;
},
{
anchors = (
{
name = bottom;
position = "{276, 0}";
},
{
name = ogonek;
position = "{566, 0}";
},
{
name = top;
position = "{401, 676}";
},
{
name = topleft;
position = "{279, 676}";
}
);
background = {
anchors = (
{
name = bottom;
position = "{276, 0}";
},
{
name = ogonek;
position = "{566, 0}";
},
{
name = top;
position = "{401, 676}";
},
{
name = topleft;
position = "{279, 676}";
}
);
paths = (
{
closed = 1;
nodes = (
"2 0 OFFCURVE",
"23 0 OFFCURVE",
"58 0 CURVE SMOOTH",
"89 0 OFFCURVE",
"118 0 OFFCURVE",
"150 -3 CURVE",
"151 12 OFFCURVE",
"150 26 OFFCURVE",
"147 40 CURVE",
"94 49 OFFCURVE",
"86 65 OFFCURVE",
"132 143 CURVE SMOOTH",
"191 242 OFFCURVE",
"246 341 OFFCURVE",
"299 440 CURVE SMOOTH",
"324 487 OFFCURVE",
"339 515 OFFCURVE",
"362 563 CURVE",
"355 563 LINE",
"363 515 OFFCURVE",
"369 488 OFFCURVE",
"381 447 CURVE SMOOTH",
"411 340 OFFCURVE",
"438 231 OFFCURVE",
"464 122 CURVE SMOOTH",
"479 61 OFFCURVE",
"467 47 OFFCURVE",
"409 40 CURVE",
"403 27 OFFCURVE",
"401 12 OFFCURVE",
"401 -3 CURVE",
"441 0 OFFCURVE",
"481 0 OFFCURVE",
"515 0 CURVE SMOOTH",
"545 0 OFFCURVE",
"593 0 OFFCURVE",
"626 -3 CURVE",
"627 12 OFFCURVE",
"627 25 OFFCURVE",
"623 40 CURVE",
"594 49 OFFCURVE",
"582 57 OFFCURVE",
"564 132 CURVE SMOOTH",
"520 316 OFFCURVE",
"472 500 OFFCURVE",
"420 682 CURVE",
"409 682 OFFCURVE",
"393 681 OFFCURVE",
"381 676 CURVE",
"283 500 OFFCURVE",
"184 325 OFFCURVE",
"82 151 CURVE SMOOTH",
"36 73 OFFCURVE",
"18 51 OFFCURVE",
"-19 40 CURVE",
"-25 27 OFFCURVE",
"-27 12 OFFCURVE",
"-27 -3 CURVE"
);
},
{
closed = 1;
nodes = (
"245 218 OFFCURVE",
"359 219 OFFCURVE",
"449 219 CURVE",
"446 265 LINE",
"183 265 LINE",
"161 215 LINE"
);
}
);
};
layerId = "9785DD90-0D66-4E3E-881E-09053C5F0A8A";
paths = (
{
closed = 1;
nodes = (
"2 0 OFFCURVE",
"23 0 OFFCURVE",
"58 0 CURVE SMOOTH",
"89 0 OFFCURVE",
"118 0 OFFCURVE",
"150 -3 CURVE",
"151 12 OFFCURVE",
"150 26 OFFCURVE",
"147 40 CURVE",
"94 49 OFFCURVE",
"86 65 OFFCURVE",
"132 143 CURVE SMOOTH",
"191 242 OFFCURVE",
"246 341 OFFCURVE",
"299 440 CURVE SMOOTH",
"324 487 OFFCURVE",
"339 515 OFFCURVE",
"362 563 CURVE",
"355 563 LINE",
"363 515 OFFCURVE",
"369 488 OFFCURVE",
"381 447 CURVE SMOOTH",
"411 340 OFFCURVE",
"438 231 OFFCURVE",
"464 122 CURVE SMOOTH",
"479 61 OFFCURVE",
"467 47 OFFCURVE",
"409 40 CURVE",
"403 27 OFFCURVE",
"401 12 OFFCURVE",
"401 -3 CURVE",
"441 0 OFFCURVE",
"481 0 OFFCURVE",
"515 0 CURVE SMOOTH",
"545 0 OFFCURVE",
"593 0 OFFCURVE",
"626 -3 CURVE",
"627 12 OFFCURVE",
"627 25 OFFCURVE",
"623 40 CURVE",
"594 49 OFFCURVE",
"582 57 OFFCURVE",
"564 132 CURVE SMOOTH",
"520 316 OFFCURVE",
"472 500 OFFCURVE",
"420 682 CURVE",
"409 682 OFFCURVE",
"393 681 OFFCURVE",
"381 676 CURVE",
"283 500 OFFCURVE",
"184 325 OFFCURVE",
"82 151 CURVE SMOOTH",
"36 73 OFFCURVE",
"18 51 OFFCURVE",
"-19 40 CURVE",
"-25 27 OFFCURVE",
"-27 12 OFFCURVE",
"-27 -3 CURVE"
);
},
{
closed = 1;
nodes = (
"245 218 OFFCURVE",
"359 219 OFFCURVE",
"449 219 CURVE",
"446 265 LINE",
"183 265 LINE",
"161 215 LINE"
);
}
);
width = 687;
}
);
leftKerningGroup = A;
rightKerningGroup = A;
unicode = 0041;
},
{
glyphname = AE;
layers = (
{
anchors = (
{
name = top;
position = "{583, 676}";
}
);
background = {
paths = (
{
closed = 1;
nodes = (
"709 601 LINE SMOOTH",
"808 601 OFFCURVE",
"825 555 OFFCURVE",
"830 485 CURVE",
"864 485 OFFCURVE",
"897 489 OFFCURVE",
"928 497 CURVE",
"923 557 OFFCURVE",
"928 624 OFFCURVE",
"937 679 CURVE",
"879 677 OFFCURVE",
"804 676 OFFCURVE",
"651 676 CURVE SMOOTH",
"501 676 OFFCURVE",
"404 676 OFFCURVE",
"302 679 CURVE",
"297 656 OFFCURVE",
"297 623 OFFCURVE",
"303 601 CURVE",
"364 596 OFFCURVE",
"371 555 OFFCURVE",
"342 514 CURVE SMOOTH",
"202 317 OFFCURVE",
"136 226 OFFCURVE",
"91 166 CURVE SMOOTH",
"35 93 OFFCURVE",
"12 81 OFFCURVE",
"-21 75 CURVE",
"-31 50 OFFCURVE",
"-35 27 OFFCURVE",
"-36 -3 CURVE",
"-15 -1 OFFCURVE",
"23 0 OFFCURVE",
"56 0 CURVE SMOOTH",
"89 0 OFFCURVE",
"157 -1 OFFCURVE",
"179 -3 CURVE",
"185 25 OFFCURVE",
"184 51 OFFCURVE",
"181 75 CURVE",
"139 82 OFFCURVE",
"133 100 OFFCURVE",
"178 163 CURVE SMOOTH",
"259 278 LINE",
"296 282 OFFCURVE",
"339 284 OFFCURVE",
"402 285 CURVE",
"386 193 LINE SMOOTH",
"369 91 OFFCURVE",
"360 80 OFFCURVE",
"308 76 CURVE",
"295 48 OFFCURVE",
"290 24 OFFCURVE",
"289 -3 CURVE",
"353 0 OFFCURVE",
"519 0 OFFCURVE",
"589 0 CURVE SMOOTH",
"674 0 OFFCURVE",
"794 0 OFFCURVE",
"854 -3 CURVE",
"862 63 OFFCURVE",
"881 133 OFFCURVE",
"897 180 CURVE",
"868 202 OFFCURVE",
"841 212 OFFCURVE",
"800 218 CURVE",
"767 111 OFFCURVE",
"724 75 OFFCURVE",
"656 75 CURVE SMOOTH",
"582 75 OFFCURVE",
"567 82 OFFCURVE",
"583 182 CURVE SMOOTH",
"600 286 LINE",
"610 286 LINE SMOOTH",
"669 286 OFFCURVE",
"676 245 OFFCURVE",
"676 206 CURVE",
"702 196 OFFCURVE",
"730 192 OFFCURVE",
"762 191 CURVE",
"763 225 OFFCURVE",
"767 265 OFFCURVE",
"772 301 CURVE SMOOTH",
"779 351 OFFCURVE",
"787 393 OFFCURVE",
"796 430 CURVE",
"764 433 OFFCURVE",
"733 431 OFFCURVE",
"705 425 CURVE",
"698 369 OFFCURVE",
"680 352 OFFCURVE",
"620 352 CURVE SMOOTH",
"611 352 LINE",
"652 601 LINE"
);
},
{
closed = 1;
nodes = (
"449 541 OFFCURVE",
"438 494 OFFCURVE",
"431 451 CURVE SMOOTH",
"413 352 LINE",
"311 352 LINE",
"377 448 OFFCURVE",
"421 515 OFFCURVE",
"460 580 CURVE",
"461 580 LINE"
);
}
);
};
layerId = "B20BA836-AF41-4C81-B953-D076FC766EB4";
rightMetricsKey = "=E";
paths = (
{
closed = 1;
nodes = (
"202 270 LINE",
"270 282 OFFCURVE",
"339 286 OFFCURVE",
"520 286 CURVE",
"520 352 LINE",
"239 352 LINE"
);
},
{
closed = 1;
nodes = (
"698 369 OFFCURVE",
"680 352 OFFCURVE",
"620 352 CURVE SMOOTH",
"562 352 LINE",
"549 286 LINE",
"610 286 LINE SMOOTH",
"669 286 OFFCURVE",
"676 245 OFFCURVE",
"676 206 CURVE",
"702 196 OFFCURVE",
"730 192 OFFCURVE",
"762 191 CURVE",
"763 225 OFFCURVE",
"767 265 OFFCURVE",
"772 301 CURVE SMOOTH",
"779 351 OFFCURVE",
"787 393 OFFCURVE",
"796 430 CURVE",
"764 433 OFFCURVE",
"733 431 OFFCURVE",
"705 425 CURVE"
);
},
{
closed = 1;
nodes = (
"880 677 OFFCURVE",
"805 676 OFFCURVE",
"655 676 CURVE",
"611 601 LINE",
"709 601 LINE SMOOTH",
"808 601 OFFCURVE",
"825 555 OFFCURVE",
"830 485 CURVE",
"864 485 OFFCURVE",
"897 489 OFFCURVE",
"928 497 CURVE",
"923 557 OFFCURVE",
"928 624 OFFCURVE",
"937 679 CURVE"
);
},
{
closed = 1;
nodes = (
"767 111 OFFCURVE",
"724 75 OFFCURVE",
"656 75 CURVE SMOOTH",
"642 75 LINE",
"589 0 LINE",
"674 0 OFFCURVE",
"794 0 OFFCURVE",
"854 -3 CURVE",
"862 63 OFFCURVE",
"881 133 OFFCURVE",
"897 180 CURVE",
"868 202 OFFCURVE",
"841 212 OFFCURVE",
"800 218 CURVE"
);
},
{
closed = 1;
nodes = (
"463 600 OFFCURVE",
"445 533 OFFCURVE",
"431 451 CURVE SMOOTH",
"386 197 LINE SMOOTH",
"368 95 OFFCURVE",
"360 80 OFFCURVE",
"308 76 CURVE",
"295 48 OFFCURVE",
"290 24 OFFCURVE",
"289 -3 CURVE",
"353 0 OFFCURVE",
"519 0 OFFCURVE",
"589 0 CURVE",
"642 75 LINE",
"581 75 OFFCURVE",
"567 90 OFFCURVE",
"583 182 CURVE SMOOTH",
"665 676 LINE",
"497 676 LINE"
);
},
{
closed = 1;
nodes = (
"202 317 OFFCURVE",
"136 226 OFFCURVE",
"91 166 CURVE SMOOTH",
"35 93 OFFCURVE",
"12 81 OFFCURVE",
"-21 75 CURVE",
"-31 50 OFFCURVE",
"-35 27 OFFCURVE",
"-36 -3 CURVE",
"-15 -1 OFFCURVE",
"23 0 OFFCURVE",
"56 0 CURVE SMOOTH",
"89 0 OFFCURVE",
"157 -1 OFFCURVE",
"179 -3 CURVE",
"185 25 OFFCURVE",
"184 51 OFFCURVE",
"181 75 CURVE",
"139 82 OFFCURVE",
"133 100 OFFCURVE",
"178 163 CURVE SMOOTH",
"376 442 OFFCURVE",
"432 522 OFFCURVE",
"513 676 CURVE",
"442 676 OFFCURVE",
"401 676 OFFCURVE",
"302 679 CURVE",
"297 656 OFFCURVE",
"297 623 OFFCURVE",
"303 601 CURVE",
"364 596 OFFCURVE",
"371 555 OFFCURVE",
"342 514 CURVE SMOOTH"
);
}
);
width = 917;
},
{
anchors = (
{
name = top;
position = "{593, 676}";
}
);
background = {
anchors = (
{
name = top;
position = "{593, 676}";
}
);
paths = (
{
closed = 1;
nodes = (
"236 293 LINE",
"305 297 OFFCURVE",
"393 298 OFFCURVE",
"475 298 CURVE",
"484 341 LINE",
"267 341 LINE"
);
},
{
closed = 1;
nodes = (
"692 358 OFFCURVE",
"659 341 OFFCURVE",
"577 341 CURVE SMOOTH",
"527 341 LINE",
"519 298 LINE",
"573 298 LINE SMOOTH",
"655 298 OFFCURVE",
"677 279 OFFCURVE",
"672 212 CURVE",
"684 204 OFFCURVE",
"699 201 OFFCURVE",
"718 199 CURVE",
"720 232 OFFCURVE",
"723 266 OFFCURVE",
"730 314 CURVE SMOOTH",
"737 366 OFFCURVE",
"743 392 OFFCURVE",
"751 425 CURVE",
"733 428 OFFCURVE",
"720 427 OFFCURVE",
"703 424 CURVE"
);
},
{
closed = 1;
nodes = (
"752 676 OFFCURVE",
"669 676 OFFCURVE",
"592 676 CURVE",
"564 631 LINE",
"656 631 LINE SMOOTH",
"785 631 OFFCURVE",
"795 595 OFFCURVE",
"798 509 CURVE",
"819 508 OFFCURVE",
"837 511 OFFCURVE",
"848 516 CURVE",
"845 563 OFFCURVE",
"849 629 OFFCURVE",
"855 679 CURVE"
);
},
{
closed = 1;
nodes = (
"729 91 OFFCURVE",
"701 45 OFFCURVE",
"578 45 CURVE SMOOTH",
"574 45 LINE",
"568 0 LINE",
"642 0 OFFCURVE",
"702 0 OFFCURVE",
"761 -3 CURVE",
"773 55 OFFCURVE",
"793 108 OFFCURVE",
"815 150 CURVE SMOOTH",
"803 163 OFFCURVE",
"788 169 OFFCURVE",
"770 172 CURVE"
);
},
{
closed = 1;
nodes = (
"504 652 OFFCURVE",
"486 595 OFFCURVE",
"472 514 CURVE SMOOTH",
"407 143 LINE SMOOTH",
"394 65 OFFCURVE",
"384 48 OFFCURVE",
"323 40 CURVE",
"318 26 OFFCURVE",
"316 12 OFFCURVE",
"316 -3 CURVE",
"395 0 OFFCURVE",
"471 0 OFFCURVE",
"568 0 CURVE",
"574 45 LINE",
"499 45 OFFCURVE",
"487 59 OFFCURVE",
"501 143 CURVE SMOOTH",
"592 676 LINE",
"515 676 LINE"
);
},
{
closed = 1;
nodes = (
"304 413 OFFCURVE",
"201 274 OFFCURVE",
"96 137 CURVE SMOOTH",
"40 66 OFFCURVE",
"18 51 OFFCURVE",
"-19 40 CURVE",
"-25 27 OFFCURVE",
"-27 12 OFFCURVE",
"-27 -3 CURVE",
"2 0 OFFCURVE",
"23 0 OFFCURVE",
"58 0 CURVE SMOOTH",
"89 0 OFFCURVE",
"118 0 OFFCURVE",
"150 -3 CURVE",
"151 12 OFFCURVE",
"150 26 OFFCURVE",
"147 40 CURVE",
"109 50 OFFCURVE",
"109 73 OFFCURVE",
"145 122 CURVE SMOOTH",
"395 463 OFFCURVE",
"472 574 OFFCURVE",
"530 676 CURVE",
"496 676 OFFCURVE",
"443 676 OFFCURVE",
"362 679 CURVE",
"360 664 OFFCURVE",
"360 650 OFFCURVE",
"363 636 CURVE",
"427 630 OFFCURVE",
"437 596 OFFCURVE",
"395 538 CURVE SMOOTH"
);
}
);
};
layerId = "9785DD90-0D66-4E3E-881E-09053C5F0A8A";
rightMetricsKey = "=E";
paths = (
{
closed = 1;
nodes = (
"236 293 LINE",
"305 297 OFFCURVE",
"393 298 OFFCURVE",
"475 298 CURVE",
"484 341 LINE",
"267 341 LINE"
);
},
{
closed = 1;
nodes = (
"692 358 OFFCURVE",
"659 341 OFFCURVE",
"577 341 CURVE SMOOTH",
"527 341 LINE",
"519 298 LINE",
"573 298 LINE SMOOTH",
"655 298 OFFCURVE",
"677 279 OFFCURVE",
"672 212 CURVE",
"684 204 OFFCURVE",
"699 201 OFFCURVE",
"718 199 CURVE",
"720 232 OFFCURVE",
"723 266 OFFCURVE",
"730 314 CURVE SMOOTH",
"737 366 OFFCURVE",
"743 392 OFFCURVE",
"751 425 CURVE",
"733 428 OFFCURVE",
"720 427 OFFCURVE",
"703 424 CURVE"
);
},
{
closed = 1;
nodes = (
"752 676 OFFCURVE",
"669 676 OFFCURVE",
"592 676 CURVE",
"564 631 LINE",
"656 631 LINE SMOOTH",
"785 631 OFFCURVE",
"795 595 OFFCURVE",
"798 509 CURVE",
"819 508 OFFCURVE",
"837 511 OFFCURVE",
"848 516 CURVE",
"845 563 OFFCURVE",
"849 629 OFFCURVE",
"855 679 CURVE"
);
},
{
closed = 1;
nodes = (
"729 91 OFFCURVE",
"701 45 OFFCURVE",
"578 45 CURVE SMOOTH",
"574 45 LINE",
"568 0 LINE",
"642 0 OFFCURVE",
"702 0 OFFCURVE",
"761 -3 CURVE",
"773 55 OFFCURVE",
"793 108 OFFCURVE",
"815 150 CURVE SMOOTH",
"803 163 OFFCURVE",
"788 169 OFFCURVE",
"770 172 CURVE"
);
},
{
closed = 1;
nodes = (
"504 652 OFFCURVE",
"486 595 OFFCURVE",
"472 514 CURVE SMOOTH",
"407 143 LINE SMOOTH",
"394 65 OFFCURVE",
"384 48 OFFCURVE",
"323 40 CURVE",
"318 26 OFFCURVE",
"316 12 OFFCURVE",
"316 -3 CURVE",
"395 0 OFFCURVE",
"471 0 OFFCURVE",
"568 0 CURVE",
"574 45 LINE",
"499 45 OFFCURVE",
"487 59 OFFCURVE",
"501 143 CURVE SMOOTH",
"592 676 LINE",
"515 676 LINE"
);
},
{
closed = 1;
nodes = (
"304 413 OFFCURVE",
"201 274 OFFCURVE",
"96 137 CURVE SMOOTH",
"40 66 OFFCURVE",
"18 51 OFFCURVE",
"-19 40 CURVE",
"-25 27 OFFCURVE",
"-27 12 OFFCURVE",
"-27 -3 CURVE",
"2 0 OFFCURVE",
"23 0 OFFCURVE",
"58 0 CURVE SMOOTH",
"89 0 OFFCURVE",
"118 0 OFFCURVE",
"150 -3 CURVE",
"151 12 OFFCURVE",
"150 26 OFFCURVE",
"147 40 CURVE",
"109 50 OFFCURVE",
"109 73 OFFCURVE",
"145 122 CURVE SMOOTH",
"395 463 OFFCURVE",
"472 574 OFFCURVE",
"530 676 CURVE",
"496 676 OFFCURVE",
"443 676 OFFCURVE",
"362 679 CURVE",
"360 664 OFFCURVE",
"360 650 OFFCURVE",
"363 636 CURVE",
"427 630 OFFCURVE",
"437 596 OFFCURVE",
"395 538 CURVE SMOOTH"
);
}
);
width = 856;
}
);
leftKerningGroup = A;
leftMetricsKey = A;
rightKerningGroup = E;
rightMetricsKey = A;
unicode = 00C6;
},
{
glyphname = B;
layers = (
{
background = {
paths = (
{
closed = 1;
nodes = (
"106 197 LINE SMOOTH",
"88 91 OFFCURVE",
"81 79 OFFCURVE",
"29 75 CURVE",
"19 51 OFFCURVE",
"11 26 OFFCURVE",
"9 -3 CURVE",
"100 0 OFFCURVE",
"220 0 OFFCURVE",
"342 0 CURVE SMOOTH",
"569 0 OFFCURVE",
"662 68 OFFCURVE",
"681 174 CURVE SMOOTH",
"700 286 OFFCURVE",
"656 361 OFFCURVE",
"520 368 CURVE",
"630 384 OFFCURVE",
"691 436 OFFCURVE",
"702 503 CURVE SMOOTH",
"722 614 OFFCURVE",
"664 679 OFFCURVE",
"445 679 CURVE SMOOTH",
"361 679 OFFCURVE",
"272 676 OFFCURVE",
"219 676 CURVE SMOOTH",
"185 676 OFFCURVE",
"139 677 OFFCURVE",
"108 679 CURVE",
"105 653 OFFCURVE",
"103 623 OFFCURVE",
"109 601 CURVE",
"161 593 OFFCURVE",
"173 581 OFFCURVE",
"159 501 CURVE SMOOTH"
);
},
{
closed = 1;
nodes = (
"339 389 LINE",
"373 586 LINE",
"391 594 OFFCURVE",
"407 601 OFFCURVE",
"431 601 CURVE SMOOTH",
"483 601 OFFCURVE",
"514 571 OFFCURVE",
"505 516 CURVE SMOOTH",
"490 435 OFFCURVE",
"436 389 OFFCURVE",
"371 389 CURVE SMOOTH"
);
},
{
closed = 1;
nodes = (
"325 306 LINE",
"354 306 LINE SMOOTH",
"442 306 OFFCURVE",
"480 286 OFFCURVE",
"466 203 CURVE SMOOTH",
"452 123 OFFCURVE",
"398 74 OFFCURVE",
"345 74 CURVE SMOOTH",
"312 74 OFFCURVE",
"285 79 OFFCURVE",
"301 168 CURVE SMOOTH"
);
}
);
};
layerId = "B20BA836-AF41-4C81-B953-D076FC766EB4";
paths = (
{
closed = 1;
nodes = (
"382 638 LINE",
"362 581 LINE",
"385 591 OFFCURVE",
"402 601 OFFCURVE",
"431 601 CURVE SMOOTH",
"483 601 OFFCURVE",
"514 571 OFFCURVE",
"505 516 CURVE SMOOTH",
"490 435 OFFCURVE",
"436 389 OFFCURVE",
"371 389 CURVE SMOOTH",
"299 389 LINE",
"285 306 LINE",
"354 306 LINE SMOOTH",
"442 306 OFFCURVE",
"480 286 OFFCURVE",
"466 203 CURVE SMOOTH",
"452 123 OFFCURVE",
"398 74 OFFCURVE",
"345 74 CURVE SMOOTH",
"312 74 OFFCURVE",
"285 79 OFFCURVE",
"301 168 CURVE SMOOTH"
);
},
{
closed = 1;
nodes = (
"185 676 OFFCURVE",
"139 677 OFFCURVE",
"108 679 CURVE",
"105 653 OFFCURVE",
"103 623 OFFCURVE",
"109 601 CURVE",
"161 593 OFFCURVE",
"173 581 OFFCURVE",
"159 501 CURVE SMOOTH",
"106 197 LINE SMOOTH",
"88 91 OFFCURVE",
"81 79 OFFCURVE",
"29 75 CURVE",
"19 51 OFFCURVE",
"11 26 OFFCURVE",
"9 -3 CURVE",
"100 0 OFFCURVE",
"220 0 OFFCURVE",
"342 0 CURVE SMOOTH",
"569 0 OFFCURVE",
"662 68 OFFCURVE",
"681 174 CURVE SMOOTH",
"700 286 OFFCURVE",
"656 361 OFFCURVE",
"520 368 CURVE",
"630 384 OFFCURVE",
"691 436 OFFCURVE",
"702 503 CURVE SMOOTH",
"722 614 OFFCURVE",
"664 679 OFFCURVE",
"445 679 CURVE SMOOTH",
"361 679 OFFCURVE",
"272 676 OFFCURVE",
"219 676 CURVE SMOOTH"
);
}
);
width = 712;
},
{
background = {
paths = (
{
closed = 1;
nodes = (
"298 643 LINE",
"283 627 LINE",
"307 634 OFFCURVE",
"326 636 OFFCURVE",
"342 636 CURVE SMOOTH",
"431 636 OFFCURVE",
"482 593 OFFCURVE",
"464 502 CURVE SMOOTH",
"449 426 OFFCURVE",
"389 376 OFFCURVE",
"281 376 CURVE SMOOTH",
"240 376 LINE",
"232 331 LINE",
"269 331 LINE SMOOTH",
"423 331 OFFCURVE",
"474 285 OFFCURVE",
"450 165 CURVE SMOOTH",
"436 92 OFFCURVE",
"369 42 OFFCURVE",
"283 42 CURVE SMOOTH",
"210 42 OFFCURVE",
"195 51 OFFCURVE",
"210 133 CURVE SMOOTH"
);
},
{
closed = 1;
nodes = (
"202 676 OFFCURVE",
"174 676 OFFCURVE",
"128 679 CURVE",
"126 663 OFFCURVE",
"127 650 OFFCURVE",
"130 636 CURVE",
"181 632 OFFCURVE",
"201 621 OFFCURVE",
"189 554 CURVE SMOOTH",
"117 143 LINE SMOOTH",
"104 65 OFFCURVE",
"94 49 OFFCURVE",
"33 40 CURVE",
"29 29 OFFCURVE",
"26 15 OFFCURVE",
"25 -3 CURVE",
"104 0 OFFCURVE",
"217 0 OFFCURVE",
"293 0 CURVE SMOOTH",
"441 0 OFFCURVE",
"538 68 OFFCURVE",
"559 170 CURVE SMOOTH",
"584 296 OFFCURVE",
"524 359 OFFCURVE",
"397 366 CURVE",
"486 378 OFFCURVE",
"554 437 OFFCURVE",
"568 512 CURVE SMOOTH",
"590 632 OFFCURVE",
"520 679 OFFCURVE",
"380 679 CURVE SMOOTH",
"335 679 OFFCURVE",
"286 676 OFFCURVE",
"238 676 CURVE SMOOTH"
);
}
);
};
layerId = "9785DD90-0D66-4E3E-881E-09053C5F0A8A";
paths = (
{
closed = 1;
nodes = (
"298 643 LINE",
"283 627 LINE",
"307 634 OFFCURVE",
"326 636 OFFCURVE",
"342 636 CURVE SMOOTH",
"431 636 OFFCURVE",
"482 593 OFFCURVE",
"464 502 CURVE SMOOTH",
"449 426 OFFCURVE",
"389 376 OFFCURVE",
"281 376 CURVE SMOOTH",
"240 376 LINE",
"232 331 LINE",
"269 331 LINE SMOOTH",
"423 331 OFFCURVE",
"474 285 OFFCURVE",
"450 165 CURVE SMOOTH",
"436 92 OFFCURVE",
"369 42 OFFCURVE",
"283 42 CURVE SMOOTH",
"210 42 OFFCURVE",
"195 51 OFFCURVE",
"210 133 CURVE SMOOTH"
);
},
{
closed = 1;
nodes = (
"202 676 OFFCURVE",
"174 676 OFFCURVE",
"128 679 CURVE",
"126 663 OFFCURVE",
"127 650 OFFCURVE",
"130 636 CURVE",
"181 632 OFFCURVE",
"201 621 OFFCURVE",
"189 554 CURVE SMOOTH",
"117 143 LINE SMOOTH",
"104 65 OFFCURVE",
"94 49 OFFCURVE",
"33 40 CURVE",
"29 29 OFFCURVE",
"26 15 OFFCURVE",
"25 -3 CURVE",
"104 0 OFFCURVE",
"217 0 OFFCURVE",
"293 0 CURVE SMOOTH",
"441 0 OFFCURVE",
"538 68 OFFCURVE",
"559 170 CURVE SMOOTH",
"584 296 OFFCURVE",
"524 359 OFFCURVE",
"397 366 CURVE",
"486 378 OFFCURVE",
"554 437 OFFCURVE",
"568 512 CURVE SMOOTH",
"590 632 OFFCURVE",
"520 679 OFFCURVE",
"380 679 CURVE SMOOTH",
"335 679 OFFCURVE",
"286 676 OFFCURVE",
"238 676 CURVE SMOOTH"
);
}
);
width = 601;
}
);
leftKerningGroup = H;
leftMetricsKey = H;
rightKerningGroup = B;
unicode = 0042;
},
{
glyphname = C;
layers = (
{
anchors = (
{
name = bottom;
position = "{319, 0}";
},
{
name = bottomright;
position = "{573, 54}";
},
{
name = center;
position = "{149, 338}";
},
{
name = top;
position = "{445, 676}";
}
);
layerId = "B20BA836-AF41-4C81-B953-D076FC766EB4";
paths = (
{
closed = 1;
nodes = (
"596 672 OFFCURVE",
"523 685 OFFCURVE",
"442 685 CURVE SMOOTH",
"270 685 OFFCURVE",
"88 578 OFFCURVE",
"51 362 CURVE SMOOTH",
"13 144 OFFCURVE",
"124 -9 OFFCURVE",
"343 -9 CURVE SMOOTH",
"436 -9 OFFCURVE",
"509 13 OFFCURVE",
"573 54 CURVE",
"571 82 OFFCURVE",
"564 106 OFFCURVE",
"548 123 CURVE",
"491 95 OFFCURVE",
"442 85 OFFCURVE",
"400 85 CURVE SMOOTH",
"264 85 OFFCURVE",
"227 197 OFFCURVE",
"253 347 CURVE SMOOTH",
"276 481 OFFCURVE",
"341 608 OFFCURVE",
"444 608 CURVE SMOOTH",
"506 608 OFFCURVE",
"545 581 OFFCURVE",
"532 470 CURVE",
"565 464 OFFCURVE",
"601 467 OFFCURVE",
"627 477 CURVE",
"633 534 OFFCURVE",
"644 585 OFFCURVE",
"660 632 CURVE"
);
}
);
width = 613;
},
{
anchors = (
{
name = bottom;
position = "{330, 0}";
},
{
name = bottomright;
position = "{584, 72}";
},
{
name = center;
position = "{115, 338}";
},
{
name = top;
position = "{458, 676}";
}
);
background = {
anchors = (
{
name = bottom;
position = "{330, 0}";
},
{
name = bottomright;
position = "{584, 72}";
},
{
name = center;
position = "{115, 338}";
},
{
name = top;
position = "{458, 676}";
}
);
paths = (
{
closed = 1;
nodes = (
"599 666 OFFCURVE",
"538 685 OFFCURVE",
"454 685 CURVE SMOOTH",
"284 685 OFFCURVE",
"93 579 OFFCURVE",
"61 328 CURVE SMOOTH",
"37 140 OFFCURVE",
"135 -9 OFFCURVE",
"341 -9 CURVE SMOOTH",
"426 -9 OFFCURVE",
"506 16 OFFCURVE",
"584 72 CURVE",
"583 87 OFFCURVE",
"578 100 OFFCURVE",
"568 110 CURVE",
"509 74 OFFCURVE",
"441 52 OFFCURVE",
"368 52 CURVE SMOOTH",
"210 52 OFFCURVE",
"151 184 OFFCURVE",
"167 333 CURVE SMOOTH",
"186 505 OFFCURVE",
"290 644 OFFCURVE",
"461 644 CURVE SMOOTH",
"547 644 OFFCURVE",
"597 614 OFFCURVE",
"579 473 CURVE",
"598 468 OFFCURVE",
"617 469 OFFCURVE",
"633 475 CURVE",
"640 532 OFFCURVE",
"649 581 OFFCURVE",
"666 626 CURVE"
);
}
);
};
layerId = "9785DD90-0D66-4E3E-881E-09053C5F0A8A";
paths = (
{
closed = 1;
nodes = (
"599 666 OFFCURVE",
"538 685 OFFCURVE",
"454 685 CURVE SMOOTH",
"284 685 OFFCURVE",
"93 579 OFFCURVE",
"61 328 CURVE SMOOTH",
"37 140 OFFCURVE",
"135 -9 OFFCURVE",
"341 -9 CURVE SMOOTH",
"426 -9 OFFCURVE",
"506 16 OFFCURVE",
"584 72 CURVE",
"583 87 OFFCURVE",
"578 100 OFFCURVE",
"568 110 CURVE",
"509 74 OFFCURVE",
"441 52 OFFCURVE",
"368 52 CURVE SMOOTH",
"210 52 OFFCURVE",
"151 184 OFFCURVE",
"167 333 CURVE SMOOTH",
"186 505 OFFCURVE",
"290 644 OFFCURVE",
"461 644 CURVE SMOOTH",
"547 644 OFFCURVE",
"597 614 OFFCURVE",
"579 473 CURVE",
"598 468 OFFCURVE",
"617 469 OFFCURVE",
"633 475 CURVE",
"640 532 OFFCURVE",
"649 581 OFFCURVE",
"666 626 CURVE"
);
}
);
width = 635;
}
);
leftKerningGroup = O;
leftMetricsKey = O;
rightKerningGroup = C;
unicode = 0043;
},
{
glyphname = D;
layers = (
{
anchors = (
{
name = bottom;
position = "{322, 0}";
},
{
name = center;
position = "{255, 348}";
},
{
name = top;
position = "{419, 676}";
}
);
background = {
paths = (
{
closed = 1;
nodes = (
"106 197 LINE SMOOTH",
"89 95 OFFCURVE",
"81 79 OFFCURVE",
"29 75 CURVE",
"17 48 OFFCURVE",
"12 24 OFFCURVE",
"11 -3 CURVE",
"64 0 OFFCURVE",
"235 0 OFFCURVE",
"307 0 CURVE SMOOTH",
"309 0 LINE SMOOTH",
"408 0 OFFCURVE",
"674 21 OFFCURVE",
"729 335 CURVE SMOOTH",
"778 617 OFFCURVE",
"620 678 OFFCURVE",
"421 678 CURVE SMOOTH",
"377 678 OFFCURVE",
"341 676 OFFCURVE",
"311 676 CURVE SMOOTH",
"239 676 OFFCURVE",
"155 677 OFFCURVE",
"109 679 CURVE",
"104 659 OFFCURVE",
"104 628 OFFCURVE",
"109 601 CURVE",
"161 595 OFFCURVE",
"172 581 OFFCURVE",
"158 501 CURVE SMOOTH"
);
},
{
closed = 1;
nodes = (
"370 591 LINE",
"389 600 OFFCURVE",
"405 603 OFFCURVE",
"424 603 CURVE SMOOTH",
"502 603 OFFCURVE",
"566 560 OFFCURVE",
"531 357 CURVE SMOOTH",
"487 106 OFFCURVE",
"389 75 OFFCURVE",
"358 75 CURVE SMOOTH",
"298 75 OFFCURVE",
"286 90 OFFCURVE",
"302 182 CURVE SMOOTH"
);
}
);
};
layerId = "B20BA836-AF41-4C81-B953-D076FC766EB4";
paths = (
{
closed = 1;
nodes = (
"372 678 OFFCURVE",
"332 676 OFFCURVE",
"300 676 CURVE",
"369 591 LINE",
"388 600 OFFCURVE",
"405 603 OFFCURVE",
"424 603 CURVE SMOOTH",
"502 603 OFFCURVE",
"566 560 OFFCURVE",
"531 357 CURVE SMOOTH",
"487 105 OFFCURVE",
"388 75 OFFCURVE",
"358 75 CURVE SMOOTH",
"178 75 LINE",
"164 0 LINE",
"309 0 LINE SMOOTH",
"408 0 OFFCURVE",
"674 21 OFFCURVE",
"729 335 CURVE SMOOTH",
"778 617 OFFCURVE",
"620 678 OFFCURVE",
"421 678 CURVE SMOOTH"
);
},
{
closed = 1;
nodes = (
"104 659 OFFCURVE",
"104 628 OFFCURVE",
"109 601 CURVE",
"161 595 OFFCURVE",
"172 581 OFFCURVE",
"158 501 CURVE SMOOTH",
"106 197 LINE SMOOTH",
"89 95 OFFCURVE",
"81 79 OFFCURVE",
"29 75 CURVE",
"17 48 OFFCURVE",
"12 24 OFFCURVE",
"11 -3 CURVE",
"65 0 OFFCURVE",
"239 0 OFFCURVE",
"309 0 CURVE SMOOTH",
"359 75 LINE",
"298 75 OFFCURVE",
"286 90 OFFCURVE",
"302 182 CURVE SMOOTH",
"384 676 LINE",
"310 676 OFFCURVE",
"172 676 OFFCURVE",
"109 679 CURVE"
);
}
);
width = 733;
},
{
anchors = (
{
name = bottom;
position = "{322, 0}";
},
{
name = center;
position = "{231, 343}";
},
{
name = top;
position = "{408, 676}";
}
);
background = {
anchors = (
{
name = bottom;
position = "{322, 0}";
},
{
name = center;
position = "{231, 343}";
},
{
name = top;
position = "{408, 676}";
}
);
paths = (
{
closed = 1;
nodes = (
"348 679 OFFCURVE",
"300 676 OFFCURVE",
"254 676 CURVE",
"290 627 LINE",
"315 633 OFFCURVE",
"338 636 OFFCURVE",
"367 636 CURVE SMOOTH",
"525 636 OFFCURVE",
"657 562 OFFCURVE",
"609 315 CURVE SMOOTH",
"571 121 OFFCURVE",
"447 45 OFFCURVE",
"283 45 CURVE SMOOTH",
"183 45 LINE",
"175 0 LINE",
"279 0 LINE SMOOTH",
"508 0 OFFCURVE",
"672 103 OFFCURVE",
"713 323 CURVE SMOOTH",
"768 616 OFFCURVE",
"571 679 OFFCURVE",
"392 679 CURVE SMOOTH"
);
},
{
closed = 1;
nodes = (
"126 666 OFFCURVE",
"126 651 OFFCURVE",
"130 637 CURVE",
"181 631 OFFCURVE",
"202 621 OFFCURVE",
"190 554 CURVE SMOOTH",
"118 143 LINE SMOOTH",
"105 65 OFFCURVE",
"93 48 OFFCURVE",
"33 40 CURVE",
"29 29 OFFCURVE",
"26 13 OFFCURVE",
"25 -3 CURVE",
"104 0 OFFCURVE",
"205 0 OFFCURVE",
"279 0 CURVE SMOOTH",
"283 45 LINE",
"207 45 OFFCURVE",
"198 59 OFFCURVE",
"211 133 CURVE SMOOTH",
"304 676 LINE",
"268 676 OFFCURVE",
"187 676 OFFCURVE",
"128 679 CURVE"
);
}
);
};
layerId = "9785DD90-0D66-4E3E-881E-09053C5F0A8A";
paths = (
{
closed = 1;
nodes = (
"348 679 OFFCURVE",
"300 676 OFFCURVE",
"254 676 CURVE",
"290 627 LINE",
"315 633 OFFCURVE",
"338 636 OFFCURVE",
"367 636 CURVE SMOOTH",
"525 636 OFFCURVE",
"657 562 OFFCURVE",
"609 315 CURVE SMOOTH",
"571 121 OFFCURVE",
"447 45 OFFCURVE",
"283 45 CURVE SMOOTH",
"183 45 LINE",
"175 0 LINE",
"279 0 LINE SMOOTH",
"508 0 OFFCURVE",
"672 103 OFFCURVE",
"713 323 CURVE SMOOTH",
"768 616 OFFCURVE",
"571 679 OFFCURVE",
"392 679 CURVE SMOOTH"
);
},
{
closed = 1;
nodes = (
"126 666 OFFCURVE",
"126 651 OFFCURVE",
"130 637 CURVE",
"181 631 OFFCURVE",
"202 621 OFFCURVE",
"190 554 CURVE SMOOTH",
"118 143 LINE SMOOTH",
"105 65 OFFCURVE",
"93 48 OFFCURVE",
"33 40 CURVE",
"29 29 OFFCURVE",
"26 13 OFFCURVE",
"25 -3 CURVE",
"104 0 OFFCURVE",
"205 0 OFFCURVE",
"279 0 CURVE SMOOTH",
"283 45 LINE",
"207 45 OFFCURVE",
"198 59 OFFCURVE",
"211 133 CURVE SMOOTH",
"304 676 LINE",
"268 676 OFFCURVE",
"187 676 OFFCURVE",
"128 679 CURVE"
);
}
);
width = 734.765;
}
);
leftKerningGroup = H;
leftMetricsKey = H;
rightKerningGroup = O;
rightMetricsKey = O;
unicode = 0044;
},
{
glyphname = Eth;
layers = (
{
background = {
paths = (
{
closed = 1;
nodes = (
"140 366 LINE",
"67 366 LINE",
"53 341 OFFCURVE",
"50 314 OFFCURVE",
"52 286 CURVE",
"63 287 OFFCURVE",
"91 287 OFFCURVE",
"130 288 CURVE"
);
},
{
closed = 1;
nodes = (
"313 289 LINE",
"401 289 LINE",
"413 311 OFFCURVE",
"416 340 OFFCURVE",
"412 366 CURVE",
"326 366 LINE"
);
}
);
};
components = (
{
name = D;
},
{
name = strokeshortcomb.case;
transform = "{0.95, 0, 0, 1, -1, -2}";
}
);
layerId = "B20BA836-AF41-4C81-B953-D076FC766EB4";
width = 733;
},
{
background = {
components = (
{
name = D;
},
{
name = strokeshortcomb.case;
transform = "{0.85, 0, 0, 1, 30, 5}";
}
);
};
components = (
{
name = D;
},
{
name = strokeshortcomb.case;
transform = "{0.85, 0, 0, 1, 30, 5}";
}
);
layerId = "9785DD90-0D66-4E3E-881E-09053C5F0A8A";
width = 735;
}
);
leftKerningGroup = Eth;
leftMetricsKey = D;
rightKerningGroup = O;
rightMetricsKey = D;
unicode = 00D0;
},
{
glyphname = E;
layers = (
{
anchors = (
{
name = bottom;
position = "{293, 0}";
},
{
name = ogonek;
position = "{505, 0}";
},
{
name = top;
position = "{382, 676}";
},
{
name = topleft;
position = "{94, 676}";
}
);
background = {
paths = (
{
closed = 1;
nodes = (
"430 601 LINE SMOOTH",
"529 601 OFFCURVE",
"546 555 OFFCURVE",
"551 485 CURVE",
"585 485 OFFCURVE",
"618 489 OFFCURVE",
"649 497 CURVE",
"644 557 OFFCURVE",
"649 624 OFFCURVE",
"658 679 CURVE",
"601 677 OFFCURVE",
"527 676 OFFCURVE",
"379 676 CURVE SMOOTH",
"303 676 OFFCURVE",
"169 676 OFFCURVE",
"108 679 CURVE",
"103 649 OFFCURVE",
"104 626 OFFCURVE",
"108 601 CURVE",
"160 593 OFFCURVE",
"174 581 OFFCURVE",
"160 501 CURVE SMOOTH",
"107 197 LINE SMOOTH",
"89 95 OFFCURVE",
"81 80 OFFCURVE",
"29 76 CURVE",
"16 48 OFFCURVE",
"11 24 OFFCURVE",
"10 -3 CURVE",
"74 0 OFFCURVE",
"240 0 OFFCURVE",
"310 0 CURVE SMOOTH",
"395 0 OFFCURVE",
"515 0 OFFCURVE",
"575 -3 CURVE",
"583 63 OFFCURVE",
"602 133 OFFCURVE",
"618 180 CURVE",
"589 202 OFFCURVE",
"562 212 OFFCURVE",
"521 218 CURVE",
"488 111 OFFCURVE",
"445 75 OFFCURVE",
"377 75 CURVE SMOOTH",
"363 75 LINE SMOOTH",
"302 75 OFFCURVE",
"288 90 OFFCURVE",
"304 182 CURVE SMOOTH",
"325 307 LINE",
"333 307 LINE SMOOTH",
"392 307 OFFCURVE",
"399 269 OFFCURVE",
"399 230 CURVE",
"425 220 OFFCURVE",
"453 216 OFFCURVE",
"485 215 CURVE",
"486 249 OFFCURVE",
"490 289 OFFCURVE",
"495 325 CURVE SMOOTH",
"502 375 OFFCURVE",
"510 417 OFFCURVE",
"519 454 CURVE",
"487 457 OFFCURVE",
"456 455 OFFCURVE",
"428 449 CURVE",
"421 393 OFFCURVE",
"403 382 OFFCURVE",
"343 382 CURVE SMOOTH",
"337 382 LINE",
"374 601 LINE"
);
}
);
};
layerId = "B20BA836-AF41-4C81-B953-D076FC766EB4";
paths = (
{
closed = 1;
nodes = (
"74 0 OFFCURVE",
"240 0 OFFCURVE",
"310 0 CURVE",
"363 75 LINE",
"302 75 OFFCURVE",
"288 90 OFFCURVE",
"304 182 CURVE SMOOTH",
"386 676 LINE",
"312 676 OFFCURVE",
"171 676 OFFCURVE",
"108 679 CURVE",
"103 649 OFFCURVE",
"104 626 OFFCURVE",
"108 601 CURVE",
"160 593 OFFCURVE",
"174 581 OFFCURVE",
"160 501 CURVE SMOOTH",
"107 197 LINE SMOOTH",
"89 95 OFFCURVE",
"81 80 OFFCURVE",
"29 76 CURVE",
"16 48 OFFCURVE",
"11 24 OFFCURVE",
"10 -3 CURVE"
);
},
{
closed = 1;
nodes = (
"583 63 OFFCURVE",
"602 133 OFFCURVE",
"618 180 CURVE",
"589 202 OFFCURVE",
"562 212 OFFCURVE",
"521 218 CURVE",
"488 111 OFFCURVE",
"445 75 OFFCURVE",
"377 75 CURVE SMOOTH",
"363 75 LINE",
"310 0 LINE",
"395 0 OFFCURVE",
"515 0 OFFCURVE",
"575 -3 CURVE"
);
},
{
closed = 1;
nodes = (
"486 249 OFFCURVE",
"490 289 OFFCURVE",
"495 325 CURVE SMOOTH",
"502 375 OFFCURVE",
"510 417 OFFCURVE",
"519 454 CURVE",
"487 457 OFFCURVE",
"456 455 OFFCURVE",
"428 449 CURVE",
"421 393 OFFCURVE",
"403 382 OFFCURVE",
"343 382 CURVE SMOOTH",
"285 382 LINE",
"272 307 LINE",
"333 307 LINE SMOOTH",
"392 307 OFFCURVE",
"399 269 OFFCURVE",
"399 230 CURVE",
"425 220 OFFCURVE",
"453 216 OFFCURVE",
"485 215 CURVE"
);
},
{
closed = 1;
nodes = (
"585 485 OFFCURVE",
"618 489 OFFCURVE",
"649 497 CURVE",
"644 557 OFFCURVE",
"649 624 OFFCURVE",
"658 679 CURVE",
"601 677 OFFCURVE",
"526 676 OFFCURVE",
"376 676 CURVE",
"332 601 LINE",
"430 601 LINE SMOOTH",
"529 601 OFFCURVE",
"546 555 OFFCURVE",
"551 485 CURVE"
);
}
);
width = 638;
},
{
anchors = (
{
name = bottom;
position = "{271, 0}";
},
{
name = ogonek;
position = "{403, 0}";
},
{
name = top;
position = "{366, 676}";
},
{
name = topleft;
position = "{104, 676}";
}
);
background = {
anchors = (
{
name = bottom;
position = "{271, 0}";
},
{
name = ogonek;
position = "{403, 0}";
},
{
name = top;
position = "{366, 676}";
},
{
name = topleft;
position = "{104, 676}";
}
);
paths = (
{
closed = 1;
nodes = (
"107 0 OFFCURVE",
"183 0 OFFCURVE",
"280 0 CURVE",
"286 45 LINE",
"211 45 OFFCURVE",
"199 59 OFFCURVE",
"213 143 CURVE SMOOTH",
"304 676 LINE",
"268 676 OFFCURVE",
"206 676 OFFCURVE",
"128 679 CURVE",
"126 663 OFFCURVE",
"127 649 OFFCURVE",
"129 636 CURVE",
"186 629 OFFCURVE",
"201 613 OFFCURVE",
"188 540 CURVE SMOOTH",
"119 143 LINE SMOOTH",
"106 65 OFFCURVE",
"96 48 OFFCURVE",
"36 40 CURVE",
"31 26 OFFCURVE",
"29 12 OFFCURVE",
"29 -3 CURVE"
);
},
{
closed = 1;
nodes = (
"500 55 OFFCURVE",
"520 108 OFFCURVE",
"542 150 CURVE SMOOTH",
"530 163 OFFCURVE",
"515 169 OFFCURVE",
"497 172 CURVE",
"456 91 OFFCURVE",
"428 45 OFFCURVE",
"305 45 CURVE SMOOTH",
"286 45 LINE",
"280 0 LINE",
"369 0 OFFCURVE",
"429 0 OFFCURVE",
"488 -3 CURVE"
);
},
{
closed = 1;
nodes = (
"450 254 OFFCURVE",
"453 288 OFFCURVE",
"460 336 CURVE SMOOTH",
"467 388 OFFCURVE",
"473 414 OFFCURVE",
"481 447 CURVE",
"463 450 OFFCURVE",
"450 449 OFFCURVE",
"433 446 CURVE",
"422 380 OFFCURVE",
"389 364 OFFCURVE",
"307 364 CURVE SMOOTH",
"242 364 LINE",
"234 319 LINE",
"303 319 LINE SMOOTH",
"385 319 OFFCURVE",
"407 301 OFFCURVE",
"402 234 CURVE",
"414 226 OFFCURVE",
"429 223 OFFCURVE",
"448 221 CURVE"
);
},
{
closed = 1;
nodes = (
"546 508 OFFCURVE",
"564 511 OFFCURVE",
"575 516 CURVE",
"572 563 OFFCURVE",
"576 629 OFFCURVE",
"582 679 CURVE",
"479 676 OFFCURVE",
"396 676 OFFCURVE",
"304 676 CURVE",
"276 631 LINE",
"383 631 LINE SMOOTH",
"512 631 OFFCURVE",
"522 595 OFFCURVE",
"525 509 CURVE"
);
}
);
};
layerId = "9785DD90-0D66-4E3E-881E-09053C5F0A8A";
paths = (
{
closed = 1;
nodes = (
"107 0 OFFCURVE",
"183 0 OFFCURVE",
"280 0 CURVE",
"286 45 LINE",
"211 45 OFFCURVE",
"199 59 OFFCURVE",
"213 143 CURVE SMOOTH",
"304 676 LINE",
"268 676 OFFCURVE",
"206 676 OFFCURVE",
"128 679 CURVE",
"126 663 OFFCURVE",
"127 649 OFFCURVE",
"129 636 CURVE",
"186 629 OFFCURVE",
"201 613 OFFCURVE",
"188 540 CURVE SMOOTH",
"119 143 LINE SMOOTH",
"106 65 OFFCURVE",
"96 48 OFFCURVE",
"36 40 CURVE",
"31 26 OFFCURVE",
"29 12 OFFCURVE",
"29 -3 CURVE"
);
},
{
closed = 1;
nodes = (
"500 55 OFFCURVE",
"520 108 OFFCURVE",
"542 150 CURVE SMOOTH",
"530 163 OFFCURVE",
"515 169 OFFCURVE",
"497 172 CURVE",
"456 91 OFFCURVE",
"428 45 OFFCURVE",
"305 45 CURVE SMOOTH",
"286 45 LINE",
"280 0 LINE",
"369 0 OFFCURVE",
"429 0 OFFCURVE",
"488 -3 CURVE"
);
},
{
closed = 1;
nodes = (
"450 254 OFFCURVE",
"453 288 OFFCURVE",
"460 336 CURVE SMOOTH",
"467 388 OFFCURVE",
"473 414 OFFCURVE",
"481 447 CURVE",
"463 450 OFFCURVE",
"450 449 OFFCURVE",
"433 446 CURVE",
"422 380 OFFCURVE",
"389 364 OFFCURVE",
"307 364 CURVE SMOOTH",
"242 364 LINE",
"234 319 LINE",
"303 319 LINE SMOOTH",
"385 319 OFFCURVE",
"407 301 OFFCURVE",
"402 234 CURVE",
"414 226 OFFCURVE",
"429 223 OFFCURVE",
"448 221 CURVE"
);
},
{
closed = 1;
nodes = (
"546 508 OFFCURVE",
"564 511 OFFCURVE",
"575 516 CURVE",
"572 563 OFFCURVE",
"576 629 OFFCURVE",
"582 679 CURVE",
"479 676 OFFCURVE",
"396 676 OFFCURVE",
"304 676 CURVE",
"276 631 LINE",
"383 631 LINE SMOOTH",
"512 631 OFFCURVE",
"522 595 OFFCURVE",
"525 509 CURVE"
);
}
);
width = 583;
}
);
leftKerningGroup = H;
leftMetricsKey = H;
rightKerningGroup = E;
unicode = 0045;
},
{
glyphname = Ereversed;
layers = (
{
anchors = (
{
name = bottom;
position = "{241, 0}";
},
{
name = top;
position = "{373, 676}";
}
);
background = {
anchors = (
{
name = bottom;
position = "{241, 0}";
},
{
name = top;
position = "{373, 676}";
}
);
paths = (
{
closed = 1;
nodes = (
"489 12 OFFCURVE",
"490 27 OFFCURVE",
"489 40 CURVE",
"436 43 OFFCURVE",
"423 57 OFFCURVE",
"439 135 CURVE SMOOTH",
"519 549 LINE SMOOTH",
"531 613 OFFCURVE",
"552 633 OFFCURVE",
"605 636 CURVE",
"610 644 OFFCURVE",
"615 660 OFFCURVE",
"618 679 CURVE",
"579 677 OFFCURVE",
"486 676 OFFCURVE",
"450 676 CURVE",
"346 141 LINE SMOOTH",
"332 67 OFFCURVE",
"309 45 OFFCURVE",
"234 45 CURVE",
"227 0 LINE",
"301 0 OFFCURVE",
"436 -1 OFFCURVE",
"486 -3 CURVE"
);
},
{
closed = 1;
nodes = (
"52 -1 OFFCURVE",
"133 0 OFFCURVE",
"227 0 CURVE",
"236 45 LINE",
"228 45 LINE SMOOTH",
"85 45 OFFCURVE",
"71 87 OFFCURVE",
"58 169 CURVE",
"37 166 OFFCURVE",
"25 161 OFFCURVE",
"11 152 CURVE",
"19 103 OFFCURVE",
"17 47 OFFCURVE",
"13 -2 CURVE"
);
},
{
closed = 1;
nodes = (
"159 225 OFFCURVE",
"172 226 OFFCURVE",
"187 228 CURVE",
"206 297 OFFCURVE",
"236 319 OFFCURVE",
"318 319 CURVE SMOOTH",
"389 319 LINE",
"398 362 LINE",
"325 362 LINE SMOOTH",
"243 362 OFFCURVE",
"219 376 OFFCURVE",
"230 441 CURVE",
"214 447 OFFCURVE",
"201 450 OFFCURVE",
"184 452 CURVE",
"179 418 OFFCURVE",
"172 378 OFFCURVE",
"165 344 CURVE SMOOTH",
"158 308 OFFCURVE",
"149 261 OFFCURVE",
"141 227 CURVE"
);
},
{
closed = 1;
nodes = (
"177 568 OFFCURVE",
"222 636 OFFCURVE",
"351 636 CURVE SMOOTH",
"463 636 LINE",
"450 676 LINE",
"293 676 OFFCURVE",
"202 678 OFFCURVE",
"169 679 CURVE",
"158 637 OFFCURVE",
"137 567 OFFCURVE",
"120 526 CURVE",
"129 514 OFFCURVE",
"144 509 OFFCURVE",
"162 506 CURVE"
);
}
);
};
layerId = "9785DD90-0D66-4E3E-881E-09053C5F0A8A";
paths = (
{
closed = 1;
nodes = (
"489 12 OFFCURVE",
"490 27 OFFCURVE",
"489 40 CURVE",
"436 43 OFFCURVE",
"423 57 OFFCURVE",
"439 135 CURVE SMOOTH",
"519 549 LINE SMOOTH",
"531 613 OFFCURVE",
"552 633 OFFCURVE",
"605 636 CURVE",
"610 644 OFFCURVE",
"615 660 OFFCURVE",
"618 679 CURVE",
"579 677 OFFCURVE",
"486 676 OFFCURVE",
"450 676 CURVE",
"346 141 LINE SMOOTH",
"332 67 OFFCURVE",
"309 45 OFFCURVE",
"234 45 CURVE",
"227 0 LINE",
"301 0 OFFCURVE",
"436 -1 OFFCURVE",
"486 -3 CURVE"
);
},
{
closed = 1;
nodes = (
"52 -1 OFFCURVE",
"133 0 OFFCURVE",
"227 0 CURVE",
"236 45 LINE",
"228 45 LINE SMOOTH",
"85 45 OFFCURVE",
"71 87 OFFCURVE",
"58 169 CURVE",
"37 166 OFFCURVE",
"25 161 OFFCURVE",
"11 152 CURVE",
"19 103 OFFCURVE",
"17 47 OFFCURVE",
"13 -2 CURVE"
);
},
{
closed = 1;
nodes = (
"159 225 OFFCURVE",
"172 226 OFFCURVE",
"187 228 CURVE",
"206 297 OFFCURVE",
"236 319 OFFCURVE",
"318 319 CURVE SMOOTH",
"389 319 LINE",
"398 362 LINE",
"325 362 LINE SMOOTH",
"243 362 OFFCURVE",
"219 376 OFFCURVE",
"230 441 CURVE",
"214 447 OFFCURVE",
"201 450 OFFCURVE",
"184 452 CURVE",
"179 418 OFFCURVE",
"172 378 OFFCURVE",
"165 344 CURVE SMOOTH",
"158 308 OFFCURVE",
"149 261 OFFCURVE",
"141 227 CURVE"
);
},
{
closed = 1;
nodes = (
"177 568 OFFCURVE",
"222 636 OFFCURVE",
"351 636 CURVE SMOOTH",
"463 636 LINE",
"450 676 LINE",
"293 676 OFFCURVE",
"202 678 OFFCURVE",
"169 679 CURVE",
"158 637 OFFCURVE",
"137 567 OFFCURVE",
"120 526 CURVE",
"129 514 OFFCURVE",
"144 509 OFFCURVE",
"162 506 CURVE"
);
}
);
width = 572;
},
{
anchors = (
{
name = bottom;
position = "{272, 0}";
},
{
name = top;
position = "{404, 676}";
}
);
background = {
anchors = (
{
name = bottom;
position = "{210, 0}";
},
{
name = top;
position = "{474, 676}";
}
);
paths = (
{
closed = 1;
nodes = (
"571 19 OFFCURVE",
"573 49 OFFCURVE",
"569 66 CURVE",
"517 77 OFFCURVE",
"511 88 OFFCURVE",
"528 180 CURVE SMOOTH",
"588 484 LINE SMOOTH",
"605 574 OFFCURVE",
"623 592 OFFCURVE",
"679 592 CURVE",
"685 614 OFFCURVE",
"694 650 OFFCURVE",
"695 671 CURVE",
"633 676 OFFCURVE",
"496 676 OFFCURVE",
"422 676 CURVE",
"332 199 LINE SMOOTH",
"314 107 OFFCURVE",
"287 75 OFFCURVE",
"227 75 CURVE",
"262 0 LINE",
"331 0 OFFCURVE",
"524 -2 OFFCURVE",
"569 -10 CURVE"
);
},
{
closed = 1;
nodes = (
"59 0 OFFCURVE",
"177 0 OFFCURVE",
"261 0 CURVE",
"229 75 LINE",
"210 75 LINE SMOOTH",
"142 75 OFFCURVE",
"114 108 OFFCURVE",
"104 203 CURVE",
"62 206 OFFCURVE",
"20 198 OFFCURVE",
"2 189 CURVE",
"9 138 OFFCURVE",
"6 70 OFFCURVE",
"2 6 CURVE"
);
},
{
closed = 1;
nodes = (
"207 222 OFFCURVE",
"232 221 OFFCURVE",
"255 221 CURVE",
"269 279 OFFCURVE",
"295 299 OFFCURVE",
"354 299 CURVE SMOOTH",
"408 299 LINE",
"422 374 LINE",
"362 374 LINE SMOOTH",
"297 374 OFFCURVE",
"288 386 OFFCURVE",
"294 433 CURVE",
"274 450 OFFCURVE",
"239 457 OFFCURVE",
"212 464 CURVE",
"209 432 OFFCURVE",
"205 397 OFFCURVE",
"196 355 CURVE SMOOTH",
"184 291 OFFCURVE",
"175 257 OFFCURVE",
"171 230 CURVE"
);
},
{
closed = 1;
nodes = (
"226 548 OFFCURVE",
"265 601 OFFCURVE",
"364 601 CURVE SMOOTH",
"453 601 LINE",
"431 676 LINE",
"282 676 OFFCURVE",
"212 677 OFFCURVE",
"157 686 CURVE",
"149 635 OFFCURVE",
"125 555 OFFCURVE",
"107 512 CURVE",
"130 495 OFFCURVE",
"157 483 OFFCURVE",
"202 476 CURVE"
);
}
);
};
layerId = "B20BA836-AF41-4C81-B953-D076FC766EB4";
paths = (
{
closed = 1;
nodes = (
"573 22 OFFCURVE",
"575 52 OFFCURVE",
"574 75 CURVE",
"521 79 OFFCURVE",
"512 95 OFFCURVE",
"530 187 CURVE SMOOTH",
"589 491 LINE SMOOTH",
"606 581 OFFCURVE",
"620 593 OFFCURVE",
"677 601 CURVE",
"690 620 OFFCURVE",
"699 656 OFFCURVE",
"699 679 CURVE",
"636 677 OFFCURVE",
"499 676 OFFCURVE",
"425 676 CURVE",
"331 192 LINE SMOOTH",
"313 100 OFFCURVE",
"290 75 OFFCURVE",
"230 75 CURVE",
"258 0 LINE",
"328 0 OFFCURVE",
"521 -2 OFFCURVE",
"567 -3 CURVE"
);
},
{
closed = 1;
nodes = (
"56 -1 OFFCURVE",
"174 0 OFFCURVE",
"258 0 CURVE",
"230 75 LINE",
"213 75 LINE SMOOTH",
"142 75 OFFCURVE",
"114 108 OFFCURVE",
"104 203 CURVE",
"62 206 OFFCURVE",
"20 198 OFFCURVE",
"2 189 CURVE",
"9 138 OFFCURVE",
"6 70 OFFCURVE",
"-3 -2 CURVE"
);
},
{
closed = 1;
nodes = (
"203 221 OFFCURVE",
"230 223 OFFCURVE",
"254 231 CURVE",
"270 286 OFFCURVE",
"292 299 OFFCURVE",
"351 299 CURVE SMOOTH",
"408 299 LINE",
"422 374 LINE",
"365 374 LINE SMOOTH",
"300 374 OFFCURVE",
"289 393 OFFCURVE",
"298 445 CURVE",
"277 454 OFFCURVE",
"242 457 OFFCURVE",
"212 457 CURVE",
"208 425 OFFCURVE",
"203 390 OFFCURVE",
"194 340 CURVE SMOOTH",
"183 284 OFFCURVE",
"174 250 OFFCURVE",
"166 221 CURVE"
);
},
{
closed = 1;
nodes = (
"226 548 OFFCURVE",
"265 601 OFFCURVE",
"361 601 CURVE SMOOTH",
"454 601 LINE",
"435 676 LINE",
"285 676 OFFCURVE",
"215 677 OFFCURVE",
"158 679 CURVE",
"149 635 OFFCURVE",
"125 555 OFFCURVE",
"107 512 CURVE",
"130 495 OFFCURVE",
"157 483 OFFCURVE",
"202 476 CURVE"
);
}
);
width = 635;
}
);
leftKerningGroup = H;
leftMetricsKey = "=|E";
rightKerningGroup = H;
rightMetricsKey = "=H";
unicode = 018E;
},
{
glyphname = Ezh;
layers = (
{
anchors = (
{
name = bottom;
position = "{231, 0}";
},
{
name = top;
position = "{368, 676}";
}
);
background = {
paths = (
{
closed = 1;
nodes = (
"400 -9 OFFCURVE",
"512 64 OFFCURVE",
"536 188 CURVE SMOOTH",
"559 305 OFFCURVE",
"490 377 OFFCURVE",
"340 380 CURVE",
"344 369 LINE",
"444 465 OFFCURVE",
"539 570 OFFCURVE",
"599 638 CURVE",
"602 654 OFFCURVE",
"598 668 OFFCURVE",
"592 675 CURVE",
"522 676 OFFCURVE",
"467 676 OFFCURVE",
"399 676 CURVE SMOOTH",
"335 676 OFFCURVE",
"198 677 OFFCURVE",
"158 682 CURVE",
"150 628 OFFCURVE",
"130 564 OFFCURVE",
"111 524 CURVE",
"122 512 OFFCURVE",
"149 508 OFFCURVE",
"166 504 CURVE",
"206 613 OFFCURVE",
"246 636 OFFCURVE",
"334 636 CURVE SMOOTH",
"491 636 LINE",
"495 667 LINE",
"422 577 OFFCURVE",
"322 467 OFFCURVE",
"235 388 CURVE",
"233 371 OFFCURVE",
"236 356 OFFCURVE",
"241 344 CURVE",
"378 341 OFFCURVE",
"448 289 OFFCURVE",
"428 189 CURVE SMOOTH",
"410 98 OFFCURVE",
"338 39 OFFCURVE",
"229 39 CURVE SMOOTH",
"123 39 OFFCURVE",
"92 89 OFFCURVE",
"100 192 CURVE",
"85 196 OFFCURVE",
"59 196 OFFCURVE",
"43 195 CURVE",
"42 151 OFFCURVE",
"33 90 OFFCURVE",
"24 46 CURVE",
"78 12 OFFCURVE",
"140 -9 OFFCURVE",
"227 -9 CURVE SMOOTH"
);
}
);
};
layerId = "9785DD90-0D66-4E3E-881E-09053C5F0A8A";
paths = (
{
closed = 1;
nodes = (
"400 -9 OFFCURVE",
"512 64 OFFCURVE",
"536 188 CURVE SMOOTH",
"559 305 OFFCURVE",
"490 377 OFFCURVE",
"340 380 CURVE",
"344 369 LINE",
"444 466 OFFCURVE",
"539 572 OFFCURVE",
"599 641 CURVE",
"601 654 OFFCURVE",
"597 669 OFFCURVE",
"590 678 CURVE",
"521 676 OFFCURVE",
"466 676 OFFCURVE",
"399 676 CURVE SMOOTH",
"335 676 OFFCURVE",
"198 676 OFFCURVE",
"158 678 CURVE",
"150 625 OFFCURVE",
"130 563 OFFCURVE",
"111 524 CURVE",
"122 512 OFFCURVE",
"148 503 OFFCURVE",
"166 504 CURVE",
"206 613 OFFCURVE",
"246 636 OFFCURVE",
"334 636 CURVE SMOOTH",
"491 636 LINE",
"495 667 LINE",
"422 577 OFFCURVE",
"322 467 OFFCURVE",
"235 388 CURVE",
"233 371 OFFCURVE",
"236 356 OFFCURVE",
"241 344 CURVE",
"378 341 OFFCURVE",
"448 289 OFFCURVE",
"428 189 CURVE SMOOTH",
"410 98 OFFCURVE",
"338 39 OFFCURVE",
"229 39 CURVE SMOOTH",
"123 39 OFFCURVE",
"92 89 OFFCURVE",
"100 192 CURVE",
"84 195 OFFCURVE",
"61 195 OFFCURVE",
"44 191 CURVE",
"42 148 OFFCURVE",
"34 88 OFFCURVE",
"24 46 CURVE",
"78 12 OFFCURVE",
"140 -9 OFFCURVE",
"227 -9 CURVE SMOOTH"
);
}
);
width = 575;
},
{
anchors = (
{
name = bottom;
position = "{248, 0}";
},
{
name = top;
position = "{387, 676}";
}
);
background = {
anchors = (
{
name = bottom;
position = "{248, 0}";
},
{
name = top;
position = "{387, 676}";
}
);
components = (
{
name = S;
transform = "{1, 0, 0, 1, 10, 0}";
}
);
paths = (
{
closed = 1;
nodes = (
"428 -9 OFFCURVE",
"544 61 OFFCURVE",
"567 178 CURVE SMOOTH",
"591 302 OFFCURVE",
"510 368 OFFCURVE",
"370 370 CURVE",
"401 336 LINE",
"485 420 OFFCURVE",
"565 516 OFFCURVE",
"627 601 CURVE",
"631 637 OFFCURVE",
"627 659 OFFCURVE",
"616 678 CURVE",
"554 676 OFFCURVE",
"455 676 OFFCURVE",
"383 676 CURVE SMOOTH",
"320 676 OFFCURVE",
"202 676 OFFCURVE",
"154 678 CURVE",
"145 621 OFFCURVE",
"121 539 OFFCURVE",
"94 481 CURVE",
"116 463 OFFCURVE",
"154 456 OFFCURVE",
"195 449 CURVE",
"242 567 OFFCURVE",
"277 601 OFFCURVE",
"339 601 CURVE SMOOTH",
"465 601 LINE",
"425 633 LINE",
"358 541 OFFCURVE",
"280 449 OFFCURVE",
"213 396 CURVE",
"209 368 OFFCURVE",
"213 323 OFFCURVE",
"224 305 CURVE",
"329 298 OFFCURVE",
"384 270 OFFCURVE",
"370 198 CURVE SMOOTH",
"355 121 OFFCURVE",
"296 75 OFFCURVE",
"226 75 CURVE SMOOTH",
"165 75 OFFCURVE",
"133 103 OFFCURVE",
"136 213 CURVE",
"98 221 OFFCURVE",
"67 221 OFFCURVE",
"38 217 CURVE",
"39 157 OFFCURVE",
"25 78 OFFCURVE",
"17 44 CURVE",
"56 11 OFFCURVE",
"130 -9 OFFCURVE",
"225 -9 CURVE SMOOTH"
);
}
);
};
layerId = "B20BA836-AF41-4C81-B953-D076FC766EB4";
paths = (
{
closed = 1;
nodes = (
"428 -9 OFFCURVE",
"544 61 OFFCURVE",
"567 178 CURVE SMOOTH",
"591 302 OFFCURVE",
"510 368 OFFCURVE",
"370 370 CURVE",
"401 336 LINE",
"485 420 OFFCURVE",
"565 516 OFFCURVE",
"627 601 CURVE",
"631 637 OFFCURVE",
"627 659 OFFCURVE",
"616 678 CURVE",
"554 676 OFFCURVE",
"455 676 OFFCURVE",
"383 676 CURVE SMOOTH",
"320 676 OFFCURVE",
"202 676 OFFCURVE",
"154 678 CURVE",
"145 621 OFFCURVE",
"121 539 OFFCURVE",
"94 481 CURVE",
"116 463 OFFCURVE",
"154 456 OFFCURVE",
"195 449 CURVE",
"242 567 OFFCURVE",
"277 601 OFFCURVE",
"339 601 CURVE SMOOTH",
"465 601 LINE",
"425 633 LINE",
"358 541 OFFCURVE",
"280 449 OFFCURVE",
"213 396 CURVE",
"209 368 OFFCURVE",
"213 323 OFFCURVE",
"224 305 CURVE",
"329 298 OFFCURVE",
"384 270 OFFCURVE",
"369 190 CURVE SMOOTH",
"356 121 OFFCURVE",
"301 75 OFFCURVE",
"234 75 CURVE SMOOTH",
"182 75 OFFCURVE",
"156 104 OFFCURVE",
"159 220 CURVE",
"125 226 OFFCURVE",
"77 225 OFFCURVE",
"41 217 CURVE",
"41 167 OFFCURVE",
"31 96 OFFCURVE",
"17 44 CURVE",
"56 11 OFFCURVE",
"130 -9 OFFCURVE",
"225 -9 CURVE SMOOTH"
);
}
);
width = 597;
},
{
anchors = (
{
name = bottom;
position = "{248, 0}";
},
{
name = top;
position = "{387, 676}";
}
);
associatedMasterId = "B20BA836-AF41-4C81-B953-D076FC766EB4";
background = {
paths = (
{
closed = 0;
nodes = (
"545 608 LINE",
"543 637 OFFCURVE",
"536 658 OFFCURVE",
"524 678 CURVE",
"463 676 OFFCURVE",
"368 676 OFFCURVE",
"302 676 CURVE SMOOTH",
"236 676 OFFCURVE",
"118 676 OFFCURVE",
"68 678 CURVE",
"68 618 OFFCURVE",
"61 534 OFFCURVE",
"43 470 CURVE",
"68 459 OFFCURVE",
"107 456 OFFCURVE",
"149 456 CURVE",
"176 574 OFFCURVE",
"202 601 OFFCURVE",
"264 601 CURVE SMOOTH",
"393 601 LINE",
"346 626 LINE",
"306 545 OFFCURVE",
"257 467 OFFCURVE",
"210 413 CURVE",
"210 391 OFFCURVE",
"221 347 OFFCURVE",
"233 328 CURVE",
"342 318 OFFCURVE",
"404 277 OFFCURVE",
"404 171 CURVE SMOOTH",
"404 91 OFFCURVE",
"368 75 OFFCURVE",
"339 75 CURVE SMOOTH",
"311 75 OFFCURVE",
"292 90 OFFCURVE",
"290 192 CURVE",
"246 192 OFFCURVE",
"212 188 OFFCURVE",
"180 177 CURVE",
"180 142 OFFCURVE",
"177 77 OFFCURVE",
"167 32 CURVE",
"198 9 OFFCURVE",
"242 -9 OFFCURVE",
"326 -9 CURVE SMOOTH",
"494 -9 OFFCURVE",
"585 63 OFFCURVE",
"585 196 CURVE SMOOTH",
"585 343 OFFCURVE",
"473 400 OFFCURVE",
"323 410 CURVE",
"405 372 LINE",
"460 440 OFFCURVE",
"510 520 OFFCURVE",
"546 595 CURVE"
);
}
);
};
layerId = "B9B3D885-5F07-4E17-BFF2-B24049587216";
name = "Dec 19 17, 09:06";
paths = (
{
closed = 1;
nodes = (
"428 -9 OFFCURVE",
"544 61 OFFCURVE",
"567 178 CURVE SMOOTH",
"591 302 OFFCURVE",
"510 368 OFFCURVE",
"370 370 CURVE",
"401 336 LINE",
"485 417 OFFCURVE",
"565 511 OFFCURVE",
"627 594 CURVE",
"631 630 OFFCURVE",
"627 652 OFFCURVE",
"616 671 CURVE",
"554 676 OFFCURVE",
"455 676 OFFCURVE",
"383 676 CURVE SMOOTH",
"320 676 OFFCURVE",
"202 676 OFFCURVE",
"154 685 CURVE",
"145 625 OFFCURVE",
"121 541 OFFCURVE",
"94 481 CURVE",
"116 463 OFFCURVE",
"154 456 OFFCURVE",
"195 449 CURVE",
"242 567 OFFCURVE",
"277 601 OFFCURVE",
"339 601 CURVE SMOOTH",
"465 601 LINE",
"425 633 LINE",
"358 541 OFFCURVE",
"280 449 OFFCURVE",
"213 396 CURVE",
"209 368 OFFCURVE",
"213 323 OFFCURVE",
"224 305 CURVE",
"329 298 OFFCURVE",
"384 270 OFFCURVE",
"370 198 CURVE SMOOTH",
"355 121 OFFCURVE",
"296 75 OFFCURVE",
"226 75 CURVE SMOOTH",
"165 75 OFFCURVE",
"133 103 OFFCURVE",
"136 213 CURVE",
"98 221 OFFCURVE",
"67 221 OFFCURVE",
"38 217 CURVE",
"39 157 OFFCURVE",
"25 78 OFFCURVE",
"17 44 CURVE",
"56 11 OFFCURVE",
"130 -9 OFFCURVE",
"225 -9 CURVE SMOOTH"
);
}
);
width = 607;
},
{
anchors = (
{
name = bottom;
position = "{261, 0}";
},
{
name = top;
position = "{398, 676}";
}
);
associatedMasterId = "9785DD90-0D66-4E3E-881E-09053C5F0A8A";
background = {
paths = (
{
closed = 1;
nodes = (
"474 -9 OFFCURVE",
"574 68 OFFCURVE",
"574 198 CURVE SMOOTH",
"574 310 OFFCURVE",
"488 378 OFFCURVE",
"342 380 CURVE",
"345 372 LINE",
"427 468 OFFCURVE",
"502 573 OFFCURVE",
"549 645 CURVE",
"549 658 OFFCURVE",
"544 671 OFFCURVE",
"538 678 CURVE",
"467 676 OFFCURVE",
"412 676 OFFCURVE",
"346 676 CURVE SMOOTH",
"280 676 OFFCURVE",
"143 677 OFFCURVE",
"102 678 CURVE",
"102 624 OFFCURVE",
"95 560 OFFCURVE",
"83 518 CURVE",
"96 510 OFFCURVE",
"123 508 OFFCURVE",
"140 508 CURVE",
"161 617 OFFCURVE",
"195 636 OFFCURVE",
"283 636 CURVE SMOOTH",
"442 636 LINE",
"441 664 LINE",
"385 574 OFFCURVE",
"307 464 OFFCURVE",
"235 382 CURVE",
"235 367 OFFCURVE",
"240 353 OFFCURVE",
"246 341 CURVE",
"384 341 OFFCURVE",
"466 283 OFFCURVE",
"466 186 CURVE SMOOTH",
"466 94 OFFCURVE",
"406 39 OFFCURVE",
"305 39 CURVE SMOOTH",
"181 39 OFFCURVE",
"160 95 OFFCURVE",
"150 197 CURVE",
"134 197 OFFCURVE",
"108 195 OFFCURVE",
"92 191 CURVE",
"92 154 OFFCURVE",
"90 96 OFFCURVE",
"81 45 CURVE",
"145 12 OFFCURVE",
"207 -9 OFFCURVE",
"305 -9 CURVE SMOOTH"
);
}
);
};
layerId = "6D07FC78-A000-4F53-8DBA-A221499B76AF";
name = "Dec 19 17, 09:06";
paths = (
{
closed = 1;
nodes = (
"430 -9 OFFCURVE",
"542 64 OFFCURVE",
"566 188 CURVE SMOOTH",
"589 305 OFFCURVE",
"520 377 OFFCURVE",
"370 380 CURVE",
"374 369 LINE",
"474 465 OFFCURVE",
"569 570 OFFCURVE",
"629 638 CURVE",
"632 654 OFFCURVE",
"628 668 OFFCURVE",
"622 675 CURVE",
"552 676 OFFCURVE",
"497 676 OFFCURVE",
"429 676 CURVE SMOOTH",
"365 676 OFFCURVE",
"228 677 OFFCURVE",
"188 682 CURVE",
"180 628 OFFCURVE",
"160 564 OFFCURVE",
"141 524 CURVE",
"152 512 OFFCURVE",
"179 508 OFFCURVE",
"196 504 CURVE",
"236 613 OFFCURVE",
"276 636 OFFCURVE",
"364 636 CURVE SMOOTH",
"521 636 LINE",
"525 667 LINE",
"452 577 OFFCURVE",
"352 467 OFFCURVE",
"265 388 CURVE",
"263 371 OFFCURVE",
"266 356 OFFCURVE",
"271 344 CURVE",
"408 341 OFFCURVE",
"478 289 OFFCURVE",
"458 189 CURVE SMOOTH",
"440 98 OFFCURVE",
"368 39 OFFCURVE",
"259 39 CURVE SMOOTH",
"153 39 OFFCURVE",
"122 89 OFFCURVE",
"130 192 CURVE",
"115 196 OFFCURVE",
"89 196 OFFCURVE",
"73 195 CURVE",
"72 151 OFFCURVE",
"63 90 OFFCURVE",
"54 46 CURVE",
"108 12 OFFCURVE",
"170 -9 OFFCURVE",
"257 -9 CURVE SMOOTH"
);
}
);
width = 629;
}
);
leftKerningGroup = Ezh;
rightKerningGroup = B;
rightMetricsKey = "=B";
unicode = 01B7;
},
{
glyphname = F;
layers = (
{
background = {
paths = (
{
closed = 1;
nodes = (
"106 197 LINE SMOOTH",
"89 95 OFFCURVE",
"77 79 OFFCURVE",
"25 75 CURVE",
"15 52 OFFCURVE",
"9 26 OFFCURVE",
"6 -3 CURVE",
"62 0 OFFCURVE",
"131 0 OFFCURVE",
"197 0 CURVE SMOOTH",
"266 0 OFFCURVE",
"333 0 OFFCURVE",
"388 -3 CURVE",
"391 23 OFFCURVE",
"390 53 OFFCURVE",
"386 75 CURVE",
"295 89 OFFCURVE",
"289 101 OFFCURVE",
"304 187 CURVE SMOOTH",
"317 264 LINE",
"335 264 LINE SMOOTH",
"394 264 OFFCURVE",
"402 232 OFFCURVE",
"401 183 CURVE",
"427 173 OFFCURVE",
"455 169 OFFCURVE",
"487 168 CURVE",
"488 202 OFFCURVE",
"492 246 OFFCURVE",
"497 282 CURVE SMOOTH",
"504 332 OFFCURVE",
"512 374 OFFCURVE",
"521 411 CURVE",
"489 414 OFFCURVE",
"458 412 OFFCURVE",
"430 406 CURVE",
"423 350 OFFCURVE",
"405 339 OFFCURVE",
"345 339 CURVE SMOOTH",
"329 339 LINE",
"373 601 LINE",
"429 601 LINE SMOOTH",
"528 601 OFFCURVE",
"545 555 OFFCURVE",
"550 485 CURVE",
"584 485 OFFCURVE",
"617 489 OFFCURVE",
"648 497 CURVE",
"643 557 OFFCURVE",
"648 624 OFFCURVE",
"657 679 CURVE",
"600 677 OFFCURVE",
"526 676 OFFCURVE",
"378 676 CURVE SMOOTH",
"308 676 OFFCURVE",
"196 676 OFFCURVE",
"108 679 CURVE",
"105 651 OFFCURVE",
"105 624 OFFCURVE",
"109 601 CURVE",
"161 593 OFFCURVE",
"173 581 OFFCURVE",
"159 501 CURVE SMOOTH"
);
}
);
};
layerId = "B20BA836-AF41-4C81-B953-D076FC766EB4";
paths = (
{
closed = 1;
nodes = (
"385 676 LINE",
"316 676 OFFCURVE",
"199 676 OFFCURVE",
"108 679 CURVE",
"105 651 OFFCURVE",
"105 624 OFFCURVE",
"109 601 CURVE",
"161 593 OFFCURVE",
"173 581 OFFCURVE",
"159 501 CURVE SMOOTH",
"106 197 LINE SMOOTH",
"89 95 OFFCURVE",
"77 79 OFFCURVE",
"25 75 CURVE",
"15 52 OFFCURVE",
"9 26 OFFCURVE",
"6 -3 CURVE",
"62 0 OFFCURVE",
"131 0 OFFCURVE",
"197 0 CURVE SMOOTH",
"266 0 OFFCURVE",
"333 0 OFFCURVE",
"388 -3 CURVE",
"391 23 OFFCURVE",
"390 53 OFFCURVE",
"386 75 CURVE",
"295 89 OFFCURVE",
"289 101 OFFCURVE",
"304 187 CURVE SMOOTH"
);
},
{
closed = 1;
nodes = (
"600 677 OFFCURVE",
"525 676 OFFCURVE",
"375 676 CURVE",
"331 601 LINE",
"429 601 LINE SMOOTH",
"528 601 OFFCURVE",
"545 555 OFFCURVE",
"550 485 CURVE",
"584 485 OFFCURVE",
"617 489 OFFCURVE",
"648 497 CURVE",
"643 557 OFFCURVE",
"648 624 OFFCURVE",
"657 679 CURVE"
);
},
{
closed = 1;
nodes = (
"433 347 OFFCURVE",
"415 336 OFFCURVE",
"355 336 CURVE SMOOTH",
"297 336 LINE",
"284 261 LINE",
"345 261 LINE SMOOTH",
"404 261 OFFCURVE",
"412 229 OFFCURVE",
"411 180 CURVE",
"437 170 OFFCURVE",
"465 166 OFFCURVE",
"497 165 CURVE",
"498 199 OFFCURVE",
"502 243 OFFCURVE",
"507 279 CURVE SMOOTH",
"514 329 OFFCURVE",
"522 371 OFFCURVE",
"531 408 CURVE",
"499 411 OFFCURVE",
"468 409 OFFCURVE",
"440 403 CURVE"
);
}
);
width = 606;
},
{
background = {
paths = (
{
closed = 1;
nodes = (
"303 676 LINE",
"225 676 OFFCURVE",
"174 676 OFFCURVE",
"128 679 CURVE",
"126 664 OFFCURVE",
"127 649 OFFCURVE",
"130 636 CURVE",
"191 629 OFFCURVE",
"199 606 OFFCURVE",
"187 539 CURVE SMOOTH",
"117 132 LINE SMOOTH",
"105 65 OFFCURVE",
"96 50 OFFCURVE",
"36 40 CURVE",
"32 29 OFFCURVE",
"29 14 OFFCURVE",
"28 -3 CURVE",
"73 0 OFFCURVE",
"110 0 OFFCURVE",
"159 0 CURVE SMOOTH",
"204 0 OFFCURVE",
"236 0 OFFCURVE",
"286 -3 CURVE",
"287 15 OFFCURVE",
"287 27 OFFCURVE",
"283 40 CURVE",
"203 52 OFFCURVE",
"198 65 OFFCURVE",
"212 142 CURVE SMOOTH"
);
},
{
closed = 1;
nodes = (
"473 676 OFFCURVE",
"390 676 OFFCURVE",
"303 676 CURVE",
"275 631 LINE",
"377 631 LINE SMOOTH",
"506 631 OFFCURVE",
"516 595 OFFCURVE",
"519 509 CURVE",
"540 508 OFFCURVE",
"558 511 OFFCURVE",
"569 516 CURVE",
"566 563 OFFCURVE",
"570 629 OFFCURVE",
"576 679 CURVE"
);
},
{
closed = 1;
nodes = (
"419 360 OFFCURVE",
"386 342 OFFCURVE",
"304 342 CURVE SMOOTH",
"224 342 LINE",
"216 299 LINE",
"300 299 LINE SMOOTH",
"382 299 OFFCURVE",
"404 281 OFFCURVE",
"399 214 CURVE",
"411 206 OFFCURVE",
"426 203 OFFCURVE",
"445 201 CURVE",
"447 234 OFFCURVE",
"450 268 OFFCURVE",
"457 316 CURVE SMOOTH",
"464 368 OFFCURVE",
"470 394 OFFCURVE",
"478 427 CURVE",
"460 430 OFFCURVE",
"447 429 OFFCURVE",
"430 426 CURVE"
);
}
);
};
layerId = "9785DD90-0D66-4E3E-881E-09053C5F0A8A";
paths = (
{
closed = 1;
nodes = (
"303 676 LINE",
"225 676 OFFCURVE",
"174 676 OFFCURVE",
"128 679 CURVE",
"126 664 OFFCURVE",
"127 649 OFFCURVE",
"130 636 CURVE",
"191 629 OFFCURVE",
"199 606 OFFCURVE",
"187 539 CURVE SMOOTH",
"117 132 LINE SMOOTH",
"105 65 OFFCURVE",
"96 50 OFFCURVE",
"36 40 CURVE",
"32 29 OFFCURVE",
"29 14 OFFCURVE",
"28 -3 CURVE",
"73 0 OFFCURVE",
"110 0 OFFCURVE",
"159 0 CURVE SMOOTH",
"204 0 OFFCURVE",
"236 0 OFFCURVE",
"286 -3 CURVE",
"287 15 OFFCURVE",
"287 27 OFFCURVE",
"283 40 CURVE",
"203 52 OFFCURVE",
"198 65 OFFCURVE",
"212 142 CURVE SMOOTH"
);
},
{
closed = 1;
nodes = (
"473 676 OFFCURVE",
"390 676 OFFCURVE",
"303 676 CURVE",
"275 631 LINE",
"377 631 LINE SMOOTH",
"506 631 OFFCURVE",
"516 595 OFFCURVE",
"519 509 CURVE",
"540 508 OFFCURVE",
"558 511 OFFCURVE",
"569 516 CURVE",
"566 563 OFFCURVE",
"570 629 OFFCURVE",
"576 679 CURVE"
);
},
{
closed = 1;
nodes = (
"419 360 OFFCURVE",
"386 342 OFFCURVE",
"304 342 CURVE SMOOTH",
"224 342 LINE",
"216 299 LINE",
"300 299 LINE SMOOTH",
"382 299 OFFCURVE",
"404 281 OFFCURVE",
"399 214 CURVE",
"411 206 OFFCURVE",
"426 203 OFFCURVE",
"445 201 CURVE",
"447 234 OFFCURVE",
"450 268 OFFCURVE",
"457 316 CURVE SMOOTH",
"464 368 OFFCURVE",
"470 394 OFFCURVE",
"478 427 CURVE",
"460 430 OFFCURVE",
"447 429 OFFCURVE",
"430 426 CURVE"
);
}
);
width = 539;
}
);
leftKerningGroup = H;
leftMetricsKey = H;
rightKerningGroup = F;
unicode = 0046;
},
{
glyphname = G;
layers = (
{
anchors = (
{
name = bottom;
position = "{342, 0}";
},
{
name = center;
position = "{494, 174}";
},
{
name = top;
position = "{442, 676}";
}
);
layerId = "B20BA836-AF41-4C81-B953-D076FC766EB4";
paths = (
{
closed = 1;
nodes = (
"268 685 OFFCURVE",
"89 581 OFFCURVE",
"51 363 CURVE SMOOTH",
"13 145 OFFCURVE",
"124 -9 OFFCURVE",
"343 -9 CURVE SMOOTH",
"440 -9 OFFCURVE",
"536 18 OFFCURVE",
"602 54 CURVE",
"595 85 OFFCURVE",
"594 102 OFFCURVE",
"598 135 CURVE SMOOTH",
"618 248 OFFCURVE",
"625 251 OFFCURVE",
"662 255 CURVE",
"672 282 OFFCURVE",
"676 308 OFFCURVE",
"676 333 CURVE",
"617 330 OFFCURVE",
"571 330 OFFCURVE",
"519 330 CURVE SMOOTH",
"475 330 OFFCURVE",
"418 330 OFFCURVE",
"369 333 CURVE",
"365 306 OFFCURVE",
"366 277 OFFCURVE",
"370 255 CURVE",
"427 247 OFFCURVE",
"442 233 OFFCURVE",
"429 155 CURVE SMOOTH",
"421 106 OFFCURVE",
"414 89 OFFCURVE",
"398 80 CURVE SMOOTH",
"387 74 OFFCURVE",
"376 71 OFFCURVE",
"354 71 CURVE SMOOTH",
"261 71 OFFCURVE",
"223 184 OFFCURVE",
"251 347 CURVE SMOOTH",
"274 479 OFFCURVE",
"338 607 OFFCURVE",
"448 607 CURVE SMOOTH",
"521 607 OFFCURVE",
"550 571 OFFCURVE",
"542 469 CURVE",
"575 464 OFFCURVE",
"611 467 OFFCURVE",
"642 480 CURVE",
"648 531 OFFCURVE",
"661 593 OFFCURVE",
"674 634 CURVE",
"620 668 OFFCURVE",
"542 685 OFFCURVE",
"452 685 CURVE SMOOTH"
);
}
);
width = 660;
},
{
anchors = (
{
name = bottom;
position = "{359, 0}";
},
{
name = center;
position = "{533, 165}";
},
{
name = top;
position = "{467, 676}";
}
);
background = {
anchors = (
{
name = bottom;
position = "{359, 0}";
},
{
name = top;
position = "{467, 676}";
}
);
paths = (
{
closed = 1;
nodes = (
"283 685 OFFCURVE",
"94 581 OFFCURVE",
"61 328 CURVE SMOOTH",
"35 132 OFFCURVE",
"134 -9 OFFCURVE",
"331 -9 CURVE SMOOTH",
"444 -9 OFFCURVE",
"542 24 OFFCURVE",
"606 66 CURVE",
"598 86 OFFCURVE",
"600 108 OFFCURVE",
"610 161 CURVE SMOOTH",
"629 269 OFFCURVE",
"640 279 OFFCURVE",
"682 284 CURVE",
"687 296 OFFCURVE",
"690 310 OFFCURVE",
"691 327 CURVE",
"640 324 OFFCURVE",
"615 324 OFFCURVE",
"574 324 CURVE SMOOTH",
"533 324 OFFCURVE",
"495 324 OFFCURVE",
"451 327 CURVE",
"449 314 OFFCURVE",
"449 298 OFFCURVE",
"452 284 CURVE",
"526 279 OFFCURVE",
"533 268 OFFCURVE",
"512 151 CURVE SMOOTH",
"499 80 OFFCURVE",
"493 68 OFFCURVE",
"463 56 CURVE SMOOTH",
"429 43 OFFCURVE",
"399 40 OFFCURVE",
"359 40 CURVE SMOOTH",
"196 40 OFFCURVE",
"152 187 OFFCURVE",
"168 333 CURVE SMOOTH",
"188 517 OFFCURVE",
"294 644 OFFCURVE",
"471 644 CURVE SMOOTH",
"570 644 OFFCURVE",
"626 621 OFFCURVE",
"610 474 CURVE",
"630 469 OFFCURVE",
"647 469 OFFCURVE",
"664 476 CURVE",
"671 534 OFFCURVE",
"680 579 OFFCURVE",
"697 626 CURVE",
"634 666 OFFCURVE",
"566 685 OFFCURVE",
"463 685 CURVE SMOOTH"
);
}
);
};
layerId = "9785DD90-0D66-4E3E-881E-09053C5F0A8A";
paths = (
{
closed = 1;
nodes = (
"283 685 OFFCURVE",
"94 581 OFFCURVE",
"61 328 CURVE SMOOTH",
"35 132 OFFCURVE",
"134 -9 OFFCURVE",
"331 -9 CURVE SMOOTH",
"444 -9 OFFCURVE",
"542 24 OFFCURVE",
"606 66 CURVE",
"598 86 OFFCURVE",
"600 108 OFFCURVE",
"610 161 CURVE SMOOTH",
"629 269 OFFCURVE",
"640 279 OFFCURVE",
"682 284 CURVE",
"687 296 OFFCURVE",
"690 310 OFFCURVE",
"691 327 CURVE",
"640 324 OFFCURVE",
"615 324 OFFCURVE",
"574 324 CURVE SMOOTH",
"533 324 OFFCURVE",
"495 324 OFFCURVE",
"451 327 CURVE",
"449 314 OFFCURVE",
"449 298 OFFCURVE",
"452 284 CURVE",
"526 279 OFFCURVE",
"533 268 OFFCURVE",
"512 151 CURVE SMOOTH",
"499 80 OFFCURVE",
"493 68 OFFCURVE",
"463 56 CURVE SMOOTH",
"429 43 OFFCURVE",
"399 40 OFFCURVE",
"359 40 CURVE SMOOTH",
"196 40 OFFCURVE",
"152 187 OFFCURVE",
"168 333 CURVE SMOOTH",
"188 517 OFFCURVE",
"294 644 OFFCURVE",
"471 644 CURVE SMOOTH",
"570 644 OFFCURVE",
"626 621 OFFCURVE",
"610 474 CURVE",
"630 469 OFFCURVE",
"647 469 OFFCURVE",
"664 476 CURVE",
"671 534 OFFCURVE",
"680 579 OFFCURVE",
"697 626 CURVE",
"634 666 OFFCURVE",
"566 685 OFFCURVE",
"463 685 CURVE SMOOTH"
);
}
);
width = 693;
}
);
leftKerningGroup = O;
leftMetricsKey = O;
rightKerningGroup = G;
unicode = 0047;
},
{
glyphname = Yogh;
layers = (
{
background = {
paths = (
{
closed = 1;
nodes = (
"287 -171 OFFCURVE",
"432 -60 OFFCURVE",
"464 105 CURVE SMOOTH",
"495 264 OFFCURVE",
"390 315 OFFCURVE",
"273 308 CURVE",
"255 292 LINE",
"416 344 OFFCURVE",
"489 413 OFFCURVE",
"507 506 CURVE SMOOTH",
"527 610 OFFCURVE",
"467 685 OFFCURVE",
"313 685 CURVE SMOOTH",
"239 685 OFFCURVE",
"167 668 OFFCURVE",
"116 638 CURVE",
"112 593 OFFCURVE",
"102 549 OFFCURVE",
"91 508 CURVE",
"109 502 OFFCURVE",
"123 500 OFFCURVE",
"140 502 CURVE",
"178 606 OFFCURVE",
"224 640 OFFCURVE",
"294 640 CURVE SMOOTH",
"379 640 OFFCURVE",
"420 591 OFFCURVE",
"402 495 CURVE SMOOTH",
"385 408 OFFCURVE",
"330 339 OFFCURVE",
"131 291 CURVE",
"128 275 OFFCURVE",
"127 255 OFFCURVE",
"133 239 CURVE",
"168 255 OFFCURVE",
"205 262 OFFCURVE",
"239 262 CURVE SMOOTH",
"334 262 OFFCURVE",
"380 205 OFFCURVE",
"359 95 CURVE SMOOTH",
"333 -40 OFFCURVE",
"231 -121 OFFCURVE",
"102 -121 CURVE SMOOTH",
"44 -121 OFFCURVE",
"-13 -105 OFFCURVE",
"-25 -93 CURVE",
"-37 -104 OFFCURVE",
"-42 -116 OFFCURVE",
"-44 -126 CURVE",
"-19 -151 OFFCURVE",
"31 -171 OFFCURVE",
"107 -171 CURVE SMOOTH"
);
}
);
};
layerId = "9785DD90-0D66-4E3E-881E-09053C5F0A8A";
paths = (
{
closed = 1;
nodes = (
"287 -171 OFFCURVE",
"432 -60 OFFCURVE",
"464 105 CURVE SMOOTH",
"495 264 OFFCURVE",
"390 315 OFFCURVE",
"273 308 CURVE",
"255 292 LINE",
"416 344 OFFCURVE",
"489 413 OFFCURVE",
"507 506 CURVE SMOOTH",
"527 610 OFFCURVE",
"467 685 OFFCURVE",
"313 685 CURVE SMOOTH",
"239 685 OFFCURVE",
"167 668 OFFCURVE",
"116 638 CURVE",
"112 593 OFFCURVE",
"102 549 OFFCURVE",
"91 508 CURVE",
"109 502 OFFCURVE",
"123 500 OFFCURVE",
"140 502 CURVE",
"178 606 OFFCURVE",
"224 640 OFFCURVE",
"294 640 CURVE SMOOTH",
"379 640 OFFCURVE",
"420 591 OFFCURVE",
"402 495 CURVE SMOOTH",
"385 408 OFFCURVE",
"330 339 OFFCURVE",
"131 291 CURVE",
"128 275 OFFCURVE",
"127 255 OFFCURVE",
"133 239 CURVE",
"168 255 OFFCURVE",
"205 262 OFFCURVE",
"239 262 CURVE SMOOTH",
"334 262 OFFCURVE",
"380 205 OFFCURVE",
"359 95 CURVE SMOOTH",
"333 -40 OFFCURVE",
"231 -121 OFFCURVE",
"102 -121 CURVE SMOOTH",
"44 -121 OFFCURVE",
"-13 -105 OFFCURVE",
"-25 -93 CURVE",
"-37 -104 OFFCURVE",
"-42 -116 OFFCURVE",
"-44 -126 CURVE",
"-19 -151 OFFCURVE",
"31 -171 OFFCURVE",
"107 -171 CURVE SMOOTH"
);
}
);
width = 519;
},
{
background = {
paths = (
{
closed = 1;
nodes = (
"381 -171 OFFCURVE",
"518 -55 OFFCURVE",
"518 105 CURVE SMOOTH",
"518 241 OFFCURVE",
"420 323 OFFCURVE",
"251 302 CURVE",
"240 285 LINE",
"380 333 OFFCURVE",
"483 404 OFFCURVE",
"483 524 CURVE SMOOTH",
"483 627 OFFCURVE",
"407 685 OFFCURVE",
"233 685 CURVE SMOOTH",
"150 685 OFFCURVE",
"80 672 OFFCURVE",
"34 648 CURVE",
"38 591 OFFCURVE",
"36 529 OFFCURVE",
"30 496 CURVE",
"58 480 OFFCURVE",
"105 475 OFFCURVE",
"137 475 CURVE",
"151 569 OFFCURVE",
"163 610 OFFCURVE",
"222 610 CURVE SMOOTH",
"278 610 OFFCURVE",
"304 574 OFFCURVE",
"304 507 CURVE SMOOTH",
"304 388 OFFCURVE",
"222 338 OFFCURVE",
"115 304 CURVE",
"111 277 OFFCURVE",
"116 247 OFFCURVE",
"131 227 CURVE",
"152 233 OFFCURVE",
"190 236 OFFCURVE",
"211 236 CURVE SMOOTH",
"289 236 OFFCURVE",
"333 193 OFFCURVE",
"333 105 CURVE SMOOTH",
"333 -1 OFFCURVE",
"268 -89 OFFCURVE",
"164 -89 CURVE SMOOTH",
"122 -89 OFFCURVE",
"84 -75 OFFCURVE",
"58 -53 CURVE",
"38 -72 OFFCURVE",
"27 -98 OFFCURVE",
"25 -123 CURVE",
"62 -155 OFFCURVE",
"130 -171 OFFCURVE",
"198 -171 CURVE SMOOTH"
);
}
);
};
layerId = "B20BA836-AF41-4C81-B953-D076FC766EB4";
paths = (
{
closed = 1;
nodes = (
"313 -171 OFFCURVE",
"483 -55 OFFCURVE",
"514 105 CURVE SMOOTH",
"540 241 OFFCURVE",
"451 323 OFFCURVE",
"265 302 CURVE",
"251 285 LINE",
"415 333 OFFCURVE",
"543 404 OFFCURVE",
"566 524 CURVE SMOOTH",
"586 627 OFFCURVE",
"513 685 OFFCURVE",
"326 685 CURVE SMOOTH",
"237 685 OFFCURVE",
"166 672 OFFCURVE",
"115 648 CURVE",
"108 591 OFFCURVE",
"94 529 OFFCURVE",
"82 496 CURVE",
"107 480 OFFCURVE",
"153 475 OFFCURVE",
"185 475 CURVE",
"217 569 OFFCURVE",
"237 610 OFFCURVE",
"296 610 CURVE SMOOTH",
"352 610 OFFCURVE",
"371 574 OFFCURVE",
"358 507 CURVE SMOOTH",
"335 388 OFFCURVE",
"243 338 OFFCURVE",
"130 304 CURVE",
"120 277 OFFCURVE",
"119 245 OFFCURVE",
"130 223 CURVE",
"152 231 OFFCURVE",
"184 236 OFFCURVE",
"211 236 CURVE SMOOTH",
"290 236 OFFCURVE",
"326 193 OFFCURVE",
"309 105 CURVE SMOOTH",
"288 -1 OFFCURVE",
"206 -89 OFFCURVE",
"102 -89 CURVE SMOOTH",
"60 -89 OFFCURVE",
"25 -75 OFFCURVE",
"3 -53 CURVE",
"-21 -72 OFFCURVE",
"-37 -98 OFFCURVE",
"-43 -123 CURVE",
"-13 -155 OFFCURVE",
"51 -171 OFFCURVE",
"122 -171 CURVE SMOOTH"
);
}
);
width = 558;
}
);
leftKerningGroup = Yogh;
leftMetricsKey = "=S";
rightKerningGroup = Yogh;
rightMetricsKey = "=B";
unicode = 021C;
},
{
glyphname = H;
layers = (
{
anchors = (
{
name = bottom;
position = "{378, 0}";
},
{
name = bottomright;
position = "{742, 75}";
},
{
name = center;
position = "{452, 478}";
},
{
name = ogonek;
position = "{684, 0}";
},
{
name = top;
position = "{476, 676}";
},
{
name = topleft;
position = "{94, 676}";
}
);
background = {
paths = (
{
closed = 1;
nodes = (
"533 377 LINE",
"337 377 LINE",
"355 481 LINE SMOOTH",
"373 582 OFFCURVE",
"379 595 OFFCURVE",
"434 601 CURVE",
"444 628 OFFCURVE",
"448 654 OFFCURVE",
"448 679 CURVE",
"389 676 OFFCURVE",
"328 676 OFFCURVE",
"276 676 CURVE SMOOTH",
"212 676 OFFCURVE",
"157 676 OFFCURVE",
"108 679 CURVE",
"104 652 OFFCURVE",
"105 623 OFFCURVE",
"109 601 CURVE",
"166 593 OFFCURVE",
"171 579 OFFCURVE",
"158 501 CURVE SMOOTH",
"103 177 LINE SMOOTH",
"88 93 OFFCURVE",
"78 82 OFFCURVE",
"29 75 CURVE",
"18 48 OFFCURVE",
"13 26 OFFCURVE",
"10 -3 CURVE",
"56 -1 OFFCURVE",
"112 0 OFFCURVE",
"185 0 CURVE SMOOTH",
"250 0 OFFCURVE",
"291 0 OFFCURVE",
"348 -3 CURVE",
"351 25 OFFCURVE",
"350 49 OFFCURVE",
"346 75 CURVE",
"297 84 OFFCURVE",
"288 95 OFFCURVE",
"303 180 CURVE SMOOTH",
"322 290 LINE",
"384 294 OFFCURVE",
"454 295 OFFCURVE",
"519 296 CURVE",
"499 177 LINE SMOOTH",
"484 93 OFFCURVE",
"474 82 OFFCURVE",
"425 75 CURVE",
"414 48 OFFCURVE",
"409 26 OFFCURVE",
"406 -3 CURVE",
"452 -1 OFFCURVE",
"508 0 OFFCURVE",
"581 0 CURVE SMOOTH",
"646 0 OFFCURVE",
"687 0 OFFCURVE",
"744 -3 CURVE",
"747 25 OFFCURVE",
"746 49 OFFCURVE",
"742 75 CURVE",
"693 84 OFFCURVE",
"684 95 OFFCURVE",
"699 180 CURVE SMOOTH",
"751 481 LINE SMOOTH",
"769 582 OFFCURVE",
"775 595 OFFCURVE",
"830 601 CURVE",
"840 628 OFFCURVE",
"844 654 OFFCURVE",
"844 679 CURVE",
"785 676 OFFCURVE",
"724 676 OFFCURVE",
"672 676 CURVE SMOOTH",
"608 676 OFFCURVE",
"553 676 OFFCURVE",
"504 679 CURVE",
"500 652 OFFCURVE",
"501 623 OFFCURVE",
"505 601 CURVE",
"562 593 OFFCURVE",
"567 579 OFFCURVE",
"554 501 CURVE SMOOTH"
);
}
);
};
layerId = "B20BA836-AF41-4C81-B953-D076FC766EB4";
paths = (
{
closed = 1;
nodes = (
"452 -1 OFFCURVE",
"508 0 OFFCURVE",
"581 0 CURVE SMOOTH",
"646 0 OFFCURVE",
"687 0 OFFCURVE",
"744 -3 CURVE",
"747 25 OFFCURVE",
"746 49 OFFCURVE",
"742 75 CURVE",
"693 84 OFFCURVE",
"684 95 OFFCURVE",
"699 180 CURVE SMOOTH",
"751 481 LINE SMOOTH",
"769 582 OFFCURVE",
"775 595 OFFCURVE",
"830 601 CURVE",
"840 628 OFFCURVE",
"844 654 OFFCURVE",
"844 679 CURVE",
"785 676 OFFCURVE",
"724 676 OFFCURVE",
"672 676 CURVE SMOOTH",
"608 676 OFFCURVE",
"553 676 OFFCURVE",
"504 679 CURVE",
"500 652 OFFCURVE",
"501 623 OFFCURVE",
"505 601 CURVE",
"562 593 OFFCURVE",
"567 579 OFFCURVE",
"554 501 CURVE SMOOTH",
"499 177 LINE SMOOTH",
"484 93 OFFCURVE",
"474 82 OFFCURVE",
"425 75 CURVE",
"414 48 OFFCURVE",
"409 26 OFFCURVE",
"406 -3 CURVE"
);
},
{
closed = 1;
nodes = (
"56 -1 OFFCURVE",
"112 0 OFFCURVE",
"185 0 CURVE SMOOTH",
"250 0 OFFCURVE",
"291 0 OFFCURVE",
"348 -3 CURVE",
"351 25 OFFCURVE",
"350 49 OFFCURVE",
"346 75 CURVE",
"297 84 OFFCURVE",
"288 95 OFFCURVE",
"303 180 CURVE SMOOTH",
"355 481 LINE SMOOTH",
"373 582 OFFCURVE",
"379 595 OFFCURVE",
"434 601 CURVE",
"444 628 OFFCURVE",
"448 654 OFFCURVE",
"448 679 CURVE",
"389 676 OFFCURVE",
"328 676 OFFCURVE",
"276 676 CURVE SMOOTH",
"212 676 OFFCURVE",
"157 676 OFFCURVE",
"108 679 CURVE",
"104 652 OFFCURVE",
"105 623 OFFCURVE",
"109 601 CURVE",
"166 593 OFFCURVE",
"171 579 OFFCURVE",
"158 501 CURVE SMOOTH",
"103 177 LINE SMOOTH",
"88 93 OFFCURVE",
"78 82 OFFCURVE",
"29 75 CURVE",
"18 48 OFFCURVE",
"13 26 OFFCURVE",
"10 -3 CURVE"
);
},
{
closed = 1;
nodes = (
"335 294 OFFCURVE",
"458 296 OFFCURVE",
"561 296 CURVE",
"572 377 LINE",
"260 377 LINE",
"247 285 LINE"
);
}
);
width = 810;
},
{
anchors = (
{
name = bottom;
position = "{338, 0}";
},
{
name = bottomright;
position = "{668, 40}";
},
{
name = center;
position = "{422, 478}";
},
{
name = ogonek;
position = "{610, 0}";
},
{
name = top;
position = "{445, 676}";
},
{
name = topleft;
position = "{94, 676}";
}
);
background = {
anchors = (
{
name = bottom;
position = "{338, 0}";
},
{
name = bottomright;
position = "{668, 40}";
},
{
name = center;
position = "{422, 478}";
},
{
name = ogonek;
position = "{610, 0}";
},
{
name = top;
position = "{445, 676}";
},
{
name = topleft;
position = "{94, 676}";
}
);
paths = (
{
closed = 1;
nodes = (
"462 -1 OFFCURVE",
"510 0 OFFCURVE",
"549 0 CURVE SMOOTH",
"588 0 OFFCURVE",
"630 -1 OFFCURVE",
"670 -3 CURVE",
"672 12 OFFCURVE",
"671 28 OFFCURVE",
"668 40 CURVE",
"609 47 OFFCURVE",
"597 60 OFFCURVE",
"609 127 CURVE SMOOTH",
"682 549 LINE SMOOTH",
"694 614 OFFCURVE",
"709 627 OFFCURVE",
"760 636 CURVE",
"766 649 OFFCURVE",
"768 663 OFFCURVE",
"769 679 CURVE",
"729 677 OFFCURVE",
"690 676 OFFCURVE",
"647 676 CURVE SMOOTH",
"604 676 OFFCURVE",
"564 677 OFFCURVE",
"527 679 CURVE",
"525 663 OFFCURVE",
"526 649 OFFCURVE",
"528 636 CURVE",
"583 629 OFFCURVE",
"600 616 OFFCURVE",
"588 549 CURVE SMOOTH",
"515 127 LINE SMOOTH",
"503 60 OFFCURVE",
"490 46 OFFCURVE",
"436 40 CURVE",
"431 29 OFFCURVE",
"428 14 OFFCURVE",
"428 -3 CURVE"
);
},
{
closed = 1;
nodes = (
"63 -1 OFFCURVE",
"111 0 OFFCURVE",
"150 0 CURVE SMOOTH",
"189 0 OFFCURVE",
"231 -1 OFFCURVE",
"271 -3 CURVE",
"273 12 OFFCURVE",
"272 28 OFFCURVE",
"269 40 CURVE",
"210 47 OFFCURVE",
"198 60 OFFCURVE",
"210 127 CURVE SMOOTH",
"283 549 LINE SMOOTH",
"295 614 OFFCURVE",
"310 627 OFFCURVE",
"361 636 CURVE",
"367 649 OFFCURVE",
"369 663 OFFCURVE",
"370 679 CURVE",
"330 677 OFFCURVE",
"291 676 OFFCURVE",
"248 676 CURVE SMOOTH",
"205 676 OFFCURVE",
"165 677 OFFCURVE",
"128 679 CURVE",
"126 663 OFFCURVE",
"127 649 OFFCURVE",
"129 636 CURVE",
"184 629 OFFCURVE",
"201 616 OFFCURVE",
"189 549 CURVE SMOOTH",
"116 127 LINE SMOOTH",
"104 60 OFFCURVE",
"91 46 OFFCURVE",
"37 40 CURVE",
"32 29 OFFCURVE",
"29 14 OFFCURVE",
"29 -3 CURVE"
);
},
{
closed = 1;
nodes = (
"313 325 OFFCURVE",
"486 325 OFFCURVE",
"567 325 CURVE",
"575 368 LINE",
"240 368 LINE",
"231 319 LINE"
);
}
);
};
layerId = "9785DD90-0D66-4E3E-881E-09053C5F0A8A";
paths = (
{
closed = 1;
nodes = (
"462 -1 OFFCURVE",
"510 0 OFFCURVE",
"549 0 CURVE SMOOTH",
"588 0 OFFCURVE",
"630 -1 OFFCURVE",
"670 -3 CURVE",
"672 12 OFFCURVE",
"671 28 OFFCURVE",
"668 40 CURVE",
"609 47 OFFCURVE",
"597 60 OFFCURVE",
"609 127 CURVE SMOOTH",
"682 549 LINE SMOOTH",
"694 614 OFFCURVE",
"709 627 OFFCURVE",
"760 636 CURVE",
"766 649 OFFCURVE",
"768 663 OFFCURVE",
"769 679 CURVE",
"729 677 OFFCURVE",
"690 676 OFFCURVE",
"647 676 CURVE SMOOTH",
"604 676 OFFCURVE",
"564 677 OFFCURVE",
"527 679 CURVE",
"525 663 OFFCURVE",
"526 649 OFFCURVE",
"528 636 CURVE",
"583 629 OFFCURVE",
"600 616 OFFCURVE",
"588 549 CURVE SMOOTH",
"515 127 LINE SMOOTH",
"503 60 OFFCURVE",
"490 46 OFFCURVE",
"436 40 CURVE",
"431 29 OFFCURVE",
"428 14 OFFCURVE",
"428 -3 CURVE"
);
},
{
closed = 1;
nodes = (
"63 -1 OFFCURVE",
"111 0 OFFCURVE",
"150 0 CURVE SMOOTH",
"189 0 OFFCURVE",
"231 -1 OFFCURVE",
"271 -3 CURVE",
"273 12 OFFCURVE",
"272 28 OFFCURVE",
"269 40 CURVE",
"210 47 OFFCURVE",
"198 60 OFFCURVE",
"210 127 CURVE SMOOTH",
"283 549 LINE SMOOTH",
"295 614 OFFCURVE",
"310 627 OFFCURVE",
"361 636 CURVE",
"367 649 OFFCURVE",
"369 663 OFFCURVE",
"370 679 CURVE",
"330 677 OFFCURVE",
"291 676 OFFCURVE",
"248 676 CURVE SMOOTH",
"205 676 OFFCURVE",
"165 677 OFFCURVE",
"128 679 CURVE",
"126 663 OFFCURVE",
"127 649 OFFCURVE",
"129 636 CURVE",
"184 629 OFFCURVE",
"201 616 OFFCURVE",
"189 549 CURVE SMOOTH",
"116 127 LINE SMOOTH",
"104 60 OFFCURVE",
"91 46 OFFCURVE",
"37 40 CURVE",
"32 29 OFFCURVE",
"29 14 OFFCURVE",
"29 -3 CURVE"
);
},
{
closed = 1;
nodes = (
"313 325 OFFCURVE",
"486 325 OFFCURVE",
"567 325 CURVE",
"575 368 LINE",
"240 368 LINE",
"231 319 LINE"
);
}
);
width = 756;
}
);
leftKerningGroup = H;
rightKerningGroup = H;
unicode = 0048;
},
{
glyphname = Hbar;
layers = (
{
background = {
components = (
{
name = H;
},
{
name = strokelongcomb.case;
transform = "{1, 0, 0, 1, 4, 10}";
}
);
};
components = (
{
name = H;
},
{
name = strokelongcomb.case;
transform = "{1, 0, 0, 1, 4, 10}";
}
);
layerId = "9785DD90-0D66-4E3E-881E-09053C5F0A8A";
width = 756;
},
{
background = {
components = (
{
name = H;
}
);
paths = (
{
closed = 1;
nodes = (
"384 442 OFFCURVE",
"523 442 OFFCURVE",
"805 442 CURVE",
"814 465 OFFCURVE",
"820 486 OFFCURVE",
"820 518 CURVE",
"99 518 LINE",
"91 499 OFFCURVE",
"84 472 OFFCURVE",
"84 437 CURVE"
);
}
);
};
components = (
{
name = H;
},
{
name = strokelongcomb.case;
transform = "{1, 0, 0, 1, 5, 10}";
}
);
layerId = "B20BA836-AF41-4C81-B953-D076FC766EB4";
width = 810;
}
);
leftKerningGroup = H;
leftMetricsKey = H;
rightKerningGroup = H;
rightMetricsKey = H;
unicode = 0126;
},
{
glyphname = I;
layers = (
{
anchors = (
{
name = bottom;
position = "{180, 0}";
},
{
name = ogonek;
position = "{288, 0}";
},
{
name = top;
position = "{277, 676}";
},
{
name = topleft;
position = "{94, 676}";
}
);
layerId = "B20BA836-AF41-4C81-B953-D076FC766EB4";
paths = (
{
closed = 1;
nodes = (
"103 177 LINE SMOOTH",
"88 93 OFFCURVE",
"78 82 OFFCURVE",
"29 75 CURVE",
"18 48 OFFCURVE",
"13 26 OFFCURVE",
"10 -3 CURVE",
"56 -1 OFFCURVE",
"112 0 OFFCURVE",
"185 0 CURVE SMOOTH",
"250 0 OFFCURVE",
"291 0 OFFCURVE",
"348 -3 CURVE",
"351 25 OFFCURVE",
"350 49 OFFCURVE",
"346 75 CURVE",
"297 84 OFFCURVE",
"288 95 OFFCURVE",
"303 180 CURVE SMOOTH",
"355 481 LINE SMOOTH",
"373 582 OFFCURVE",
"379 595 OFFCURVE",
"434 601 CURVE",
"444 628 OFFCURVE",
"448 654 OFFCURVE",
"448 679 CURVE",
"389 676 OFFCURVE",
"328 676 OFFCURVE",
"276 676 CURVE SMOOTH",
"212 676 OFFCURVE",
"157 676 OFFCURVE",
"108 679 CURVE",
"104 652 OFFCURVE",
"105 623 OFFCURVE",
"109 601 CURVE",
"166 593 OFFCURVE",
"171 579 OFFCURVE",
"158 501 CURVE SMOOTH"
);
}
);
width = 414;
},
{
anchors = (
{
name = bottom;
position = "{138, 0}";
},
{
name = ogonek;
position = "{211, 0}";
},
{
name = top;
position = "{248, 676}";
},
{
name = topleft;
position = "{104, 676}";
}
);
background = {
anchors = (
{
name = bottom;
position = "{138, 0}";
},
{
name = ogonek;
position = "{211, 0}";
},
{
name = top;
position = "{248, 676}";
},
{
name = topleft;
position = "{104, 676}";
}
);
paths = (
{
closed = 1;
nodes = (
"116 127 LINE SMOOTH",
"104 60 OFFCURVE",
"91 46 OFFCURVE",
"37 40 CURVE",
"32 29 OFFCURVE",
"29 14 OFFCURVE",
"29 -3 CURVE",
"63 -1 OFFCURVE",
"111 0 OFFCURVE",
"150 0 CURVE SMOOTH",
"189 0 OFFCURVE",
"231 -1 OFFCURVE",
"271 -3 CURVE",
"273 12 OFFCURVE",
"272 28 OFFCURVE",
"269 40 CURVE",
"210 47 OFFCURVE",
"198 60 OFFCURVE",
"210 127 CURVE SMOOTH",
"283 549 LINE SMOOTH",
"295 614 OFFCURVE",
"310 627 OFFCURVE",
"361 636 CURVE",
"367 649 OFFCURVE",
"369 663 OFFCURVE",
"370 679 CURVE",
"330 677 OFFCURVE",
"291 676 OFFCURVE",
"248 676 CURVE SMOOTH",
"205 676 OFFCURVE",
"165 677 OFFCURVE",
"128 679 CURVE",
"126 663 OFFCURVE",
"127 649 OFFCURVE",
"129 636 CURVE",
"184 629 OFFCURVE",
"201 616 OFFCURVE",
"189 549 CURVE SMOOTH"
);
}
);
};
layerId = "9785DD90-0D66-4E3E-881E-09053C5F0A8A";
paths = (
{
closed = 1;
nodes = (
"116 127 LINE SMOOTH",
"104 60 OFFCURVE",
"91 46 OFFCURVE",
"37 40 CURVE",
"32 29 OFFCURVE",
"29 14 OFFCURVE",
"29 -3 CURVE",
"63 -1 OFFCURVE",
"111 0 OFFCURVE",
"150 0 CURVE SMOOTH",
"189 0 OFFCURVE",
"231 -1 OFFCURVE",
"271 -3 CURVE",
"273 12 OFFCURVE",
"272 28 OFFCURVE",
"269 40 CURVE",
"210 47 OFFCURVE",
"198 60 OFFCURVE",
"210 127 CURVE SMOOTH",
"283 549 LINE SMOOTH",
"295 614 OFFCURVE",
"310 627 OFFCURVE",
"361 636 CURVE",
"367 649 OFFCURVE",
"369 663 OFFCURVE",
"370 679 CURVE",
"330 677 OFFCURVE",
"291 676 OFFCURVE",
"248 676 CURVE SMOOTH",
"205 676 OFFCURVE",
"165 677 OFFCURVE",
"128 679 CURVE",
"126 663 OFFCURVE",
"127 649 OFFCURVE",
"129 636 CURVE",
"184 629 OFFCURVE",
"201 616 OFFCURVE",
"189 549 CURVE SMOOTH"
);
}
);
width = 357;
}
);
leftKerningGroup = H;
leftMetricsKey = H;
rightKerningGroup = H;
rightMetricsKey = H;
unicode = 0049;
},
{
glyphname = IJ;
layers = (
{
anchors = (
{
name = caret_1;
position = "{270, 0}";
},
{
name = top_1;
position = "{291, 676}";
},
{
name = top_2;
position = "{539, 676}";
}
);
background = {
anchors = (
{
name = caret_1;
position = "{270, 0}";
},
{
name = top_1;
position = "{291, 676}";
},
{
name = top_2;
position = "{539, 676}";
}
);
paths = (
{
closed = 1;
nodes = (
"351 -247 OFFCURVE",
"470 -78 OFFCURVE",
"510 131 CURVE SMOOTH",
"589 544 LINE SMOOTH",
"602 611 OFFCURVE",
"617 628 OFFCURVE",
"676 636 CURVE",
"680 647 OFFCURVE",
"682 662 OFFCURVE",
"683 679 CURVE",
"632 676 OFFCURVE",
"610 676 OFFCURVE",
"549 676 CURVE SMOOTH",
"505 676 OFFCURVE",
"457 676 OFFCURVE",
"428 679 CURVE",
"427 663 OFFCURVE",
"427 649 OFFCURVE",
"431 636 CURVE",
"504 627 OFFCURVE",
"506 610 OFFCURVE",
"499 554 CURVE SMOOTH",
"462 263 OFFCURVE",
"319 57 OFFCURVE",
"245 57 CURVE SMOOTH",
"198 57 OFFCURVE",
"206 142 OFFCURVE",
"227 252 CURVE SMOOTH",
"283 549 LINE SMOOTH",
"295 614 OFFCURVE",
"311 627 OFFCURVE",
"366 636 CURVE",
"372 649 OFFCURVE",
"374 663 OFFCURVE",
"375 679 CURVE",
"333 677 OFFCURVE",
"293 676 OFFCURVE",
"247 676 CURVE SMOOTH",
"202 676 OFFCURVE",
"160 677 OFFCURVE",
"121 679 CURVE",
"119 663 OFFCURVE",
"120 649 OFFCURVE",
"123 636 CURVE",
"182 629 OFFCURVE",
"202 616 OFFCURVE",
"190 549 CURVE SMOOTH",
"147 304 LINE SMOOTH",
"134 227 OFFCURVE",
"69 -13 OFFCURVE",
"200 -13 CURVE SMOOTH",
"304 -13 OFFCURVE",
"402 141 OFFCURVE",
"437 221 CURVE",
"440 221 LINE",
"425 187 OFFCURVE",
"424 184 OFFCURVE",
"409 101 CURVE SMOOTH",
"372 -101 OFFCURVE",
"361 -147 OFFCURVE",
"274 -147 CURVE SMOOTH",
"227 -147 OFFCURVE",
"149 -134 OFFCURVE",
"81 -108 CURVE",
"71 -129 OFFCURVE",
"69 -149 OFFCURVE",
"74 -186 CURVE",
"116 -223 OFFCURVE",
"171 -247 OFFCURVE",
"220 -247 CURVE SMOOTH"
);
}
);
};
layerId = "9785DD90-0D66-4E3E-881E-09053C5F0A8A";
paths = (
{
closed = 1;
nodes = (
"351 -247 OFFCURVE",
"470 -78 OFFCURVE",
"510 131 CURVE SMOOTH",
"589 544 LINE SMOOTH",
"602 611 OFFCURVE",
"617 628 OFFCURVE",
"676 636 CURVE",
"680 647 OFFCURVE",
"682 662 OFFCURVE",
"683 679 CURVE",
"632 676 OFFCURVE",
"610 676 OFFCURVE",
"549 676 CURVE SMOOTH",
"505 676 OFFCURVE",
"457 676 OFFCURVE",
"428 679 CURVE",
"427 663 OFFCURVE",
"427 649 OFFCURVE",
"431 636 CURVE",
"504 627 OFFCURVE",
"506 610 OFFCURVE",
"499 554 CURVE SMOOTH",
"462 263 OFFCURVE",
"319 57 OFFCURVE",
"245 57 CURVE SMOOTH",
"198 57 OFFCURVE",
"206 142 OFFCURVE",
"227 252 CURVE SMOOTH",
"283 549 LINE SMOOTH",
"295 614 OFFCURVE",
"311 627 OFFCURVE",
"366 636 CURVE",
"372 649 OFFCURVE",
"374 663 OFFCURVE",
"375 679 CURVE",
"333 677 OFFCURVE",
"293 676 OFFCURVE",
"247 676 CURVE SMOOTH",
"202 676 OFFCURVE",
"160 677 OFFCURVE",
"121 679 CURVE",
"119 663 OFFCURVE",
"120 649 OFFCURVE",
"123 636 CURVE",
"182 629 OFFCURVE",
"202 616 OFFCURVE",
"190 549 CURVE SMOOTH",
"147 304 LINE SMOOTH",
"134 227 OFFCURVE",
"69 -13 OFFCURVE",
"200 -13 CURVE SMOOTH",
"304 -13 OFFCURVE",
"402 141 OFFCURVE",
"437 221 CURVE",
"440 221 LINE",
"425 187 OFFCURVE",
"424 184 OFFCURVE",
"409 101 CURVE SMOOTH",
"372 -101 OFFCURVE",
"361 -147 OFFCURVE",
"274 -147 CURVE SMOOTH",
"227 -147 OFFCURVE",
"149 -134 OFFCURVE",
"81 -108 CURVE",
"71 -129 OFFCURVE",
"69 -149 OFFCURVE",
"74 -186 CURVE",
"116 -223 OFFCURVE",
"171 -247 OFFCURVE",
"220 -247 CURVE SMOOTH"
);
}
);
userData = {
RMXScaler = {
adjustSpace = 30;
height = 148;
weight = 8;
width = 130;
};
};
width = 639;
},
{
anchors = (
{
name = caret_1;
position = "{338, 0}";
},
{
name = top_1;
position = "{323, 676}";
},
{
name = top_2;
position = "{647, 676}";
}
);
background = {
paths = (
{
closed = 1;
nodes = (
"496 -367 OFFCURVE",
"623 -131 OFFCURVE",
"678 160 CURVE SMOOTH",
"738 478 LINE SMOOTH",
"759 588 OFFCURVE",
"767 596 OFFCURVE",
"820 601 CURVE",
"827 624 OFFCURVE",
"831 650 OFFCURVE",
"832 679 CURVE",
"788 677 OFFCURVE",
"723 676 OFFCURVE",
"664 676 CURVE SMOOTH",
"603 676 OFFCURVE",
"540 676 OFFCURVE",
"492 679 CURVE",
"489 653 OFFCURVE",
"488 626 OFFCURVE",
"494 601 CURVE",
"549 595 OFFCURVE",
"556 582 OFFCURVE",
"543 497 CURVE SMOOTH",
"504 247 OFFCURVE",
"401 137 OFFCURVE",
"347 137 CURVE SMOOTH",
"302 137 OFFCURVE",
"292 199 OFFCURVE",
"327 355 CURVE SMOOTH",
"355 481 LINE SMOOTH",
"377 581 OFFCURVE",
"379 595 OFFCURVE",
"434 601 CURVE",
"444 628 OFFCURVE",
"448 654 OFFCURVE",
"448 679 CURVE",
"389 676 OFFCURVE",
"328 676 OFFCURVE",
"276 676 CURVE SMOOTH",
"212 676 OFFCURVE",
"157 676 OFFCURVE",
"108 679 CURVE",
"104 652 OFFCURVE",
"105 623 OFFCURVE",
"109 601 CURVE",
"166 593 OFFCURVE",
"173 578 OFFCURVE",
"159 496 CURVE SMOOTH",
"128 322 LINE SMOOTH",
"94 135 OFFCURVE",
"104 -3 OFFCURVE",
"219 -3 CURVE SMOOTH",
"338 -3 OFFCURVE",
"454 115 OFFCURVE",
"510 226 CURVE",
"512 226 LINE",
"494 182 OFFCURVE",
"484 142 OFFCURVE",
"471 54 CURVE SMOOTH",
"431 -213 OFFCURVE",
"417 -230 OFFCURVE",
"339 -230 CURVE SMOOTH",
"267 -230 OFFCURVE",
"174 -213 OFFCURVE",
"103 -184 CURVE",
"88 -214 OFFCURVE",
"79 -257 OFFCURVE",
"81 -294 CURVE",
"136 -340 OFFCURVE",
"195 -367 OFFCURVE",
"277 -367 CURVE SMOOTH"
);
}
);
};
layerId = "B20BA836-AF41-4C81-B953-D076FC766EB4";
paths = (
{
closed = 1;
nodes = (
"492 -247 OFFCURVE",
"635 -68 OFFCURVE",
"678 160 CURVE SMOOTH",
"738 478 LINE SMOOTH",
"759 588 OFFCURVE",
"767 596 OFFCURVE",
"820 601 CURVE",
"827 624 OFFCURVE",
"831 650 OFFCURVE",
"832 679 CURVE",
"788 677 OFFCURVE",
"723 676 OFFCURVE",
"664 676 CURVE SMOOTH",
"603 676 OFFCURVE",
"540 676 OFFCURVE",
"492 679 CURVE",
"489 653 OFFCURVE",
"488 626 OFFCURVE",
"494 601 CURVE",
"549 595 OFFCURVE",
"556 581 OFFCURVE",
"543 497 CURVE SMOOTH",
"504 247 OFFCURVE",
"402 137 OFFCURVE",
"345 137 CURVE SMOOTH",
"303 137 OFFCURVE",
"292 199 OFFCURVE",
"327 355 CURVE SMOOTH",
"355 481 LINE SMOOTH",
"377 581 OFFCURVE",
"379 595 OFFCURVE",
"434 601 CURVE",
"444 628 OFFCURVE",
"448 654 OFFCURVE",
"448 679 CURVE",
"389 676 OFFCURVE",
"328 676 OFFCURVE",
"276 676 CURVE SMOOTH",
"212 676 OFFCURVE",
"157 676 OFFCURVE",
"108 679 CURVE",
"104 652 OFFCURVE",
"105 623 OFFCURVE",
"109 601 CURVE",
"166 593 OFFCURVE",
"173 577 OFFCURVE",
"159 496 CURVE SMOOTH",
"128 322 LINE SMOOTH",
"92 122 OFFCURVE",
"107 -3 OFFCURVE",
"223 -3 CURVE SMOOTH",
"336 -3 OFFCURVE",
"456 117 OFFCURVE",
"510 226 CURVE",
"512 226 LINE",
"491 174 OFFCURVE",
"486 148 OFFCURVE",
"471 54 CURVE SMOOTH",
"447 -99 OFFCURVE",
"418 -110 OFFCURVE",
"344 -110 CURVE SMOOTH",
"250 -110 OFFCURVE",
"166 -92 OFFCURVE",
"96 -64 CURVE",
"81 -94 OFFCURVE",
"72 -137 OFFCURVE",
"74 -174 CURVE",
"129 -220 OFFCURVE",
"187 -247 OFFCURVE",
"272 -247 CURVE SMOOTH"
);
}
);
userData = {
RMXScaler = {
adjustSpace = 30;
height = 148;
width = 136;
};
};
width = 770;
}
);
leftKerningGroup = H;
rightKerningGroup = J;
rightMetricsKey = J;
unicode = 0132;
userData = {
RMXScaler = {
source = y.ss01;
};
};
},
{
glyphname = J;
layers = (
{
anchors = (
{
name = top;
position = "{275, 676}";
}
);
layerId = "B20BA836-AF41-4C81-B953-D076FC766EB4";
rightMetricsKey = "=H";
paths = (
{
closed = 1;
nodes = (
"105 653 OFFCURVE",
"104 626 OFFCURVE",
"110 601 CURVE",
"165 595 OFFCURVE",
"172 582 OFFCURVE",
"157 498 CURVE SMOOTH",
"83 72 LINE SMOOTH",
"59 -68 OFFCURVE",
"16 -120 OFFCURVE",
"-63 -159 CURVE",
"-63 -194 OFFCURVE",
"-57 -225 OFFCURVE",
"-32 -246 CURVE",
"204 -170 OFFCURVE",
"260 -60 OFFCURVE",
"292 125 CURVE SMOOTH",
"354 478 LINE SMOOTH",
"374 588 OFFCURVE",
"383 596 OFFCURVE",
"436 601 CURVE",
"443 624 OFFCURVE",
"447 650 OFFCURVE",
"448 679 CURVE",
"404 677 OFFCURVE",
"339 676 OFFCURVE",
"280 676 CURVE SMOOTH",
"219 676 OFFCURVE",
"156 676 OFFCURVE",
"108 679 CURVE"
);
}
);
width = 385.933;
},
{
anchors = (
{
name = top;
position = "{220, 676}";
}
);
background = {
anchors = (
{
name = top;
position = "{220, 676}";
}
);
paths = (
{
closed = 1;
nodes = (
"106 663 OFFCURVE",
"106 649 OFFCURVE",
"110 636 CURVE",
"171 628 OFFCURVE",
"180 611 OFFCURVE",
"170 554 CURVE SMOOTH",
"80 39 LINE SMOOTH",
"58 -88 OFFCURVE",
"2 -157 OFFCURVE",
"-82 -215 CURVE",
"-80 -229 OFFCURVE",
"-76 -242 OFFCURVE",
"-66 -249 CURVE",
"119 -158 OFFCURVE",
"156 -66 OFFCURVE",
"188 120 CURVE SMOOTH",
"262 544 LINE SMOOTH",
"274 611 OFFCURVE",
"289 628 OFFCURVE",
"343 636 CURVE",
"347 647 OFFCURVE",
"350 662 OFFCURVE",
"351 679 CURVE",
"304 676 OFFCURVE",
"280 676 OFFCURVE",
"224 676 CURVE SMOOTH",
"182 676 OFFCURVE",
"136 676 OFFCURVE",
"108 679 CURVE"
);
}
);
};
layerId = "9785DD90-0D66-4E3E-881E-09053C5F0A8A";
paths = (
{
closed = 1;
nodes = (
"106 663 OFFCURVE",
"106 649 OFFCURVE",
"110 636 CURVE",
"171 628 OFFCURVE",
"180 611 OFFCURVE",
"170 554 CURVE SMOOTH",
"80 39 LINE SMOOTH",
"58 -88 OFFCURVE",
"2 -157 OFFCURVE",
"-82 -215 CURVE",
"-80 -229 OFFCURVE",
"-76 -242 OFFCURVE",
"-66 -249 CURVE",
"119 -158 OFFCURVE",
"156 -66 OFFCURVE",
"188 120 CURVE SMOOTH",
"262 544 LINE SMOOTH",
"274 611 OFFCURVE",
"289 628 OFFCURVE",
"343 636 CURVE",
"347 647 OFFCURVE",
"350 662 OFFCURVE",
"351 679 CURVE",
"304 676 OFFCURVE",
"280 676 OFFCURVE",
"224 676 CURVE SMOOTH",
"182 676 OFFCURVE",
"136 676 OFFCURVE",
"108 679 CURVE"
);
}
);
width = 306.176;
}
);
leftKerningGroup = J;
rightKerningGroup = J;
rightMetricsKey = H;
unicode = 004A;
},
{
glyphname = K;
layers = (
{
anchors = (
{
name = bottom;
position = "{396, 0}";
},
{
name = center;
position = "{384, 336}";
},
{
name = top;
position = "{476, 676}";
}
);
background = {
paths = (
{
closed = 1;
nodes = (
"338 382 LINE",
"355 481 LINE SMOOTH",
"373 582 OFFCURVE",
"379 595 OFFCURVE",
"434 601 CURVE",
"444 628 OFFCURVE",
"448 654 OFFCURVE",
"448 679 CURVE",
"389 676 OFFCURVE",
"328 676 OFFCURVE",
"276 676 CURVE SMOOTH",
"212 676 OFFCURVE",
"157 676 OFFCURVE",
"108 679 CURVE",
"104 652 OFFCURVE",
"105 623 OFFCURVE",
"109 601 CURVE",
"166 593 OFFCURVE",
"171 579 OFFCURVE",
"158 501 CURVE SMOOTH",
"106 197 LINE SMOOTH",
"90 105 OFFCURVE",
"88 79 OFFCURVE",
"29 75 CURVE",
"18 48 OFFCURVE",
"13 26 OFFCURVE",
"10 -3 CURVE",
"56 -1 OFFCURVE",
"112 0 OFFCURVE",
"185 0 CURVE SMOOTH",
"250 0 OFFCURVE",
"281 0 OFFCURVE",
"338 -3 CURVE",
"341 25 OFFCURVE",
"340 49 OFFCURVE",
"336 75 CURVE",
"297 82 OFFCURVE",
"288 95 OFFCURVE",
"302 177 CURVE SMOOTH",
"324 303 LINE",
"363 244 OFFCURVE",
"389 188 OFFCURVE",
"412 114 CURVE SMOOTH",
"441 23 OFFCURVE",
"486 -9 OFFCURVE",
"573 -9 CURVE SMOOTH",
"642 -9 OFFCURVE",
"706 18 OFFCURVE",
"752 67 CURVE",
"749 90 OFFCURVE",
"736 119 OFFCURVE",
"721 134 CURVE",
"708 126 OFFCURVE",
"689 122 OFFCURVE",
"672 122 CURVE SMOOTH",
"647 122 OFFCURVE",
"631 136 OFFCURVE",
"612 182 CURVE SMOOTH",
"574 271 OFFCURVE",
"530 338 OFFCURVE",
"474 392 CURVE",
"627 519 LINE SMOOTH",
"707 586 OFFCURVE",
"729 596 OFFCURVE",
"784 600 CURVE",
"794 628 OFFCURVE",
"798 654 OFFCURVE",
"798 679 CURVE",
"775 677 OFFCURVE",
"704 676 OFFCURVE",
"661 676 CURVE SMOOTH",
"626 676 OFFCURVE",
"574 676 OFFCURVE",
"535 679 CURVE",
"532 652 OFFCURVE",
"532 623 OFFCURVE",
"536 601 CURVE",
"570 590 OFFCURVE",
"566 578 OFFCURVE",
"494 516 CURVE SMOOTH"
);
}
);
};
layerId = "B20BA836-AF41-4C81-B953-D076FC766EB4";
paths = (
{
closed = 1;
nodes = (
"104 652 OFFCURVE",
"105 623 OFFCURVE",
"109 601 CURVE",
"166 593 OFFCURVE",
"171 579 OFFCURVE",
"158 501 CURVE SMOOTH",
"106 197 LINE SMOOTH",
"90 105 OFFCURVE",
"88 79 OFFCURVE",
"29 75 CURVE",
"18 48 OFFCURVE",
"13 26 OFFCURVE",
"10 -3 CURVE",
"56 -1 OFFCURVE",
"112 0 OFFCURVE",
"185 0 CURVE SMOOTH",
"250 0 OFFCURVE",
"281 0 OFFCURVE",
"338 -3 CURVE",
"341 25 OFFCURVE",
"340 49 OFFCURVE",
"336 75 CURVE",
"297 82 OFFCURVE",
"288 95 OFFCURVE",
"302 177 CURVE SMOOTH",
"355 481 LINE SMOOTH",
"373 582 OFFCURVE",
"379 595 OFFCURVE",
"434 601 CURVE",
"444 628 OFFCURVE",
"448 654 OFFCURVE",
"448 679 CURVE",
"389 676 OFFCURVE",
"328 676 OFFCURVE",
"276 676 CURVE SMOOTH",
"212 676 OFFCURVE",
"157 676 OFFCURVE",
"108 679 CURVE"
);
},
{
closed = 1;
nodes = (
"532 652 OFFCURVE",
"532 623 OFFCURVE",
"536 601 CURVE",
"570 590 OFFCURVE",
"566 578 OFFCURVE",
"494 516 CURVE SMOOTH",
"294 344 LINE",
"351 270 OFFCURVE",
"384 205 OFFCURVE",
"412 114 CURVE SMOOTH",
"441 23 OFFCURVE",
"486 -9 OFFCURVE",
"573 -9 CURVE SMOOTH",
"642 -9 OFFCURVE",
"706 18 OFFCURVE",
"752 67 CURVE",
"749 90 OFFCURVE",
"736 119 OFFCURVE",
"721 134 CURVE",
"708 126 OFFCURVE",
"689 122 OFFCURVE",
"672 122 CURVE SMOOTH",
"647 122 OFFCURVE",
"631 136 OFFCURVE",
"612 182 CURVE SMOOTH",
"569 282 OFFCURVE",
"519 355 OFFCURVE",
"451 412 CURVE",
"440 364 LINE",
"627 519 LINE SMOOTH",
"707 586 OFFCURVE",
"729 596 OFFCURVE",
"784 600 CURVE",
"794 628 OFFCURVE",
"798 654 OFFCURVE",
"798 679 CURVE",
"775 677 OFFCURVE",
"704 676 OFFCURVE",
"661 676 CURVE SMOOTH",
"626 676 OFFCURVE",
"574 676 OFFCURVE",
"535 679 CURVE"
);
}
);
width = 784;
},
{
anchors = (
{
name = bottom;
position = "{356, 0}";
},
{
name = center;
position = "{362, 345}";
},
{
name = top;
position = "{426, 676}";
}
);
background = {
anchors = (
{
name = bottom;
position = "{356, 0}";
},
{
name = center;
position = "{362, 345}";
},
{
name = top;
position = "{426, 676}";
}
);
paths = (
{
closed = 1;
nodes = (
"126 663 OFFCURVE",
"127 649 OFFCURVE",
"129 636 CURVE",
"184 629 OFFCURVE",
"201 616 OFFCURVE",
"189 549 CURVE SMOOTH",
"116 127 LINE SMOOTH",
"104 60 OFFCURVE",
"91 46 OFFCURVE",
"37 40 CURVE",
"32 29 OFFCURVE",
"29 14 OFFCURVE",
"29 -3 CURVE",
"63 -1 OFFCURVE",
"111 0 OFFCURVE",
"150 0 CURVE SMOOTH",
"189 0 OFFCURVE",
"221 -1 OFFCURVE",
"261 -3 CURVE",
"263 12 OFFCURVE",
"262 28 OFFCURVE",
"259 40 CURVE",
"208 46 OFFCURVE",
"198 60 OFFCURVE",
"210 127 CURVE SMOOTH",
"283 549 LINE SMOOTH",
"295 614 OFFCURVE",
"310 627 OFFCURVE",
"361 636 CURVE",
"367 649 OFFCURVE",
"369 663 OFFCURVE",
"370 679 CURVE",
"330 677 OFFCURVE",
"291 676 OFFCURVE",
"248 676 CURVE SMOOTH",
"205 676 OFFCURVE",
"165 677 OFFCURVE",
"128 679 CURVE"
);
},
{
closed = 1;
nodes = (
"471 665 OFFCURVE",
"474 651 OFFCURVE",
"477 636 CURVE",
"514 630 OFFCURVE",
"518 612 OFFCURVE",
"449 546 CURVE SMOOTH",
"239 347 LINE",
"301 282 OFFCURVE",
"348 202 OFFCURVE",
"396 77 CURVE SMOOTH",
"419 17 OFFCURVE",
"444 -7 OFFCURVE",
"485 -9 CURVE SMOOTH",
"534 -9 OFFCURVE",
"566 15 OFFCURVE",
"601 58 CURVE",
"594 72 OFFCURVE",
"584 83 OFFCURVE",
"571 90 CURVE",
"557 77 OFFCURVE",
"550 74 OFFCURVE",
"537 74 CURVE SMOOTH",
"517 74 OFFCURVE",
"501 86 OFFCURVE",
"480 133 CURVE SMOOTH",
"429 245 OFFCURVE",
"382 318 OFFCURVE",
"323 378 CURVE",
"322 363 LINE",
"517 547 LINE SMOOTH",
"590 615 OFFCURVE",
"619 628 OFFCURVE",
"675 636 CURVE",
"680 648 OFFCURVE",
"680 667 OFFCURVE",
"680 679 CURVE",
"640 676 OFFCURVE",
"619 676 OFFCURVE",
"582 676 CURVE SMOOTH",
"539 676 OFFCURVE",
"513 676 OFFCURVE",
"473 679 CURVE"
);
}
);
};
layerId = "9785DD90-0D66-4E3E-881E-09053C5F0A8A";
paths = (
{
closed = 1;
nodes = (
"126 663 OFFCURVE",
"127 649 OFFCURVE",
"129 636 CURVE",
"184 629 OFFCURVE",
"201 616 OFFCURVE",
"189 549 CURVE SMOOTH",
"116 127 LINE SMOOTH",
"104 60 OFFCURVE",
"91 46 OFFCURVE",
"37 40 CURVE",
"32 29 OFFCURVE",
"29 14 OFFCURVE",
"29 -3 CURVE",
"63 -1 OFFCURVE",
"111 0 OFFCURVE",
"150 0 CURVE SMOOTH",
"189 0 OFFCURVE",
"221 -1 OFFCURVE",
"261 -3 CURVE",
"263 12 OFFCURVE",
"262 28 OFFCURVE",
"259 40 CURVE",
"208 46 OFFCURVE",
"198 60 OFFCURVE",
"210 127 CURVE SMOOTH",
"283 549 LINE SMOOTH",
"295 614 OFFCURVE",
"310 627 OFFCURVE",
"361 636 CURVE",
"367 649 OFFCURVE",
"369 663 OFFCURVE",
"370 679 CURVE",
"330 677 OFFCURVE",
"291 676 OFFCURVE",
"248 676 CURVE SMOOTH",
"205 676 OFFCURVE",
"165 677 OFFCURVE",
"128 679 CURVE"
);
},
{
closed = 1;
nodes = (
"471 665 OFFCURVE",
"474 651 OFFCURVE",
"477 636 CURVE",
"514 630 OFFCURVE",
"518 612 OFFCURVE",
"449 546 CURVE SMOOTH",
"239 347 LINE",
"301 282 OFFCURVE",
"348 202 OFFCURVE",
"396 77 CURVE SMOOTH",
"419 17 OFFCURVE",
"444 -7 OFFCURVE",
"485 -9 CURVE SMOOTH",
"534 -9 OFFCURVE",
"566 15 OFFCURVE",
"601 58 CURVE",
"594 72 OFFCURVE",
"584 83 OFFCURVE",
"571 90 CURVE",
"557 77 OFFCURVE",
"550 74 OFFCURVE",
"537 74 CURVE SMOOTH",
"517 74 OFFCURVE",
"501 86 OFFCURVE",
"480 133 CURVE SMOOTH",
"429 245 OFFCURVE",
"382 318 OFFCURVE",
"323 378 CURVE",
"322 363 LINE",
"517 547 LINE SMOOTH",
"590 615 OFFCURVE",
"619 628 OFFCURVE",
"675 636 CURVE",
"680 648 OFFCURVE",
"680 667 OFFCURVE",
"680 679 CURVE",
"640 676 OFFCURVE",
"619 676 OFFCURVE",
"582 676 CURVE SMOOTH",
"539 676 OFFCURVE",
"513 676 OFFCURVE",
"473 679 CURVE"
);
}
);
width = 640;
}
);
leftKerningGroup = H;
leftMetricsKey = H;
rightKerningGroup = K;
unicode = 004B;
},
{
glyphname = L;
layers = (
{
anchors = (
{
name = bottom;
position = "{292, 0}";
},
{
name = center;
position = "{235, 348}";
},
{
name = top;
position = "{292, 676}";
},
{
name = topright;
position = "{504, 486}";
}
);
layerId = "B20BA836-AF41-4C81-B953-D076FC766EB4";
paths = (
{
closed = 1;
nodes = (
"55 -1 OFFCURVE",
"240 0 OFFCURVE",
"314 0 CURVE SMOOTH",
"394 0 OFFCURVE",
"506 0 OFFCURVE",
"574 -3 CURVE",
"582 63 OFFCURVE",
"604 140 OFFCURVE",
"620 179 CURVE",
"592 202 OFFCURVE",
"560 216 OFFCURVE",
"518 225 CURVE",
"486 127 OFFCURVE",
"444 75 OFFCURVE",
"376 75 CURVE SMOOTH",
"359 75 LINE SMOOTH",
"299 75 OFFCURVE",
"287 90 OFFCURVE",
"303 182 CURVE SMOOTH",
"355 481 LINE SMOOTH",
"372 581 OFFCURVE",
"382 593 OFFCURVE",
"454 601 CURVE",
"464 627 OFFCURVE",
"468 654 OFFCURVE",
"468 679 CURVE",
"409 676 OFFCURVE",
"333 676 OFFCURVE",
"281 676 CURVE SMOOTH",
"211 676 OFFCURVE",
"157 676 OFFCURVE",
"108 679 CURVE",
"104 652 OFFCURVE",
"104 624 OFFCURVE",
"109 601 CURVE",
"166 593 OFFCURVE",
"173 579 OFFCURVE",
"159 501 CURVE SMOOTH",
"106 197 LINE SMOOTH",
"88 95 OFFCURVE",
"83 80 OFFCURVE",
"29 75 CURVE",
"18 48 OFFCURVE",
"13 25 OFFCURVE",
"10 -3 CURVE"
);
}
);
width = 640;
},
{
anchors = (
{
name = bottom;
position = "{254, 0}";
},
{
name = center;
position = "{207, 354}";
},
{
name = top;
position = "{254, 676}";
},
{
name = topright;
position = "{502, 446}";
}
);
background = {
anchors = (
{
name = bottom;
position = "{254, 0}";
},
{
name = center;
position = "{207, 354}";
},
{
name = top;
position = "{254, 676}";
},
{
name = topright;
position = "{502, 446}";
}
);
paths = (
{
closed = 1;
nodes = (
"104 0 OFFCURVE",
"203 0 OFFCURVE",
"279 0 CURVE SMOOTH",
"351 0 OFFCURVE",
"433 0 OFFCURVE",
"471 -3 CURVE",
"484 56 OFFCURVE",
"502 108 OFFCURVE",
"524 150 CURVE",
"512 163 OFFCURVE",
"498 169 OFFCURVE",
"480 172 CURVE",
"433 78 OFFCURVE",
"398 45 OFFCURVE",
"287 45 CURVE SMOOTH",
"281 45 LINE SMOOTH",
"206 45 OFFCURVE",
"196 59 OFFCURVE",
"209 133 CURVE SMOOTH",
"280 541 LINE SMOOTH",
"292 611 OFFCURVE",
"306 629 OFFCURVE",
"367 636 CURVE",
"372 647 OFFCURVE",
"375 662 OFFCURVE",
"375 678 CURVE",
"336 676 OFFCURVE",
"287 676 OFFCURVE",
"246 676 CURVE SMOOTH",
"205 676 OFFCURVE",
"165 676 OFFCURVE",
"128 679 CURVE",
"127 665 OFFCURVE",
"127 649 OFFCURVE",
"130 636 CURVE",
"181 629 OFFCURVE",
"199 617 OFFCURVE",
"188 554 CURVE SMOOTH",
"116 143 LINE SMOOTH",
"103 65 OFFCURVE",
"92 46 OFFCURVE",
"32 40 CURVE",
"27 26 OFFCURVE",
"26 12 OFFCURVE",
"25 -3 CURVE"
);
}
);
};
layerId = "9785DD90-0D66-4E3E-881E-09053C5F0A8A";
paths = (
{
closed = 1;
nodes = (
"104 0 OFFCURVE",
"203 0 OFFCURVE",
"279 0 CURVE SMOOTH",
"351 0 OFFCURVE",
"433 0 OFFCURVE",
"471 -3 CURVE",
"484 56 OFFCURVE",
"502 108 OFFCURVE",
"524 150 CURVE",
"512 163 OFFCURVE",
"498 169 OFFCURVE",
"480 172 CURVE",
"433 78 OFFCURVE",
"398 45 OFFCURVE",
"287 45 CURVE SMOOTH",
"281 45 LINE SMOOTH",
"206 45 OFFCURVE",
"196 59 OFFCURVE",
"209 133 CURVE SMOOTH",
"280 541 LINE SMOOTH",
"292 611 OFFCURVE",
"306 629 OFFCURVE",
"367 636 CURVE",
"372 647 OFFCURVE",
"375 662 OFFCURVE",
"375 678 CURVE",
"336 676 OFFCURVE",
"287 676 OFFCURVE",
"246 676 CURVE SMOOTH",
"205 676 OFFCURVE",
"165 676 OFFCURVE",
"128 679 CURVE",
"127 665 OFFCURVE",
"127 649 OFFCURVE",
"130 636 CURVE",
"181 629 OFFCURVE",
"199 617 OFFCURVE",
"188 554 CURVE SMOOTH",
"116 143 LINE SMOOTH",
"103 65 OFFCURVE",
"92 46 OFFCURVE",
"32 40 CURVE",
"27 26 OFFCURVE",
"26 12 OFFCURVE",
"25 -3 CURVE"
);
}
);
width = 545;
}
);
leftKerningGroup = H;
leftMetricsKey = H;
rightKerningGroup = L;
unicode = 004C;
},
{
glyphname = Lslash;
layers = (
{
background = {
components = (
{
name = L;
},
{
name = slashshortcomb.case;
transform = "{1, 0, 0, 1, -90, -1}";
}
);
};
components = (
{
name = L;
},
{
name = slashshortcomb.case;
transform = "{1, 0, 0, 1, -90, -1}";
}
);
layerId = "9785DD90-0D66-4E3E-881E-09053C5F0A8A";
width = 545;
},
{
background = {
components = (
{
name = L;
}
);
paths = (
{
closed = 1;
nodes = (
"450 430 LINE",
"452 459 OFFCURVE",
"441 489 OFFCURVE",
"424 508 CURVE",
"318 436 LINE",
"301 327 LINE"
);
},
{
closed = 1;
nodes = (
"145 238 LINE",
"163 352 LINE",
"40 268 LINE",
"38 239 OFFCURVE",
"51 204 OFFCURVE",
"70 185 CURVE"
);
}
);
};
components = (
{
name = L;
},
{
name = slashshortcomb.case;
transform = "{1, 0, 0, 1, -108, 1}";
}
);
layerId = "B20BA836-AF41-4C81-B953-D076FC766EB4";
width = 640;
}
);
leftKerningGroup = H;
rightKerningGroup = L;
unicode = 0141;
},
{
glyphname = M;
layers = (
{
anchors = (
{
name = bottom;
position = "{383, 0}";
},
{
name = bottomright;
position = "{923, 75}";
},
{
name = top;
position = "{548, 676}";
}
);
background = {
paths = (
{
closed = 1;
nodes = (
"899 564 OFFCURVE",
"911 591 OFFCURVE",
"963 601 CURVE",
"971 624 OFFCURVE",
"976 651 OFFCURVE",
"976 679 CURVE",
"927 676 OFFCURVE",
"893 676 OFFCURVE",
"857 676 CURVE SMOOTH",
"829 676 OFFCURVE",
"773 676 OFFCURVE",
"718 679 CURVE",
"647 538 OFFCURVE",
"571 399 OFFCURVE",
"489 261 CURVE",
"458 402 OFFCURVE",
"421 541 OFFCURVE",
"380 679 CURVE",
"331 676 OFFCURVE",
"276 676 OFFCURVE",
"240 676 CURVE SMOOTH",
"212 676 OFFCURVE",
"142 676 OFFCURVE",
"106 679 CURVE",
"102 652 OFFCURVE",
"102 623 OFFCURVE",
"107 601 CURVE",
"161 594 OFFCURVE",
"167 583 OFFCURVE",
"152 514 CURVE SMOOTH",
"129 411 OFFCURVE",
"107 329 OFFCURVE",
"71 216 CURVE SMOOTH",
"39 116 OFFCURVE",
"21 88 OFFCURVE",
"-21 75 CURVE",
"-31 52 OFFCURVE",
"-36 23 OFFCURVE",
"-36 -3 CURVE",
"-7 0 OFFCURVE",
"42 0 OFFCURVE",
"88 0 CURVE SMOOTH",
"126 0 OFFCURVE",
"164 0 OFFCURVE",
"191 -3 CURVE",
"194 23 OFFCURVE",
"194 51 OFFCURVE",
"190 75 CURVE",
"129 88 OFFCURVE",
"128 118 OFFCURVE",
"154 218 CURVE SMOOTH",
"173 290 OFFCURVE",
"200 393 OFFCURVE",
"220 484 CURVE",
"270 323 OFFCURVE",
"314 158 OFFCURVE",
"352 -9 CURVE",
"374 -9 OFFCURVE",
"398 -9 OFFCURVE",
"428 -3 CURVE",
"523 154 OFFCURVE",
"613 314 OFFCURVE",
"696 475 CURVE",
"691 386 OFFCURVE",
"686 298 OFFCURVE",
"676 210 CURVE SMOOTH",
"665 105 OFFCURVE",
"657 83 OFFCURVE",
"588 75 CURVE",
"578 49 OFFCURVE",
"574 22 OFFCURVE",
"574 -3 CURVE",
"633 0 OFFCURVE",
"699 0 OFFCURVE",
"751 0 CURVE SMOOTH",
"821 0 OFFCURVE",
"875 0 OFFCURVE",
"924 -3 CURVE",
"928 24 OFFCURVE",
"928 52 OFFCURVE",
"923 75 CURVE",
"873 81 OFFCURVE",
"868 104 OFFCURVE",
"877 201 CURVE SMOOTH",
"885 292 OFFCURVE",
"889 384 OFFCURVE",
"894 475 CURVE SMOOTH"
);
}
);
};
layerId = "B20BA836-AF41-4C81-B953-D076FC766EB4";
paths = (
{
closed = 1;
nodes = (
"374 -9 OFFCURVE",
"398 -9 OFFCURVE",
"428 -3 CURVE",
"532 169 OFFCURVE",
"629 343 OFFCURVE",
"719 519 CURVE",
"699 519 LINE",
"692 416 OFFCURVE",
"687 313 OFFCURVE",
"676 210 CURVE SMOOTH",
"665 105 OFFCURVE",
"657 83 OFFCURVE",
"588 75 CURVE",
"578 49 OFFCURVE",
"574 22 OFFCURVE",
"574 -3 CURVE",
"633 0 OFFCURVE",
"699 0 OFFCURVE",
"751 0 CURVE SMOOTH",
"821 0 OFFCURVE",
"875 0 OFFCURVE",
"924 -3 CURVE",
"928 24 OFFCURVE",
"928 52 OFFCURVE",
"923 75 CURVE",
"873 81 OFFCURVE",
"868 104 OFFCURVE",
"877 201 CURVE SMOOTH",
"885 292 OFFCURVE",
"889 384 OFFCURVE",
"894 475 CURVE SMOOTH",
"899 564 OFFCURVE",
"911 591 OFFCURVE",
"963 601 CURVE",
"971 624 OFFCURVE",
"976 651 OFFCURVE",
"976 679 CURVE",
"927 676 OFFCURVE",
"893 676 OFFCURVE",
"857 676 CURVE SMOOTH",
"829 676 OFFCURVE",
"773 676 OFFCURVE",
"718 679 CURVE",
"636 517 OFFCURVE",
"548 358 OFFCURVE",
"452 200 CURVE",
"501 200 LINE",
"468 363 OFFCURVE",
"427 522 OFFCURVE",
"380 679 CURVE",
"331 676 OFFCURVE",
"276 676 OFFCURVE",
"240 676 CURVE SMOOTH",
"212 676 OFFCURVE",
"142 676 OFFCURVE",
"106 679 CURVE",
"102 652 OFFCURVE",
"102 623 OFFCURVE",
"107 601 CURVE",
"161 594 OFFCURVE",
"167 583 OFFCURVE",
"152 514 CURVE SMOOTH",
"129 411 OFFCURVE",
"107 329 OFFCURVE",
"71 216 CURVE SMOOTH",
"39 116 OFFCURVE",
"21 88 OFFCURVE",
"-21 75 CURVE",
"-31 52 OFFCURVE",
"-36 23 OFFCURVE",
"-36 -3 CURVE",
"-7 0 OFFCURVE",
"42 0 OFFCURVE",
"88 0 CURVE SMOOTH",
"126 0 OFFCURVE",
"164 0 OFFCURVE",
"191 -3 CURVE",
"194 23 OFFCURVE",
"194 51 OFFCURVE",
"190 75 CURVE",
"129 88 OFFCURVE",
"128 118 OFFCURVE",
"154 218 CURVE SMOOTH",
"175 300 OFFCURVE",
"207 423 OFFCURVE",
"228 522 CURVE",
"208 522 LINE",
"263 348 OFFCURVE",
"311 171 OFFCURVE",
"352 -9 CURVE"
);
}
);
width = 975;
},
{
anchors = (
{
name = bottom;
position = "{380, 0}";
},
{
name = bottomright;
position = "{820, 40}";
},
{
name = top;
position = "{506, 676}";
}
);
background = {
anchors = (
{
name = bottom;
position = "{380, 0}";
},
{
name = top;
position = "{506, 676}";
}
);
paths = (
{
closed = 1;
nodes = (
"379 -9 OFFCURVE",
"392 -9 OFFCURVE",
"405 -4 CURVE",
"513 171 OFFCURVE",
"619 357 OFFCURVE",
"716 539 CURVE",
"701 539 LINE",
"696 403 OFFCURVE",
"685 276 OFFCURVE",
"674 160 CURVE SMOOTH",
"666 72 OFFCURVE",
"653 50 OFFCURVE",
"588 40 CURVE",
"583 27 OFFCURVE",
"580 11 OFFCURVE",
"580 -3 CURVE",
"613 0 OFFCURVE",
"652 0 OFFCURVE",
"700 0 CURVE SMOOTH",
"744 0 OFFCURVE",
"792 0 OFFCURVE",
"822 -3 CURVE",
"823 12 OFFCURVE",
"823 27 OFFCURVE",
"820 40 CURVE",
"774 51 OFFCURVE",
"760 64 OFFCURVE",
"770 163 CURVE SMOOTH",
"780 265 OFFCURVE",
"789 388 OFFCURVE",
"797 530 CURVE SMOOTH",
"802 610 OFFCURVE",
"818 630 OFFCURVE",
"870 636 CURVE",
"875 650 OFFCURVE",
"877 664 OFFCURVE",
"877 679 CURVE",
"852 676 OFFCURVE",
"824 676 OFFCURVE",
"804 676 CURVE SMOOTH",
"784 676 OFFCURVE",
"768 676 OFFCURVE",
"739 679 CURVE",
"636 481 OFFCURVE",
"529 288 OFFCURVE",
"416 100 CURVE",
"433 100 LINE",
"387 292 OFFCURVE",
"334 485 OFFCURVE",
"274 679 CURVE",
"249 676 OFFCURVE",
"229 676 OFFCURVE",
"202 676 CURVE SMOOTH",
"179 676 OFFCURVE",
"155 676 OFFCURVE",
"125 679 CURVE",
"123 664 OFFCURVE",
"123 652 OFFCURVE",
"126 636 CURVE",
"179 631 OFFCURVE",
"192 617 OFFCURVE",
"176 546 CURVE SMOOTH",
"148 425 OFFCURVE",
"116 307 OFFCURVE",
"82 190 CURVE SMOOTH",
"49 78 OFFCURVE",
"35 54 OFFCURVE",
"-19 40 CURVE",
"-25 26 OFFCURVE",
"-27 10 OFFCURVE",
"-27 -3 CURVE",
"19 0 OFFCURVE",
"45 0 OFFCURVE",
"76 0 CURVE SMOOTH",
"103 0 OFFCURVE",
"138 0 OFFCURVE",
"179 -3 CURVE",
"180 11 OFFCURVE",
"180 26 OFFCURVE",
"177 40 CURVE",
"111 53 OFFCURVE",
"101 74 OFFCURVE",
"135 198 CURVE SMOOTH",
"160 290 OFFCURVE",
"193 412 OFFCURVE",
"222 535 CURVE",
"213 535 LINE",
"270 353 OFFCURVE",
"321 171 OFFCURVE",
"364 -9 CURVE"
);
}
);
};
layerId = "9785DD90-0D66-4E3E-881E-09053C5F0A8A";
paths = (
{
closed = 1;
nodes = (
"379 -9 OFFCURVE",
"392 -9 OFFCURVE",
"405 -4 CURVE",
"513 171 OFFCURVE",
"619 357 OFFCURVE",
"716 539 CURVE",
"701 539 LINE",
"696 403 OFFCURVE",
"685 276 OFFCURVE",
"674 160 CURVE SMOOTH",
"666 72 OFFCURVE",
"653 50 OFFCURVE",
"588 40 CURVE",
"583 27 OFFCURVE",
"580 11 OFFCURVE",
"580 -3 CURVE",
"613 0 OFFCURVE",
"652 0 OFFCURVE",
"700 0 CURVE SMOOTH",
"744 0 OFFCURVE",
"792 0 OFFCURVE",
"822 -3 CURVE",
"823 12 OFFCURVE",
"823 27 OFFCURVE",
"820 40 CURVE",
"774 51 OFFCURVE",
"760 64 OFFCURVE",
"770 163 CURVE SMOOTH",
"780 265 OFFCURVE",
"789 388 OFFCURVE",
"797 530 CURVE SMOOTH",
"802 610 OFFCURVE",
"818 630 OFFCURVE",
"870 636 CURVE",
"875 650 OFFCURVE",
"877 664 OFFCURVE",
"877 679 CURVE",
"852 676 OFFCURVE",
"824 676 OFFCURVE",
"804 676 CURVE SMOOTH",
"784 676 OFFCURVE",
"768 676 OFFCURVE",
"739 679 CURVE",
"636 481 OFFCURVE",
"529 288 OFFCURVE",
"416 100 CURVE",
"433 100 LINE",
"387 292 OFFCURVE",
"334 485 OFFCURVE",
"274 679 CURVE",
"249 676 OFFCURVE",
"229 676 OFFCURVE",
"202 676 CURVE SMOOTH",
"179 676 OFFCURVE",
"155 676 OFFCURVE",
"125 679 CURVE",
"123 664 OFFCURVE",
"123 652 OFFCURVE",
"126 636 CURVE",
"179 631 OFFCURVE",
"192 617 OFFCURVE",
"176 546 CURVE SMOOTH",
"148 425 OFFCURVE",
"116 307 OFFCURVE",
"82 190 CURVE SMOOTH",
"49 78 OFFCURVE",
"35 54 OFFCURVE",
"-19 40 CURVE",
"-25 26 OFFCURVE",
"-27 10 OFFCURVE",
"-27 -3 CURVE",
"19 0 OFFCURVE",
"45 0 OFFCURVE",
"76 0 CURVE SMOOTH",
"103 0 OFFCURVE",
"138 0 OFFCURVE",
"179 -3 CURVE",
"180 11 OFFCURVE",
"180 26 OFFCURVE",
"177 40 CURVE",
"111 53 OFFCURVE",
"101 74 OFFCURVE",
"135 198 CURVE SMOOTH",
"160 290 OFFCURVE",
"193 412 OFFCURVE",
"222 535 CURVE",
"213 535 LINE",
"270 353 OFFCURVE",
"321 171 OFFCURVE",
"364 -9 CURVE"
);
}
);
width = 883;
}
);
leftKerningGroup = M;
rightKerningGroup = M;
unicode = 004D;
},
{
glyphname = N;
layers = (
{
anchors = (
{
name = bottom;
position = "{357, 0}";
},
{
name = center;
position = "{404, 373}";
},
{
name = top;
position = "{454, 676}";
}
);
background = {
paths = (
{
closed = 1;
nodes = (
"13 55 OFFCURVE",
"7 24 OFFCURVE",
"6 -3 CURVE",
"48 0 OFFCURVE",
"95 0 OFFCURVE",
"133 0 CURVE SMOOTH",
"163 0 OFFCURVE",
"207 0 OFFCURVE",
"252 -3 CURVE",
"255 23 OFFCURVE",
"255 51 OFFCURVE",
"251 75 CURVE",
"180 92 OFFCURVE",
"175 114 OFFCURVE",
"195 218 CURVE SMOOTH",
"220 345 OFFCURVE",
"243 474 OFFCURVE",
"262 607 CURVE",
"189 615 LINE",
"169 480 OFFCURVE",
"145 347 OFFCURVE",
"119 218 CURVE SMOOTH",
"98 114 OFFCURVE",
"79 93 OFFCURVE",
"21 75 CURVE"
);
},
{
closed = 1;
nodes = (
"104 649 OFFCURVE",
"104 625 OFFCURVE",
"109 601 CURVE",
"152 598 OFFCURVE",
"163 593 OFFCURVE",
"175 573 CURVE SMOOTH",
"290 383 OFFCURVE",
"399 189 OFFCURVE",
"500 -9 CURVE",
"580 270 LINE",
"512 408 OFFCURVE",
"433 549 OFFCURVE",
"351 679 CURVE",
"316 676 OFFCURVE",
"272 676 OFFCURVE",
"235 676 CURVE SMOOTH",
"196 676 OFFCURVE",
"149 676 OFFCURVE",
"108 679 CURVE"
);
},
{
closed = 1;
nodes = (
"526 653 OFFCURVE",
"526 625 OFFCURVE",
"530 601 CURVE",
"602 584 OFFCURVE",
"604 563 OFFCURVE",
"592 458 CURVE SMOOTH",
"581 365 OFFCURVE",
"567 266 OFFCURVE",
"548 173 CURVE",
"500 -9 LINE",
"537 -9 OFFCURVE",
"564 -7 OFFCURVE",
"592 1 CURVE",
"624 153 OFFCURVE",
"649 306 OFFCURVE",
"671 458 CURVE SMOOTH",
"686 563 OFFCURVE",
"703 583 OFFCURVE",
"760 601 CURVE",
"768 621 OFFCURVE",
"774 652 OFFCURVE",
"775 679 CURVE",
"733 676 OFFCURVE",
"686 676 OFFCURVE",
"648 676 CURVE SMOOTH",
"618 676 OFFCURVE",
"574 676 OFFCURVE",
"529 679 CURVE"
);
}
);
};
layerId = "B20BA836-AF41-4C81-B953-D076FC766EB4";
paths = (
{
closed = 1;
nodes = (
"13 55 OFFCURVE",
"7 24 OFFCURVE",
"6 -3 CURVE",
"48 0 OFFCURVE",
"95 0 OFFCURVE",
"133 0 CURVE SMOOTH",
"163 0 OFFCURVE",
"207 0 OFFCURVE",
"252 -3 CURVE",
"255 23 OFFCURVE",
"255 51 OFFCURVE",
"251 75 CURVE",
"180 92 OFFCURVE",
"177 114 OFFCURVE",
"195 218 CURVE SMOOTH",
"262 607 LINE",
"189 615 LINE",
"119 218 LINE SMOOTH",
"101 113 OFFCURVE",
"79 93 OFFCURVE",
"21 75 CURVE"
);
},
{
closed = 1;
nodes = (
"104 649 OFFCURVE",
"104 625 OFFCURVE",
"109 601 CURVE",
"152 598 OFFCURVE",
"163 593 OFFCURVE",
"175 573 CURVE SMOOTH",
"290 383 OFFCURVE",
"399 189 OFFCURVE",
"500 -9 CURVE",
"580 270 LINE",
"512 408 OFFCURVE",
"433 549 OFFCURVE",
"351 679 CURVE",
"316 676 OFFCURVE",
"272 676 OFFCURVE",
"235 676 CURVE SMOOTH",
"196 676 OFFCURVE",
"149 676 OFFCURVE",
"108 679 CURVE"
);
},
{
closed = 1;
nodes = (
"526 653 OFFCURVE",
"526 625 OFFCURVE",
"530 601 CURVE",
"602 584 OFFCURVE",
"609 562 OFFCURVE",
"593 458 CURVE SMOOTH",
"558 225 LINE",
"500 -9 LINE",
"537 -9 OFFCURVE",
"564 -7 OFFCURVE",
"592 1 CURVE",
"672 458 LINE SMOOTH",
"690 562 OFFCURVE",
"703 583 OFFCURVE",
"760 601 CURVE",
"768 621 OFFCURVE",
"774 652 OFFCURVE",
"775 679 CURVE",
"733 676 OFFCURVE",
"686 676 OFFCURVE",
"648 676 CURVE SMOOTH",
"618 676 OFFCURVE",
"574 676 OFFCURVE",
"529 679 CURVE"
);
}
);
width = 711.649;
},
{
anchors = (
{
name = bottom;
position = "{337, 0}";
},
{
name = center;
position = "{383, 353}";
},
{
name = top;
position = "{427, 676}";
}
);
background = {
anchors = (
{
name = bottom;
position = "{337, 0}";
},
{
name = center;
position = "{383, 353}";
},
{
name = top;
position = "{427, 676}";
}
);
paths = (
{
closed = 1;
nodes = (
"27 26 OFFCURVE",
"25 13 OFFCURVE",
"24 -3 CURVE",
"68 0 OFFCURVE",
"88 0 OFFCURVE",
"119 0 CURVE SMOOTH",
"146 0 OFFCURVE",
"188 0 OFFCURVE",
"228 -3 CURVE",
"230 14 OFFCURVE",
"230 27 OFFCURVE",
"226 40 CURVE",
"164 51 OFFCURVE",
"153 75 OFFCURVE",
"172 182 CURVE SMOOTH",
"247 610 LINE",
"196 610 LINE",
"119 172 LINE SMOOTH",
"102 76 OFFCURVE",
"81 47 OFFCURVE",
"31 40 CURVE"
);
},
{
closed = 1;
nodes = (
"126 664 OFFCURVE",
"126 649 OFFCURVE",
"130 636 CURVE",
"162 633 OFFCURVE",
"174 629 OFFCURVE",
"188 603 CURVE SMOOTH",
"302 397 OFFCURVE",
"406 201 OFFCURVE",
"510 -9 CURVE",
"548 124 LINE",
"458 306 OFFCURVE",
"357 500 OFFCURVE",
"257 679 CURVE",
"240 677 OFFCURVE",
"215 676 OFFCURVE",
"188 676 CURVE SMOOTH",
"165 676 OFFCURVE",
"148 677 OFFCURVE",
"128 679 CURVE"
);
},
{
closed = 1;
nodes = (
"530 663 OFFCURVE",
"531 649 OFFCURVE",
"533 636 CURVE",
"592 625 OFFCURVE",
"605 604 OFFCURVE",
"587 499 CURVE SMOOTH",
"516 94 LINE",
"510 -9 LINE",
"524 -9 OFFCURVE",
"540 -8 OFFCURVE",
"551 -4 CURVE",
"636 489 LINE SMOOTH",
"654 595 OFFCURVE",
"668 624 OFFCURVE",
"712 636 CURVE",
"717 649 OFFCURVE",
"720 667 OFFCURVE",
"720 679 CURVE",
"693 676 OFFCURVE",
"653 676 OFFCURVE",
"623 676 CURVE SMOOTH",
"597 676 OFFCURVE",
"561 676 OFFCURVE",
"532 679 CURVE"
);
}
);
};
layerId = "9785DD90-0D66-4E3E-881E-09053C5F0A8A";
paths = (
{
closed = 1;
nodes = (
"27 26 OFFCURVE",
"25 13 OFFCURVE",
"24 -3 CURVE",
"68 0 OFFCURVE",
"88 0 OFFCURVE",
"119 0 CURVE SMOOTH",
"146 0 OFFCURVE",
"188 0 OFFCURVE",
"228 -3 CURVE",
"230 14 OFFCURVE",
"230 27 OFFCURVE",
"226 40 CURVE",
"164 51 OFFCURVE",
"153 75 OFFCURVE",
"172 182 CURVE SMOOTH",
"247 610 LINE",
"196 610 LINE",
"119 172 LINE SMOOTH",
"102 76 OFFCURVE",
"81 47 OFFCURVE",
"31 40 CURVE"
);
},
{
closed = 1;
nodes = (
"126 664 OFFCURVE",
"126 649 OFFCURVE",
"130 636 CURVE",
"162 633 OFFCURVE",
"174 629 OFFCURVE",
"188 603 CURVE SMOOTH",
"302 397 OFFCURVE",
"406 201 OFFCURVE",
"510 -9 CURVE",
"548 124 LINE",
"458 306 OFFCURVE",
"357 500 OFFCURVE",
"257 679 CURVE",
"240 677 OFFCURVE",
"215 676 OFFCURVE",
"188 676 CURVE SMOOTH",
"165 676 OFFCURVE",
"148 677 OFFCURVE",
"128 679 CURVE"
);
},
{
closed = 1;
nodes = (
"530 663 OFFCURVE",
"531 649 OFFCURVE",
"533 636 CURVE",
"592 625 OFFCURVE",
"605 604 OFFCURVE",
"587 499 CURVE SMOOTH",
"516 94 LINE",
"510 -9 LINE",
"524 -9 OFFCURVE",
"540 -8 OFFCURVE",
"551 -4 CURVE",
"636 489 LINE SMOOTH",
"654 595 OFFCURVE",
"668 624 OFFCURVE",
"712 636 CURVE",
"717 649 OFFCURVE",
"720 667 OFFCURVE",
"720 679 CURVE",
"693 676 OFFCURVE",
"653 676 OFFCURVE",
"623 676 CURVE SMOOTH",
"597 676 OFFCURVE",
"561 676 OFFCURVE",
"532 679 CURVE"
);
}
);
width = 675.428;
}
);
leftKerningGroup = H;
leftMetricsKey = H;
rightKerningGroup = H;
rightMetricsKey = H;
unicode = 004E;
},
{
glyphname = Eng;
layers = (
{
background = {
paths = (
{
closed = 1;
nodes = (
"421 -249 OFFCURVE",
"511 -78 OFFCURVE",
"540 49 CURVE SMOOTH",
"622 405 LINE SMOOTH",
"676 640 OFFCURVE",
"572 682 OFFCURVE",
"520 682 CURVE SMOOTH",
"423 682 OFFCURVE",
"288 539 OFFCURVE",
"247 454 CURVE SMOOTH",
"192 340 LINE",
"211 217 LINE",
"247 434 OFFCURVE",
"393 601 OFFCURVE",
"487 601 CURVE SMOOTH",
"540 601 OFFCURVE",
"555 548 OFFCURVE",
"525 407 CURVE SMOOTH",
"445 29 LINE SMOOTH",
"419 -96 OFFCURVE",
"399 -159 OFFCURVE",
"295 -159 CURVE SMOOTH",
"282 -159 OFFCURVE",
"261 -158 OFFCURVE",
"239 -150 CURVE",
"228 -171 OFFCURVE",
"224 -191 OFFCURVE",
"225 -218 CURVE",
"239 -236 OFFCURVE",
"263 -249 OFFCURVE",
"297 -249 CURVE SMOOTH"
);
},
{
closed = 1;
nodes = (
"168 0 LINE",
"211 217 LINE",
"223 406 LINE",
"229 420 OFFCURVE",
"267 512 OFFCURVE",
"281 611 CURVE SMOOTH",
"288 658 OFFCURVE",
"283 675 OFFCURVE",
"260 684 CURVE",
"231 669 OFFCURVE",
"156 646 OFFCURVE",
"124 643 CURVE",
"118 633 OFFCURVE",
"118 619 OFFCURVE",
"118 605 CURVE",
"182 605 OFFCURVE",
"186 601 OFFCURVE",
"168 507 CURVE SMOOTH",
"73 0 LINE"
);
}
);
};
layerId = "9785DD90-0D66-4E3E-881E-09053C5F0A8A";
paths = (
{
closed = 1;
nodes = (
"421 -249 OFFCURVE",
"511 -78 OFFCURVE",
"540 49 CURVE SMOOTH",
"622 405 LINE SMOOTH",
"676 640 OFFCURVE",
"572 682 OFFCURVE",
"520 682 CURVE SMOOTH",
"423 682 OFFCURVE",
"288 539 OFFCURVE",
"247 454 CURVE SMOOTH",
"192 340 LINE",
"211 217 LINE",
"247 434 OFFCURVE",
"393 601 OFFCURVE",
"487 601 CURVE SMOOTH",
"540 601 OFFCURVE",
"555 548 OFFCURVE",
"525 407 CURVE SMOOTH",
"445 29 LINE SMOOTH",
"419 -96 OFFCURVE",
"399 -159 OFFCURVE",
"295 -159 CURVE SMOOTH",
"282 -159 OFFCURVE",
"261 -158 OFFCURVE",
"239 -150 CURVE",
"228 -171 OFFCURVE",
"224 -191 OFFCURVE",
"225 -218 CURVE",
"239 -236 OFFCURVE",
"263 -249 OFFCURVE",
"297 -249 CURVE SMOOTH"
);
},
{
closed = 1;
nodes = (
"168 0 LINE",
"211 217 LINE",
"223 406 LINE",
"229 420 OFFCURVE",
"267 512 OFFCURVE",
"281 611 CURVE SMOOTH",
"288 658 OFFCURVE",
"283 675 OFFCURVE",
"260 684 CURVE",
"231 669 OFFCURVE",
"156 646 OFFCURVE",
"124 643 CURVE",
"118 633 OFFCURVE",
"118 619 OFFCURVE",
"118 605 CURVE",
"182 605 OFFCURVE",
"186 601 OFFCURVE",
"168 507 CURVE SMOOTH",
"73 0 LINE"
);
}
);
width = 629;
},
{
background = {
paths = (
{
closed = 1;
nodes = (
"667 -9 OFFCURVE",
"732 15 OFFCURVE",
"796 85 CURVE",
"793 110 OFFCURVE",
"778 137 OFFCURVE",
"763 153 CURVE",
"734 127 OFFCURVE",
"720 119 OFFCURVE",
"705 119 CURVE SMOOTH",
"689 119 OFFCURVE",
"685 127 OFFCURVE",
"711 247 CURVE SMOOTH",
"743 397 LINE SMOOTH",
"790 616 OFFCURVE",
"723 682 OFFCURVE",
"636 682 CURVE SMOOTH",
"521 682 OFFCURVE",
"411 566 OFFCURVE",
"359 454 CURVE SMOOTH",
"301 329 LINE",
"300 138 LINE",
"348 387 OFFCURVE",
"450 528 OFFCURVE",
"510 528 CURVE SMOOTH",
"542 528 OFFCURVE",
"553 486 OFFCURVE",
"530 374 CURVE SMOOTH",
"502 238 LINE SMOOTH",
"471 90 OFFCURVE",
"473 -9 OFFCURVE",
"603 -9 CURVE SMOOTH"
);
},
{
closed = 1;
nodes = (
"277 0 LINE",
"300 138 LINE",
"336 406 LINE",
"364 465 OFFCURVE",
"383 541 OFFCURVE",
"389 587 CURVE SMOOTH",
"395 633 OFFCURVE",
"391 663 OFFCURVE",
"355 682 CURVE",
"286 653 OFFCURVE",
"184 626 OFFCURVE",
"101 622 CURVE",
"91 600 OFFCURVE",
"87 570 OFFCURVE",
"86 543 CURVE",
"169 543 OFFCURVE",
"172 528 OFFCURVE",
"150 406 CURVE SMOOTH",
"76 0 LINE"
);
},
{
closed = 1;
nodes = (
"480 -249 OFFCURVE",
"645 -99 OFFCURVE",
"687 126 CURVE SMOOTH",
"717 287 LINE",
"527 287 LINE",
"482 44 LINE SMOOTH",
"462 -65 OFFCURVE",
"446 -106 OFFCURVE",
"374 -106 CURVE SMOOTH",
"346 -106 OFFCURVE",
"294 -100 OFFCURVE",
"273 -83 CURVE",
"257 -114 OFFCURVE",
"242 -156 OFFCURVE",
"241 -184 CURVE",
"262 -220 OFFCURVE",
"302 -249 OFFCURVE",
"356 -249 CURVE SMOOTH"
);
}
);
};
layerId = "B20BA836-AF41-4C81-B953-D076FC766EB4";
paths = (
{
closed = 1;
nodes = (
"480 -249 OFFCURVE",
"643 -98 OFFCURVE",
"688 126 CURVE SMOOTH",
"743 397 LINE SMOOTH",
"787 616 OFFCURVE",
"723 682 OFFCURVE",
"636 682 CURVE SMOOTH",
"521 682 OFFCURVE",
"411 566 OFFCURVE",
"359 454 CURVE SMOOTH",
"301 329 LINE",
"300 138 LINE",
"348 387 OFFCURVE",
"450 528 OFFCURVE",
"510 528 CURVE SMOOTH",
"542 528 OFFCURVE",
"552 486 OFFCURVE",
"530 374 CURVE SMOOTH",
"464 43 LINE SMOOTH",
"442 -65 OFFCURVE",
"432 -106 OFFCURVE",
"371 -106 CURVE SMOOTH",
"347 -106 OFFCURVE",
"294 -100 OFFCURVE",
"273 -83 CURVE",
"257 -114 OFFCURVE",
"242 -156 OFFCURVE",
"241 -184 CURVE",
"262 -220 OFFCURVE",
"302 -249 OFFCURVE",
"356 -249 CURVE SMOOTH"
);
},
{
closed = 1;
nodes = (
"277 0 LINE",
"300 138 LINE",
"336 406 LINE",
"364 465 OFFCURVE",
"383 541 OFFCURVE",
"389 587 CURVE SMOOTH",
"395 633 OFFCURVE",
"391 663 OFFCURVE",
"355 682 CURVE",
"286 653 OFFCURVE",
"184 626 OFFCURVE",
"101 622 CURVE",
"91 600 OFFCURVE",
"87 570 OFFCURVE",
"86 543 CURVE",
"169 543 OFFCURVE",
"172 528 OFFCURVE",
"150 406 CURVE SMOOTH",
"76 0 LINE"
);
}
);
width = 731;
}
);
leftKerningGroup = H;
leftMetricsKey = "=H";
rightKerningGroup = J;
rightMetricsKey = "=H";
unicode = 014A;
},
{
glyphname = Nhookleft;
layers = (
{
anchors = (
{
name = bottom;
position = "{326, 0}";
},
{
name = top;
position = "{458, 676}";
}
);
background = {
anchors = (
{
name = bottom;
position = "{326, 0}";
},
{
name = top;
position = "{458, 676}";
}
);
paths = (
{
closed = 1;
nodes = (
"581 150 LINE",
"284 679 LINE",
"266 677 OFFCURVE",
"242 676 OFFCURVE",
"217 676 CURVE SMOOTH",
"192 676 OFFCURVE",
"163 677 OFFCURVE",
"143 679 CURVE",
"141 668 OFFCURVE",
"139 650 OFFCURVE",
"140 636 CURVE",
"173 633 OFFCURVE",
"185 629 OFFCURVE",
"199 605 CURVE SMOOTH",
"550 -9 LINE"
);
},
{
closed = 1;
nodes = (
"30 -249 OFFCURVE",
"115 -112 OFFCURVE",
"144 40 CURVE SMOOTH",
"255 610 LINE",
"204 610 LINE",
"92 36 LINE SMOOTH",
"66 -100 OFFCURVE",
"6 -159 OFFCURVE",
"-83 -159 CURVE SMOOTH",
"-99 -159 OFFCURVE",
"-121 -157 OFFCURVE",
"-143 -153 CURVE",
"-151 -170 OFFCURVE",
"-160 -206 OFFCURVE",
"-158 -226 CURVE",
"-147 -236 OFFCURVE",
"-127 -249 OFFCURVE",
"-90 -249 CURVE SMOOTH"
);
},
{
closed = 1;
nodes = (
"564 -9 OFFCURVE",
"580 -8 OFFCURVE",
"592 -4 CURVE",
"689 494 LINE SMOOTH",
"710 603 OFFCURVE",
"731 636 OFFCURVE",
"775 636 CURVE",
"782 650 OFFCURVE",
"786 666 OFFCURVE",
"788 679 CURVE",
"761 677 OFFCURVE",
"721 676 OFFCURVE",
"693 676 CURVE SMOOTH",
"665 676 OFFCURVE",
"628 677 OFFCURVE",
"599 679 CURVE",
"597 667 OFFCURVE",
"597 659 OFFCURVE",
"596 636 CURVE",
"650 636 OFFCURVE",
"659 603 OFFCURVE",
"638 494 CURVE SMOOTH",
"560 94 LINE",
"550 -9 LINE"
);
}
);
};
layerId = "9785DD90-0D66-4E3E-881E-09053C5F0A8A";
paths = (
{
closed = 1;
nodes = (
"581 150 LINE",
"284 679 LINE",
"266 677 OFFCURVE",
"242 676 OFFCURVE",
"217 676 CURVE SMOOTH",
"192 676 OFFCURVE",
"163 677 OFFCURVE",
"143 679 CURVE",
"141 668 OFFCURVE",
"139 650 OFFCURVE",
"140 636 CURVE",
"173 633 OFFCURVE",
"185 629 OFFCURVE",
"199 605 CURVE SMOOTH",
"550 -9 LINE"
);
},
{
closed = 1;
nodes = (
"30 -249 OFFCURVE",
"115 -112 OFFCURVE",
"144 40 CURVE SMOOTH",
"255 610 LINE",
"204 610 LINE",
"92 36 LINE SMOOTH",
"66 -100 OFFCURVE",
"6 -159 OFFCURVE",
"-83 -159 CURVE SMOOTH",
"-99 -159 OFFCURVE",
"-121 -157 OFFCURVE",
"-143 -153 CURVE",
"-151 -170 OFFCURVE",
"-160 -206 OFFCURVE",
"-158 -226 CURVE",
"-147 -236 OFFCURVE",
"-127 -249 OFFCURVE",
"-90 -249 CURVE SMOOTH"
);
},
{
closed = 1;
nodes = (
"564 -9 OFFCURVE",
"580 -8 OFFCURVE",
"592 -4 CURVE",
"689 494 LINE SMOOTH",
"710 603 OFFCURVE",
"731 636 OFFCURVE",
"775 636 CURVE",
"782 650 OFFCURVE",
"786 666 OFFCURVE",
"788 679 CURVE",
"761 677 OFFCURVE",
"721 676 OFFCURVE",
"693 676 CURVE SMOOTH",
"665 676 OFFCURVE",
"628 677 OFFCURVE",
"599 679 CURVE",
"597 667 OFFCURVE",
"597 659 OFFCURVE",
"596 636 CURVE",
"650 636 OFFCURVE",
"659 603 OFFCURVE",
"638 494 CURVE SMOOTH",
"560 94 LINE",
"550 -9 LINE"
);
}
);
width = 742;
},
{
anchors = (
{
name = bottom;
position = "{311, 0}";
},
{
name = top;
position = "{443, 676}";
}
);
background = {
paths = (
{
closed = 1;
nodes = (
"553 277 LINE",
"261 679 LINE",
"234 676 OFFCURVE",
"181 676 OFFCURVE",
"148 676 CURVE SMOOTH",
"115 676 OFFCURVE",
"41 677 OFFCURVE",
"15 679 CURVE",
"15 649 OFFCURVE",
"17 623 OFFCURVE",
"23 601 CURVE",
"66 597 OFFCURVE",
"79 591 OFFCURVE",
"90 573 CURVE SMOOTH",
"520 -9 LINE"
);
},
{
closed = 1;
nodes = (
"39 -1 OFFCURVE",
"110 0 OFFCURVE",
"144 0 CURVE SMOOTH",
"178 0 OFFCURVE",
"237 -1 OFFCURVE",
"265 -3 CURVE",
"265 24 OFFCURVE",
"264 53 OFFCURVE",
"258 75 CURVE",
"179 218 LINE",
"179 607 LINE",
"104 615 LINE",
"104 218 LINE",
"23 75 LINE",
"16 53 OFFCURVE",
"15 29 OFFCURVE",
"15 -3 CURVE"
);
},
{
closed = 1;
nodes = (
"557 -9 OFFCURVE",
"584 -8 OFFCURVE",
"611 0 CURVE",
"611 458 LINE SMOOTH",
"611 575 OFFCURVE",
"622 594 OFFCURVE",
"674 601 CURVE",
"681 627 OFFCURVE",
"681 652 OFFCURVE",
"681 679 CURVE",
"657 677 OFFCURVE",
"609 676 OFFCURVE",
"575 676 CURVE SMOOTH",
"541 676 OFFCURVE",
"472 677 OFFCURVE",
"444 679 CURVE",
"444 656 OFFCURVE",
"445 624 OFFCURVE",
"451 601 CURVE",
"523 593 OFFCURVE",
"536 572 OFFCURVE",
"536 458 CURVE SMOOTH",
"536 180 LINE",
"520 -9 LINE"
);
},
{
closed = 1;
nodes = (
"86 -249 OFFCURVE",
"224 -90 OFFCURVE",
"224 133 CURVE SMOOTH",
"224 287 LINE",
"34 287 LINE",
"34 37 LINE SMOOTH",
"34 -56 OFFCURVE",
"30 -106 OFFCURVE",
"-32 -106 CURVE SMOOTH",
"-82 -106 OFFCURVE",
"-125 -96 OFFCURVE",
"-148 -87 CURVE",
"-161 -121 OFFCURVE",
"-165 -169 OFFCURVE",
"-161 -195 CURVE",
"-140 -226 OFFCURVE",
"-91 -249 OFFCURVE",
"-47 -249 CURVE SMOOTH"
);
}
);
};
layerId = "B20BA836-AF41-4C81-B953-D076FC766EB4";
paths = (
{
closed = 1;
nodes = (
"562 277 LINE",
"348 679 LINE",
"321 676 OFFCURVE",
"268 676 OFFCURVE",
"235 676 CURVE SMOOTH",
"202 676 OFFCURVE",
"128 677 OFFCURVE",
"102 679 CURVE",
"97 649 OFFCURVE",
"94 623 OFFCURVE",
"95 601 CURVE",
"138 597 OFFCURVE",
"149 591 OFFCURVE",
"157 573 CURVE SMOOTH",
"474 -9 LINE"
);
},
{
closed = 1;
nodes = (
"-15 -249 OFFCURVE",
"107 -143 OFFCURVE",
"153 93 CURVE SMOOTH",
"252 607 LINE",
"179 615 LINE",
"74 77 LINE SMOOTH",
"50 -51 OFFCURVE",
"-4 -106 OFFCURVE",
"-102 -106 CURVE SMOOTH",
"-144 -106 OFFCURVE",
"-188 -96 OFFCURVE",
"-209 -87 CURVE",
"-229 -121 OFFCURVE",
"-242 -169 OFFCURVE",
"-243 -195 CURVE",
"-229 -223 OFFCURVE",
"-193 -249 OFFCURVE",
"-134 -249 CURVE SMOOTH"
);
},
{
closed = 1;
nodes = (
"511 -9 OFFCURVE",
"538 -8 OFFCURVE",
"566 0 CURVE",
"656 458 LINE SMOOTH",
"678 575 OFFCURVE",
"693 594 OFFCURVE",
"746 601 CURVE",
"758 627 OFFCURVE",
"763 652 OFFCURVE",
"768 679 CURVE",
"744 677 OFFCURVE",
"696 676 OFFCURVE",
"662 676 CURVE SMOOTH",
"628 676 OFFCURVE",
"559 677 OFFCURVE",
"531 679 CURVE",
"527 656 OFFCURVE",
"522 624 OFFCURVE",
"523 601 CURVE",
"594 593 OFFCURVE",
"603 572 OFFCURVE",
"581 458 CURVE SMOOTH",
"526 180 LINE",
"474 -9 LINE"
);
}
);
width = 702;
}
);
leftKerningGroup = H;
rightKerningGroup = N;
rightMetricsKey = "=N";
unicode = 019D;
},
{
glyphname = O;
layers = (
{
anchors = (
{
name = bottom;
position = "{346, 0}";
},
{
name = center;
position = "{392, 340}";
},
{
name = ogonek;
position = "{501, 23}";
},
{
name = top;
position = "{453, 676}";
},
{
name = topleft;
position = "{117, 676}";
},
{
name = topright;
position = "{712, 676}";
}
);
layerId = "B20BA836-AF41-4C81-B953-D076FC766EB4";
paths = (
{
closed = 1;
nodes = (
"546 -9 OFFCURVE",
"698 129 OFFCURVE",
"737 334 CURVE SMOOTH",
"777 545 OFFCURVE",
"657 685 OFFCURVE",
"444 685 CURVE SMOOTH",
"246 685 OFFCURVE",
"90 564 OFFCURVE",
"49 351 CURVE SMOOTH",
"9 142 OFFCURVE",
"119 -9 OFFCURVE",
"339 -9 CURVE SMOOTH"
);
},
{
closed = 1;
nodes = (
"246 69 OFFCURVE",
"223 195 OFFCURVE",
"254 355 CURVE SMOOTH",
"284 512 OFFCURVE",
"349 610 OFFCURVE",
"434 610 CURVE SMOOTH",
"526 610 OFFCURVE",
"561 496 OFFCURVE",
"535 353 CURVE SMOOTH",
"504 182 OFFCURVE",
"435 69 OFFCURVE",
"348 69 CURVE SMOOTH"
);
}
);
width = 742;
},
{
anchors = (
{
name = bottom;
position = "{347, 0}";
},
{
name = center;
position = "{397, 326}";
},
{
name = ogonek;
position = "{505, 25}";
},
{
name = top;
position = "{442, 676}";
},
{
name = topleft;
position = "{117, 676}";
},
{
name = topright;
position = "{677, 676}";
}
);
background = {
anchors = (
{
name = bottom;
position = "{347, 0}";
},
{
name = center;
position = "{397, 326}";
},
{
name = ogonek;
position = "{505, 25}";
},
{
name = top;
position = "{432, 676}";
},
{
name = topleft;
position = "{117, 676}";
},
{
name = topright;
position = "{677, 676}";
}
);
paths = (
{
closed = 1;
nodes = (
"539 -9 OFFCURVE",
"682 128 OFFCURVE",
"714 296 CURVE SMOOTH",
"763 548 OFFCURVE",
"629 685 OFFCURVE",
"436 685 CURVE SMOOTH",
"253 685 OFFCURVE",
"102 549 OFFCURVE",
"69 375 CURVE SMOOTH",
"25 146 OFFCURVE",
"147 -9 OFFCURVE",
"347 -9 CURVE SMOOTH"
);
},
{
closed = 1;
nodes = (
"208 35 OFFCURVE",
"137 193 OFFCURVE",
"173 382 CURVE SMOOTH",
"200 524 OFFCURVE",
"297 641 OFFCURVE",
"417 641 CURVE SMOOTH",
"558 641 OFFCURVE",
"649 497 OFFCURVE",
"612 294 CURVE SMOOTH",
"585 146 OFFCURVE",
"497 35 OFFCURVE",
"365 35 CURVE SMOOTH"
);
}
);
};
layerId = "9785DD90-0D66-4E3E-881E-09053C5F0A8A";
paths = (
{
closed = 1;
nodes = (
"539 -9 OFFCURVE",
"682 128 OFFCURVE",
"714 296 CURVE SMOOTH",
"763 548 OFFCURVE",
"629 685 OFFCURVE",
"436 685 CURVE SMOOTH",
"253 685 OFFCURVE",
"102 549 OFFCURVE",
"69 375 CURVE SMOOTH",
"25 146 OFFCURVE",
"147 -9 OFFCURVE",
"347 -9 CURVE SMOOTH"
);
},
{
closed = 1;
nodes = (
"208 35 OFFCURVE",
"137 193 OFFCURVE",
"173 382 CURVE SMOOTH",
"200 524 OFFCURVE",
"297 641 OFFCURVE",
"417 641 CURVE SMOOTH",
"558 641 OFFCURVE",
"649 497 OFFCURVE",
"612 294 CURVE SMOOTH",
"585 146 OFFCURVE",
"497 35 OFFCURVE",
"365 35 CURVE SMOOTH"
);
}
);
width = 741;
}
);
leftKerningGroup = O;
rightKerningGroup = O;
unicode = 004F;
},
{
glyphname = Oslash;
layers = (
{
anchors = (
{
name = top;
position = "{441, 676}";
}
);
background = {
paths = (
{
closed = 1;
nodes = (
"246 685 OFFCURVE",
"90 564 OFFCURVE",
"49 351 CURVE SMOOTH",
"9 142 OFFCURVE",
"119 -9 OFFCURVE",
"339 -9 CURVE SMOOTH",
"546 -9 OFFCURVE",
"698 129 OFFCURVE",
"737 334 CURVE SMOOTH",
"777 545 OFFCURVE",
"657 685 OFFCURVE",
"444 685 CURVE SMOOTH"
);
},
{
closed = 1;
nodes = (
"526 610 OFFCURVE",
"561 496 OFFCURVE",
"535 353 CURVE SMOOTH",
"504 182 OFFCURVE",
"435 69 OFFCURVE",
"348 69 CURVE SMOOTH",
"246 69 OFFCURVE",
"223 195 OFFCURVE",
"254 355 CURVE SMOOTH",
"284 512 OFFCURVE",
"349 610 OFFCURVE",
"434 610 CURVE SMOOTH"
);
},
{
closed = 1;
nodes = (
"43 35 LINE",
"53 8 OFFCURVE",
"89 -9 OFFCURVE",
"124 -9 CURVE",
"333 232 OFFCURVE",
"507 422 OFFCURVE",
"743 648 CURVE",
"728 673 OFFCURVE",
"701 685 OFFCURVE",
"660 685 CURVE"
);
}
);
};
components = (
{
name = O;
},
{
name = _part.Oslash;
}
);
layerId = "B20BA836-AF41-4C81-B953-D076FC766EB4";
width = 742;
},
{
anchors = (
{
name = top;
position = "{441, 676}";
}
);
background = {
anchors = (
{
name = top;
position = "{441, 676}";
}
);
components = (
{
name = O;
},
{
name = _part.Oslash;
}
);
};
components = (
{
name = O;
},
{
name = _part.Oslash;
}
);
layerId = "9785DD90-0D66-4E3E-881E-09053C5F0A8A";
width = 741;
}
);
leftKerningGroup = O;
leftMetricsKey = O;
rightKerningGroup = O;
rightMetricsKey = O;
unicode = 00D8;
},
{
glyphname = OE;
layers = (
{
anchors = (
{
name = top;
position = "{572, 676}";
}
);
background = {
anchors = (
{
name = top;
position = "{572, 676}";
}
);
paths = (
{
closed = 1;
nodes = (
"256 685 OFFCURVE",
"110 562 OFFCURVE",
"69 375 CURVE SMOOTH",
"26 177 OFFCURVE",
"122 -9 OFFCURVE",
"349 -9 CURVE SMOOTH",
"542 -9 OFFCURVE",
"651 126 OFFCURVE",
"690 296 CURVE SMOOTH",
"744 531 OFFCURVE",
"630 685 OFFCURVE",
"433 685 CURVE SMOOTH"
);
},
{
closed = 1;
nodes = (
"553 641 OFFCURVE",
"631 501 OFFCURVE",
"594 294 CURVE SMOOTH",
"567 146 OFFCURVE",
"494 35 OFFCURVE",
"363 35 CURVE SMOOTH",
"202 35 OFFCURVE",
"136 204 OFFCURVE",
"173 382 CURVE SMOOTH",
"202 523 OFFCURVE",
"290 641 OFFCURVE",
"416 641 CURVE SMOOTH"
);
},
{
closed = 1;
nodes = (
"859 91 OFFCURVE",
"831 45 OFFCURVE",
"708 45 CURVE SMOOTH",
"508 45 LINE",
"340 -9 LINE",
"472 -9 OFFCURVE",
"553 0 OFFCURVE",
"668 0 CURVE SMOOTH",
"772 0 OFFCURVE",
"832 0 OFFCURVE",
"891 -3 CURVE",
"903 55 OFFCURVE",
"922 106 OFFCURVE",
"931 153 CURVE SMOOTH",
"933 163 OFFCURVE",
"918 169 OFFCURVE",
"900 172 CURVE"
);
},
{
closed = 1;
nodes = (
"876 450 OFFCURVE",
"863 449 OFFCURVE",
"846 446 CURVE",
"835 380 OFFCURVE",
"802 364 OFFCURVE",
"720 364 CURVE SMOOTH",
"670 364 LINE",
"662 319 LINE",
"716 319 LINE SMOOTH",
"798 319 OFFCURVE",
"820 301 OFFCURVE",
"815 234 CURVE",
"827 226 OFFCURVE",
"842 223 OFFCURVE",
"861 221 CURVE",
"863 254 OFFCURVE",
"865 280 OFFCURVE",
"873 336 CURVE SMOOTH",
"880 389 OFFCURVE",
"887 418 OFFCURVE",
"894 447 CURVE"
);
},
{
closed = 1;
nodes = (
"558 631 LINE",
"786 631 LINE SMOOTH",
"915 631 OFFCURVE",
"925 595 OFFCURVE",
"928 509 CURVE",
"949 508 OFFCURVE",
"967 511 OFFCURVE",
"978 516 CURVE",
"975 563 OFFCURVE",
"979 629 OFFCURVE",
"985 679 CURVE",
"902 676 OFFCURVE",
"809 676 OFFCURVE",
"702 676 CURVE SMOOTH",
"565 676 OFFCURVE",
"523 685 OFFCURVE",
"429 685 CURVE"
);
}
);
};
layerId = "9785DD90-0D66-4E3E-881E-09053C5F0A8A";
paths = (
{
closed = 1;
nodes = (
"256 685 OFFCURVE",
"110 562 OFFCURVE",
"69 375 CURVE SMOOTH",
"26 177 OFFCURVE",
"122 -9 OFFCURVE",
"349 -9 CURVE SMOOTH",
"542 -9 OFFCURVE",
"651 126 OFFCURVE",
"690 296 CURVE SMOOTH",
"744 531 OFFCURVE",
"630 685 OFFCURVE",
"433 685 CURVE SMOOTH"
);
},
{
closed = 1;
nodes = (
"553 641 OFFCURVE",
"631 501 OFFCURVE",
"594 294 CURVE SMOOTH",
"567 146 OFFCURVE",
"494 35 OFFCURVE",
"363 35 CURVE SMOOTH",
"202 35 OFFCURVE",
"136 204 OFFCURVE",
"173 382 CURVE SMOOTH",
"202 523 OFFCURVE",
"290 641 OFFCURVE",
"416 641 CURVE SMOOTH"
);
},
{
closed = 1;
nodes = (
"859 91 OFFCURVE",
"831 45 OFFCURVE",
"708 45 CURVE SMOOTH",
"508 45 LINE",
"340 -9 LINE",
"472 -9 OFFCURVE",
"553 0 OFFCURVE",
"668 0 CURVE SMOOTH",
"772 0 OFFCURVE",
"832 0 OFFCURVE",
"891 -3 CURVE",
"903 55 OFFCURVE",
"922 106 OFFCURVE",
"931 153 CURVE SMOOTH",
"933 163 OFFCURVE",
"918 169 OFFCURVE",
"900 172 CURVE"
);
},
{
closed = 1;
nodes = (
"876 450 OFFCURVE",
"863 449 OFFCURVE",
"846 446 CURVE",
"835 380 OFFCURVE",
"802 364 OFFCURVE",
"720 364 CURVE SMOOTH",
"670 364 LINE",
"662 319 LINE",
"716 319 LINE SMOOTH",
"798 319 OFFCURVE",
"820 301 OFFCURVE",
"815 234 CURVE",
"827 226 OFFCURVE",
"842 223 OFFCURVE",
"861 221 CURVE",
"863 254 OFFCURVE",
"865 280 OFFCURVE",
"873 336 CURVE SMOOTH",
"880 389 OFFCURVE",
"887 418 OFFCURVE",
"894 447 CURVE"
);
},
{
closed = 1;
nodes = (
"558 631 LINE",
"786 631 LINE SMOOTH",
"915 631 OFFCURVE",
"925 595 OFFCURVE",
"928 509 CURVE",
"949 508 OFFCURVE",
"967 511 OFFCURVE",
"978 516 CURVE",
"975 563 OFFCURVE",
"979 629 OFFCURVE",
"985 679 CURVE",
"902 676 OFFCURVE",
"809 676 OFFCURVE",
"702 676 CURVE SMOOTH",
"565 676 OFFCURVE",
"523 685 OFFCURVE",
"429 685 CURVE"
);
}
);
width = 972;
},
{
anchors = (
{
name = top;
position = "{602, 676}";
}
);
background = {
paths = (
{
closed = 1;
nodes = (
"246 685 OFFCURVE",
"90 564 OFFCURVE",
"49 351 CURVE SMOOTH",
"9 142 OFFCURVE",
"119 -9 OFFCURVE",
"339 -9 CURVE SMOOTH",
"546 -9 OFFCURVE",
"698 129 OFFCURVE",
"737 334 CURVE SMOOTH",
"777 545 OFFCURVE",
"657 685 OFFCURVE",
"444 685 CURVE SMOOTH"
);
},
{
closed = 1;
nodes = (
"526 610 OFFCURVE",
"561 496 OFFCURVE",
"535 353 CURVE SMOOTH",
"504 182 OFFCURVE",
"435 69 OFFCURVE",
"348 69 CURVE SMOOTH",
"246 69 OFFCURVE",
"223 195 OFFCURVE",
"254 355 CURVE SMOOTH",
"284 512 OFFCURVE",
"349 610 OFFCURVE",
"434 610 CURVE SMOOTH"
);
},
{
closed = 1;
nodes = (
"827 393 OFFCURVE",
"809 382 OFFCURVE",
"749 382 CURVE SMOOTH",
"691 382 LINE",
"678 307 LINE",
"739 307 LINE SMOOTH",
"798 307 OFFCURVE",
"805 269 OFFCURVE",
"805 230 CURVE",
"831 220 OFFCURVE",
"859 216 OFFCURVE",
"891 215 CURVE",
"892 249 OFFCURVE",
"896 289 OFFCURVE",
"901 325 CURVE SMOOTH",
"908 375 OFFCURVE",
"916 417 OFFCURVE",
"925 454 CURVE",
"893 457 OFFCURVE",
"862 455 OFFCURVE",
"834 449 CURVE"
);
},
{
closed = 1;
nodes = (
"1007 677 OFFCURVE",
"932 676 OFFCURVE",
"812 676 CURVE SMOOTH",
"664 676 OFFCURVE",
"607 685 OFFCURVE",
"444 685 CURVE",
"638 601 LINE",
"836 601 LINE SMOOTH",
"935 601 OFFCURVE",
"952 555 OFFCURVE",
"957 485 CURVE",
"991 485 OFFCURVE",
"1024 489 OFFCURVE",
"1055 497 CURVE",
"1050 557 OFFCURVE",
"1055 624 OFFCURVE",
"1064 679 CURVE"
);
},
{
closed = 1;
nodes = (
"894 111 OFFCURVE",
"851 75 OFFCURVE",
"783 75 CURVE SMOOTH",
"469 75 LINE",
"339 -9 LINE",
"505 -9 OFFCURVE",
"590 0 OFFCURVE",
"716 0 CURVE SMOOTH",
"801 0 OFFCURVE",
"921 0 OFFCURVE",
"981 -3 CURVE",
"989 63 OFFCURVE",
"1008 133 OFFCURVE",
"1024 180 CURVE",
"995 202 OFFCURVE",
"968 212 OFFCURVE",
"927 218 CURVE"
);
}
);
};
layerId = "B20BA836-AF41-4C81-B953-D076FC766EB4";
paths = (
{
closed = 1;
nodes = (
"248 685 OFFCURVE",
"88 564 OFFCURVE",
"49 351 CURVE SMOOTH",
"11 143 OFFCURVE",
"117 -9 OFFCURVE",
"336 -9 CURVE SMOOTH",
"550 -9 OFFCURVE",
"684 136 OFFCURVE",
"719 334 CURVE SMOOTH",
"757 549 OFFCURVE",
"656 685 OFFCURVE",
"446 685 CURVE SMOOTH"
);
},
{
closed = 1;
nodes = (
"525 610 OFFCURVE",
"552 507 OFFCURVE",
"528 353 CURVE SMOOTH",
"501 182 OFFCURVE",
"432 69 OFFCURVE",
"343 69 CURVE SMOOTH",
"250 69 OFFCURVE",
"223 190 OFFCURVE",
"254 355 CURVE SMOOTH",
"284 512 OFFCURVE",
"348 610 OFFCURVE",
"435 610 CURVE SMOOTH"
);
},
{
closed = 1;
nodes = (
"879 111 OFFCURVE",
"836 75 OFFCURVE",
"768 75 CURVE SMOOTH",
"469 75 LINE",
"339 -9 LINE",
"505 -9 OFFCURVE",
"575 0 OFFCURVE",
"701 0 CURVE SMOOTH",
"786 0 OFFCURVE",
"906 0 OFFCURVE",
"966 -3 CURVE",
"974 63 OFFCURVE",
"993 133 OFFCURVE",
"1009 180 CURVE",
"980 202 OFFCURVE",
"953 212 OFFCURVE",
"912 218 CURVE"
);
},
{
closed = 1;
nodes = (
"878 457 OFFCURVE",
"847 455 OFFCURVE",
"819 449 CURVE",
"812 393 OFFCURVE",
"794 382 OFFCURVE",
"734 382 CURVE SMOOTH",
"676 382 LINE",
"663 307 LINE",
"724 307 LINE SMOOTH",
"783 307 OFFCURVE",
"790 269 OFFCURVE",
"790 230 CURVE",
"816 220 OFFCURVE",
"844 216 OFFCURVE",
"876 215 CURVE",
"877 249 OFFCURVE",
"881 288 OFFCURVE",
"886 325 CURVE SMOOTH",
"892 369 OFFCURVE",
"901 417 OFFCURVE",
"910 454 CURVE"
);
},
{
closed = 1;
nodes = (
"638 601 LINE",
"821 601 LINE SMOOTH",
"920 601 OFFCURVE",
"937 555 OFFCURVE",
"942 485 CURVE",
"976 485 OFFCURVE",
"1009 489 OFFCURVE",
"1040 497 CURVE",
"1035 557 OFFCURVE",
"1040 624 OFFCURVE",
"1049 679 CURVE",
"992 677 OFFCURVE",
"903 676 OFFCURVE",
"832 676 CURVE SMOOTH",
"596 676 OFFCURVE",
"561 685 OFFCURVE",
"444 685 CURVE"
);
}
);
width = 1029;
}
);
leftKerningGroup = O;
leftMetricsKey = O;
rightKerningGroup = E;
rightMetricsKey = E;
unicode = 0152;
},
{
glyphname = P;
layers = (
{
anchors = (
{
name = bottom;
position = "{319, 177}";
},
{
name = center;
position = "{404, 434}";
},
{
name = top;
position = "{419, 676}";
}
);
background = {
paths = (
{
closed = 1;
nodes = (
"107 197 LINE SMOOTH",
"89 95 OFFCURVE",
"82 80 OFFCURVE",
"30 76 CURVE",
"19 50 OFFCURVE",
"14 21 OFFCURVE",
"12 -3 CURVE",
"67 0 OFFCURVE",
"132 0 OFFCURVE",
"208 0 CURVE SMOOTH",
"267 0 OFFCURVE",
"334 0 OFFCURVE",
"389 -3 CURVE",
"392 23 OFFCURVE",
"392 50 OFFCURVE",
"387 75 CURVE",
"301 87 OFFCURVE",
"290 101 OFFCURVE",
"305 187 CURVE SMOOTH",
"375 593 LINE",
"389 599 OFFCURVE",
"400 601 OFFCURVE",
"415 601 CURVE SMOOTH",
"488 601 OFFCURVE",
"515 532 OFFCURVE",
"497 432 CURVE SMOOTH",
"481 343 OFFCURVE",
"426 295 OFFCURVE",
"380 295 CURVE SMOOTH",
"369 295 OFFCURVE",
"365 296 OFFCURVE",
"363 297 CURVE",
"355 279 OFFCURVE",
"349 243 OFFCURVE",
"350 224 CURVE",
"363 217 OFFCURVE",
"380 215 OFFCURVE",
"399 215 CURVE SMOOTH",
"561 215 OFFCURVE",
"665 303 OFFCURVE",
"687 428 CURVE SMOOTH",
"714 586 OFFCURVE",
"647 679 OFFCURVE",
"499 679 CURVE SMOOTH",
"409 679 OFFCURVE",
"345 676 OFFCURVE",
"281 676 CURVE SMOOTH",
"226 676 OFFCURVE",
"169 676 OFFCURVE",
"108 679 CURVE",
"105 651 OFFCURVE",
"106 622 OFFCURVE",
"110 601 CURVE",
"162 593 OFFCURVE",
"174 581 OFFCURVE",
"160 501 CURVE SMOOTH"
);
}
);
};
layerId = "B20BA836-AF41-4C81-B953-D076FC766EB4";
paths = (
{
closed = 1;
nodes = (
"67 0 OFFCURVE",
"132 0 OFFCURVE",
"208 0 CURVE SMOOTH",
"267 0 OFFCURVE",
"334 0 OFFCURVE",
"389 -3 CURVE",
"392 23 OFFCURVE",
"392 50 OFFCURVE",
"387 75 CURVE",
"301 87 OFFCURVE",
"290 101 OFFCURVE",
"305 187 CURVE SMOOTH",
"377 605 LINE",
"368 590 LINE",
"385 598 OFFCURVE",
"397 601 OFFCURVE",
"415 601 CURVE SMOOTH",
"488 601 OFFCURVE",
"515 532 OFFCURVE",
"497 432 CURVE SMOOTH",
"481 343 OFFCURVE",
"426 295 OFFCURVE",
"380 295 CURVE SMOOTH",
"369 295 OFFCURVE",
"365 296 OFFCURVE",
"363 297 CURVE",
"355 279 OFFCURVE",
"349 243 OFFCURVE",
"350 224 CURVE",
"363 217 OFFCURVE",
"380 215 OFFCURVE",
"399 215 CURVE SMOOTH",
"561 215 OFFCURVE",
"665 303 OFFCURVE",
"687 428 CURVE SMOOTH",
"714 586 OFFCURVE",
"647 679 OFFCURVE",
"499 679 CURVE SMOOTH",
"409 679 OFFCURVE",
"345 676 OFFCURVE",
"281 676 CURVE SMOOTH",
"226 676 OFFCURVE",
"169 676 OFFCURVE",
"108 679 CURVE",
"105 651 OFFCURVE",
"106 622 OFFCURVE",
"110 601 CURVE",
"162 593 OFFCURVE",
"174 581 OFFCURVE",
"160 501 CURVE SMOOTH",
"107 197 LINE SMOOTH",
"89 95 OFFCURVE",
"82 80 OFFCURVE",
"30 76 CURVE",
"19 50 OFFCURVE",
"14 21 OFFCURVE",
"12 -3 CURVE"
);
}
);
width = 664;
},
{
anchors = (
{
name = bottom;
position = "{252, 202}";
},
{
name = center;
position = "{380, 463}";
},
{
name = top;
position = "{360, 676}";
}
);
background = {
anchors = (
{
name = bottom;
position = "{252, 202}";
},
{
name = center;
position = "{380, 463}";
},
{
name = top;
position = "{360, 676}";
}
);
paths = (
{
closed = 1;
nodes = (
"73 0 OFFCURVE",
"110 0 OFFCURVE",
"159 0 CURVE SMOOTH",
"204 0 OFFCURVE",
"236 0 OFFCURVE",
"286 -3 CURVE",
"287 15 OFFCURVE",
"287 27 OFFCURVE",
"283 40 CURVE",
"203 52 OFFCURVE",
"198 65 OFFCURVE",
"212 142 CURVE SMOOTH",
"299 650 LINE",
"283 625 LINE",
"312 633 OFFCURVE",
"335 635 OFFCURVE",
"359 635 CURVE SMOOTH",
"476 635 OFFCURVE",
"515 568 OFFCURVE",
"493 452 CURVE SMOOTH",
"473 349 OFFCURVE",
"413 296 OFFCURVE",
"323 296 CURVE SMOOTH",
"303 296 OFFCURVE",
"285 299 OFFCURVE",
"272 303 CURVE",
"267 295 OFFCURVE",
"262 273 OFFCURVE",
"263 263 CURVE",
"278 255 OFFCURVE",
"298 251 OFFCURVE",
"328 251 CURVE SMOOTH",
"462 251 OFFCURVE",
"566 331 OFFCURVE",
"589 455 CURVE SMOOTH",
"616 595 OFFCURVE",
"551 679 OFFCURVE",
"406 679 CURVE SMOOTH",
"357 679 OFFCURVE",
"296 676 OFFCURVE",
"269 676 CURVE SMOOTH",
"234 676 OFFCURVE",
"165 676 OFFCURVE",
"128 679 CURVE",
"126 664 OFFCURVE",
"127 649 OFFCURVE",
"130 636 CURVE",
"188 629 OFFCURVE",
"200 612 OFFCURVE",
"190 554 CURVE SMOOTH",
"117 132 LINE SMOOTH",
"105 65 OFFCURVE",
"96 50 OFFCURVE",
"36 40 CURVE",
"32 29 OFFCURVE",
"29 14 OFFCURVE",
"28 -3 CURVE"
);
}
);
};
layerId = "9785DD90-0D66-4E3E-881E-09053C5F0A8A";
paths = (
{
closed = 1;
nodes = (
"73 0 OFFCURVE",
"110 0 OFFCURVE",
"159 0 CURVE SMOOTH",
"204 0 OFFCURVE",
"236 0 OFFCURVE",
"286 -3 CURVE",
"287 15 OFFCURVE",
"287 27 OFFCURVE",
"283 40 CURVE",
"203 52 OFFCURVE",
"198 65 OFFCURVE",
"212 142 CURVE SMOOTH",
"299 650 LINE",
"283 625 LINE",
"312 633 OFFCURVE",
"335 635 OFFCURVE",
"359 635 CURVE SMOOTH",
"476 635 OFFCURVE",
"515 568 OFFCURVE",
"493 452 CURVE SMOOTH",
"473 349 OFFCURVE",
"413 296 OFFCURVE",
"323 296 CURVE SMOOTH",
"303 296 OFFCURVE",
"285 299 OFFCURVE",
"272 303 CURVE",
"267 295 OFFCURVE",
"262 273 OFFCURVE",
"263 263 CURVE",
"278 255 OFFCURVE",
"298 251 OFFCURVE",
"328 251 CURVE SMOOTH",
"462 251 OFFCURVE",
"566 331 OFFCURVE",
"589 455 CURVE SMOOTH",
"616 595 OFFCURVE",
"551 679 OFFCURVE",
"406 679 CURVE SMOOTH",
"357 679 OFFCURVE",
"296 676 OFFCURVE",
"269 676 CURVE SMOOTH",
"234 676 OFFCURVE",
"165 676 OFFCURVE",
"128 679 CURVE",
"126 664 OFFCURVE",
"127 649 OFFCURVE",
"130 636 CURVE",
"188 629 OFFCURVE",
"200 612 OFFCURVE",
"190 554 CURVE SMOOTH",
"117 132 LINE SMOOTH",
"105 65 OFFCURVE",
"96 50 OFFCURVE",
"36 40 CURVE",
"32 29 OFFCURVE",
"29 14 OFFCURVE",
"28 -3 CURVE"
);
}
);
width = 566;
}
);
leftKerningGroup = H;
leftMetricsKey = H;
rightKerningGroup = P;
unicode = 0050;
},
{
glyphname = Thorn;
layers = (
{
anchors = (
{
name = bottom;
position = "{267, 0}";
},
{
name = top;
position = "{399, 676}";
}
);
background = {
paths = (
{
closed = 1;
nodes = (
"104 652 OFFCURVE",
"105 623 OFFCURVE",
"109 601 CURVE",
"166 593 OFFCURVE",
"171 579 OFFCURVE",
"158 501 CURVE SMOOTH",
"103 177 LINE SMOOTH",
"88 93 OFFCURVE",
"78 82 OFFCURVE",
"29 75 CURVE",
"18 48 OFFCURVE",
"13 26 OFFCURVE",
"10 -3 CURVE",
"56 -1 OFFCURVE",
"112 0 OFFCURVE",
"185 0 CURVE SMOOTH",
"250 0 OFFCURVE",
"291 0 OFFCURVE",
"348 -3 CURVE",
"351 25 OFFCURVE",
"350 49 OFFCURVE",
"346 75 CURVE",
"297 84 OFFCURVE",
"288 95 OFFCURVE",
"303 180 CURVE SMOOTH",
"351 459 LINE",
"366 464 OFFCURVE",
"380 466 OFFCURVE",
"393 466 CURVE SMOOTH",
"459 466 OFFCURVE",
"484 424 OFFCURVE",
"470 346 CURVE SMOOTH",
"456 268 OFFCURVE",
"410 229 OFFCURVE",
"359 229 CURVE SMOOTH",
"350 229 OFFCURVE",
"344 230 OFFCURVE",
"339 232 CURVE",
"330 214 OFFCURVE",
"325 186 OFFCURVE",
"326 162 CURVE",
"342 152 OFFCURVE",
"363 149 OFFCURVE",
"397 149 CURVE SMOOTH",
"538 149 OFFCURVE",
"639 224 OFFCURVE",
"661 349 CURVE SMOOTH",
"678 449 OFFCURVE",
"633 545 OFFCURVE",
"464 545 CURVE SMOOTH",
"425 545 OFFCURVE",
"395 545 OFFCURVE",
"368 544 CURVE",
"380 588 OFFCURVE",
"394 597 OFFCURVE",
"434 601 CURVE",
"444 628 OFFCURVE",
"448 654 OFFCURVE",
"448 679 CURVE",
"389 676 OFFCURVE",
"328 676 OFFCURVE",
"276 676 CURVE SMOOTH",
"212 676 OFFCURVE",
"157 676 OFFCURVE",
"108 679 CURVE"
);
}
);
};
layerId = "B20BA836-AF41-4C81-B953-D076FC766EB4";
paths = (
{
closed = 1;
nodes = (
"59 -1 OFFCURVE",
"118 0 OFFCURVE",
"195 0 CURVE SMOOTH",
"272 0 OFFCURVE",
"321 0 OFFCURVE",
"388 -3 CURVE",
"391 25 OFFCURVE",
"390 49 OFFCURVE",
"386 75 CURVE",
"307 83 OFFCURVE",
"291 104 OFFCURVE",
"303 180 CURVE SMOOTH",
"355 481 LINE SMOOTH",
"372 582 OFFCURVE",
"379 595 OFFCURVE",
"434 601 CURVE",
"444 628 OFFCURVE",
"448 654 OFFCURVE",
"448 679 CURVE",
"389 676 OFFCURVE",
"328 676 OFFCURVE",
"276 676 CURVE SMOOTH",
"212 676 OFFCURVE",
"157 676 OFFCURVE",
"108 679 CURVE",
"104 652 OFFCURVE",
"105 623 OFFCURVE",
"109 601 CURVE",
"166 593 OFFCURVE",
"171 579 OFFCURVE",
"158 501 CURVE SMOOTH",
"103 177 LINE SMOOTH",
"88 93 OFFCURVE",
"78 82 OFFCURVE",
"29 75 CURVE",
"18 48 OFFCURVE",
"13 26 OFFCURVE",
"10 -3 CURVE"
);
},
{
closed = 1;
nodes = (
"545 149 OFFCURVE",
"647 219 OFFCURVE",
"671 349 CURVE SMOOTH",
"689 449 OFFCURVE",
"654 545 OFFCURVE",
"453 545 CURVE SMOOTH",
"433 545 OFFCURVE",
"362 544 OFFCURVE",
"327 544 CURVE",
"346 453 LINE",
"366 462 OFFCURVE",
"386 466 OFFCURVE",
"403 466 CURVE",
"467 466 OFFCURVE",
"496 422 OFFCURVE",
"480 346 CURVE SMOOTH",
"466 279 OFFCURVE",
"424 230 OFFCURVE",
"370 230 CURVE SMOOTH",
"362 230 OFFCURVE",
"356 231 OFFCURVE",
"351 232 CURVE",
"343 214 OFFCURVE",
"337 186 OFFCURVE",
"338 162 CURVE",
"354 152 OFFCURVE",
"375 149 OFFCURVE",
"404 149 CURVE SMOOTH"
);
}
);
width = 673;
},
{
anchors = (
{
name = bottom;
position = "{218, 0}";
},
{
name = top;
position = "{350, 676}";
}
);
background = {
anchors = (
{
name = bottom;
position = "{218, 0}";
},
{
name = top;
position = "{350, 676}";
}
);
paths = (
{
closed = 1;
nodes = (
"66 -1 OFFCURVE",
"118 0 OFFCURVE",
"160 0 CURVE SMOOTH",
"200 0 OFFCURVE",
"244 -1 OFFCURVE",
"285 -3 CURVE",
"287 12 OFFCURVE",
"286 28 OFFCURVE",
"283 40 CURVE",
"210 47 OFFCURVE",
"198 59 OFFCURVE",
"210 127 CURVE SMOOTH",
"283 549 LINE SMOOTH",
"294 614 OFFCURVE",
"310 627 OFFCURVE",
"361 636 CURVE",
"367 649 OFFCURVE",
"369 663 OFFCURVE",
"370 679 CURVE",
"330 677 OFFCURVE",
"291 676 OFFCURVE",
"248 676 CURVE SMOOTH",
"205 676 OFFCURVE",
"165 677 OFFCURVE",
"128 679 CURVE",
"126 663 OFFCURVE",
"127 649 OFFCURVE",
"129 636 CURVE",
"184 629 OFFCURVE",
"201 616 OFFCURVE",
"189 549 CURVE SMOOTH",
"116 127 LINE SMOOTH",
"104 60 OFFCURVE",
"91 46 OFFCURVE",
"37 40 CURVE",
"32 29 OFFCURVE",
"29 14 OFFCURVE",
"29 -3 CURVE"
);
},
{
closed = 1;
nodes = (
"460 151 OFFCURVE",
"552 254 OFFCURVE",
"568 344 CURVE SMOOTH",
"586 451 OFFCURVE",
"535 540 OFFCURVE",
"386 540 CURVE SMOOTH",
"331 540 OFFCURVE",
"256 538 OFFCURVE",
"221 538 CURVE",
"260 492 LINE",
"294 500 OFFCURVE",
"309 502 OFFCURVE",
"333 502 CURVE SMOOTH",
"450 502 OFFCURVE",
"489 437 OFFCURVE",
"473 343 CURVE SMOOTH",
"452 227 OFFCURVE",
"378 196 OFFCURVE",
"306 196 CURVE SMOOTH",
"287 196 OFFCURVE",
"271 197 OFFCURVE",
"255 203 CURVE",
"247 192 OFFCURVE",
"244 178 OFFCURVE",
"244 165 CURVE",
"260 154 OFFCURVE",
"281 151 OFFCURVE",
"311 151 CURVE SMOOTH"
);
}
);
};
layerId = "9785DD90-0D66-4E3E-881E-09053C5F0A8A";
paths = (
{
closed = 1;
nodes = (
"66 -1 OFFCURVE",
"118 0 OFFCURVE",
"160 0 CURVE SMOOTH",
"200 0 OFFCURVE",
"244 -1 OFFCURVE",
"285 -3 CURVE",
"287 12 OFFCURVE",
"286 28 OFFCURVE",
"283 40 CURVE",
"210 47 OFFCURVE",
"198 59 OFFCURVE",
"210 127 CURVE SMOOTH",
"283 549 LINE SMOOTH",
"294 614 OFFCURVE",
"310 627 OFFCURVE",
"361 636 CURVE",
"367 649 OFFCURVE",
"369 663 OFFCURVE",
"370 679 CURVE",
"330 677 OFFCURVE",
"291 676 OFFCURVE",
"248 676 CURVE SMOOTH",
"205 676 OFFCURVE",
"165 677 OFFCURVE",
"128 679 CURVE",
"126 663 OFFCURVE",
"127 649 OFFCURVE",
"129 636 CURVE",
"184 629 OFFCURVE",
"201 616 OFFCURVE",
"189 549 CURVE SMOOTH",
"116 127 LINE SMOOTH",
"104 60 OFFCURVE",
"91 46 OFFCURVE",
"37 40 CURVE",
"32 29 OFFCURVE",
"29 14 OFFCURVE",
"29 -3 CURVE"
);
},
{
closed = 1;
nodes = (
"460 151 OFFCURVE",
"552 254 OFFCURVE",
"568 344 CURVE SMOOTH",
"586 451 OFFCURVE",
"535 540 OFFCURVE",
"386 540 CURVE SMOOTH",
"331 540 OFFCURVE",
"256 538 OFFCURVE",
"221 538 CURVE",
"260 492 LINE",
"294 500 OFFCURVE",
"309 502 OFFCURVE",
"333 502 CURVE SMOOTH",
"450 502 OFFCURVE",
"489 437 OFFCURVE",
"473 343 CURVE SMOOTH",
"452 227 OFFCURVE",
"378 196 OFFCURVE",
"306 196 CURVE SMOOTH",
"287 196 OFFCURVE",
"271 197 OFFCURVE",
"255 203 CURVE",
"247 192 OFFCURVE",
"244 178 OFFCURVE",
"244 165 CURVE",
"260 154 OFFCURVE",
"281 151 OFFCURVE",
"311 151 CURVE SMOOTH"
);
}
);
width = 586;
}
);
leftKerningGroup = H;
leftMetricsKey = H;
rightKerningGroup = O;
rightMetricsKey = "=O";
unicode = 00DE;
},
{
glyphname = Q;
layers = (
{
background = {
paths = (
{
closed = 1;
nodes = (
"700 -92 OFFCURVE",
"684 -98 OFFCURVE",
"668 -98 CURVE SMOOTH",
"649 -98 OFFCURVE",
"636 -93 OFFCURVE",
"612 -72 CURVE SMOOTH",
"545 -13 OFFCURVE",
"518 5 OFFCURVE",
"476 13 CURVE",
"612 60 OFFCURVE",
"707 178 OFFCURVE",
"737 334 CURVE SMOOTH",
"777 545 OFFCURVE",
"657 685 OFFCURVE",
"444 685 CURVE SMOOTH",
"246 685 OFFCURVE",
"90 564 OFFCURVE",
"49 351 CURVE SMOOTH",
"10 148 OFFCURVE",
"113 0 OFFCURVE",
"320 -9 CURVE",
"379 -17 OFFCURVE",
"408 -45 OFFCURVE",
"428 -109 CURVE SMOOTH",
"452 -184 OFFCURVE",
"496 -219 OFFCURVE",
"573 -219 CURVE SMOOTH",
"642 -219 OFFCURVE",
"702 -194 OFFCURVE",
"748 -145 CURVE",
"745 -122 OFFCURVE",
"730 -94 OFFCURVE",
"715 -79 CURVE"
);
},
{
closed = 1;
nodes = (
"284 512 OFFCURVE",
"349 610 OFFCURVE",
"434 610 CURVE SMOOTH",
"526 610 OFFCURVE",
"561 496 OFFCURVE",
"535 353 CURVE SMOOTH",
"504 182 OFFCURVE",
"435 69 OFFCURVE",
"348 69 CURVE SMOOTH",
"246 69 OFFCURVE",
"223 195 OFFCURVE",
"254 355 CURVE SMOOTH"
);
}
);
};
components = (
{
name = O;
},
{
name = _part.Q;
}
);
layerId = "B20BA836-AF41-4C81-B953-D076FC766EB4";
width = 742;
},
{
background = {
components = (
{
name = O;
},
{
name = _part.Q;
}
);
};
components = (
{
name = O;
},
{
name = _part.Q;
}
);
layerId = "9785DD90-0D66-4E3E-881E-09053C5F0A8A";
width = 741;
}
);
leftKerningGroup = O;
leftMetricsKey = O;
rightKerningGroup = Q;
unicode = 0051;
},
{
glyphname = R;
layers = (
{
anchors = (
{
name = bottom;
position = "{371, 0}";
},
{
name = top;
position = "{421, 676}";
}
);
background = {
paths = (
{
closed = 1;
nodes = (
"104 652 OFFCURVE",
"105 623 OFFCURVE",
"109 601 CURVE",
"166 593 OFFCURVE",
"171 579 OFFCURVE",
"158 501 CURVE SMOOTH",
"106 197 LINE SMOOTH",
"89 95 OFFCURVE",
"77 79 OFFCURVE",
"29 75 CURVE",
"18 48 OFFCURVE",
"13 26 OFFCURVE",
"10 -3 CURVE",
"56 -1 OFFCURVE",
"112 0 OFFCURVE",
"185 0 CURVE SMOOTH",
"250 0 OFFCURVE",
"277 0 OFFCURVE",
"334 -3 CURVE",
"337 25 OFFCURVE",
"336 49 OFFCURVE",
"332 75 CURVE",
"293 82 OFFCURVE",
"288 95 OFFCURVE",
"302 177 CURVE SMOOTH",
"385 654 LINE",
"365 587 LINE",
"385 598 OFFCURVE",
"403 603 OFFCURVE",
"426 603 CURVE SMOOTH",
"484 603 OFFCURVE",
"515 565 OFFCURVE",
"501 489 CURVE SMOOTH",
"485 397 OFFCURVE",
"415 347 OFFCURVE",
"354 347 CURVE SMOOTH",
"344 347 OFFCURVE",
"335 347 OFFCURVE",
"320 350 CURVE",
"303 260 LINE",
"329 258 OFFCURVE",
"359 258 OFFCURVE",
"398 260 CURVE",
"318 272 LINE",
"347 239 OFFCURVE",
"362 212 OFFCURVE",
"386 141 CURVE SMOOTH",
"424 27 OFFCURVE",
"460 -9 OFFCURVE",
"539 -9 CURVE SMOOTH",
"608 -9 OFFCURVE",
"678 16 OFFCURVE",
"724 65 CURVE",
"721 88 OFFCURVE",
"706 116 OFFCURVE",
"691 131 CURVE",
"681 124 OFFCURVE",
"665 118 OFFCURVE",
"648 118 CURVE SMOOTH",
"625 118 OFFCURVE",
"611 127 OFFCURVE",
"596 165 CURVE SMOOTH",
"568 232 OFFCURVE",
"538 269 OFFCURVE",
"499 288 CURVE",
"495 277 LINE",
"599 293 OFFCURVE",
"694 366 OFFCURVE",
"712 473 CURVE SMOOTH",
"731 585 OFFCURVE",
"664 681 OFFCURVE",
"487 681 CURVE SMOOTH",
"405 681 OFFCURVE",
"321 676 OFFCURVE",
"283 676 CURVE SMOOTH",
"219 676 OFFCURVE",
"157 676 OFFCURVE",
"108 679 CURVE"
);
}
);
};
layerId = "B20BA836-AF41-4C81-B953-D076FC766EB4";
paths = (
{
closed = 1;
nodes = (
"405 681 OFFCURVE",
"321 676 OFFCURVE",
"283 676 CURVE SMOOTH",
"219 676 OFFCURVE",
"157 676 OFFCURVE",
"108 679 CURVE",
"104 652 OFFCURVE",
"105 623 OFFCURVE",
"109 601 CURVE",
"166 593 OFFCURVE",
"171 579 OFFCURVE",
"158 501 CURVE SMOOTH",
"106 197 LINE SMOOTH",
"89 95 OFFCURVE",
"77 79 OFFCURVE",
"29 75 CURVE",
"18 48 OFFCURVE",
"13 26 OFFCURVE",
"10 -3 CURVE",
"56 -1 OFFCURVE",
"112 0 OFFCURVE",
"185 0 CURVE SMOOTH",
"250 0 OFFCURVE",
"277 0 OFFCURVE",
"334 -3 CURVE",
"337 25 OFFCURVE",
"336 49 OFFCURVE",
"332 75 CURVE",
"293 82 OFFCURVE",
"288 95 OFFCURVE",
"302 177 CURVE SMOOTH",
"385 654 LINE",
"365 587 LINE",
"385 598 OFFCURVE",
"403 603 OFFCURVE",
"426 603 CURVE SMOOTH",
"484 603 OFFCURVE",
"515 565 OFFCURVE",
"501 489 CURVE SMOOTH",
"485 397 OFFCURVE",
"415 347 OFFCURVE",
"354 347 CURVE SMOOTH",
"344 347 OFFCURVE",
"335 347 OFFCURVE",
"320 350 CURVE",
"303 260 LINE",
"316 259 OFFCURVE",
"330 259 OFFCURVE",
"345 259 CURVE",
"495 277 LINE",
"599 293 OFFCURVE",
"694 366 OFFCURVE",
"712 473 CURVE SMOOTH",
"731 585 OFFCURVE",
"664 681 OFFCURVE",
"487 681 CURVE SMOOTH"
);
},
{
closed = 1;
nodes = (
"308 283 LINE",
"344 244 OFFCURVE",
"359 220 OFFCURVE",
"386 141 CURVE SMOOTH",
"424 27 OFFCURVE",
"460 -9 OFFCURVE",
"539 -9 CURVE SMOOTH",
"608 -9 OFFCURVE",
"678 16 OFFCURVE",
"724 65 CURVE",
"721 88 OFFCURVE",
"706 116 OFFCURVE",
"691 131 CURVE",
"681 124 OFFCURVE",
"665 118 OFFCURVE",
"648 118 CURVE SMOOTH",
"625 118 OFFCURVE",
"611 127 OFFCURVE",
"596 165 CURVE SMOOTH",
"565 239 OFFCURVE",
"532 276 OFFCURVE",
"487 293 CURVE"
);
}
);
width = 756;
},
{
anchors = (
{
name = bottom;
position = "{333, 0}";
},
{
name = top;
position = "{373, 676}";
}
);
background = {
anchors = (
{
name = bottom;
position = "{333, 0}";
},
{
name = top;
position = "{373, 676}";
}
);
paths = (
{
closed = 1;
nodes = (
"367 679 OFFCURVE",
"307 676 OFFCURVE",
"256 676 CURVE SMOOTH",
"209 676 OFFCURVE",
"177 676 OFFCURVE",
"128 679 CURVE",
"126 664 OFFCURVE",
"126 650 OFFCURVE",
"129 636 CURVE",
"184 630 OFFCURVE",
"200 612 OFFCURVE",
"190 554 CURVE SMOOTH",
"117 132 LINE SMOOTH",
"105 65 OFFCURVE",
"95 46 OFFCURVE",
"37 40 CURVE",
"31 27 OFFCURVE",
"29 11 OFFCURVE",
"29 -3 CURVE",
"68 0 OFFCURVE",
"98 0 OFFCURVE",
"144 0 CURVE SMOOTH",
"188 0 OFFCURVE",
"209 0 OFFCURVE",
"260 -3 CURVE",
"261 11 OFFCURVE",
"261 26 OFFCURVE",
"258 40 CURVE",
"209 47 OFFCURVE",
"198 55 OFFCURVE",
"209 122 CURVE SMOOTH",
"298 644 LINE",
"291 626 LINE",
"315 633 OFFCURVE",
"348 636 OFFCURVE",
"371 636 CURVE SMOOTH",
"454 636 OFFCURVE",
"507 588 OFFCURVE",
"487 487 CURVE SMOOTH",
"471 405 OFFCURVE",
"406 351 OFFCURVE",
"289 351 CURVE SMOOTH",
"274 351 OFFCURVE",
"259 351 OFFCURVE",
"240 354 CURVE",
"236 306 LINE",
"252 305 OFFCURVE",
"274 304 OFFCURVE",
"298 305 CURVE",
"375 319 LINE",
"508 343 OFFCURVE",
"570 405 OFFCURVE",
"587 493 CURVE SMOOTH",
"610 616 OFFCURVE",
"522 679 OFFCURVE",
"397 679 CURVE SMOOTH"
);
},
{
closed = 1;
nodes = (
"269 336 LINE",
"313 274 OFFCURVE",
"345 214 OFFCURVE",
"375 116 CURVE SMOOTH",
"398 37 OFFCURVE",
"419 -9 OFFCURVE",
"475 -9 CURVE SMOOTH",
"524 -9 OFFCURVE",
"556 15 OFFCURVE",
"591 58 CURVE",
"584 72 OFFCURVE",
"574 83 OFFCURVE",
"561 90 CURVE",
"547 77 OFFCURVE",
"540 74 OFFCURVE",
"527 74 CURVE SMOOTH",
"509 74 OFFCURVE",
"487 96 OFFCURVE",
"465 152 CURVE SMOOTH",
"424 255 OFFCURVE",
"401 292 OFFCURVE",
"358 344 CURVE"
);
}
);
};
layerId = "9785DD90-0D66-4E3E-881E-09053C5F0A8A";
paths = (
{
closed = 1;
nodes = (
"367 679 OFFCURVE",
"307 676 OFFCURVE",
"256 676 CURVE SMOOTH",
"209 676 OFFCURVE",
"177 676 OFFCURVE",
"128 679 CURVE",
"126 664 OFFCURVE",
"126 650 OFFCURVE",
"129 636 CURVE",
"184 630 OFFCURVE",
"200 612 OFFCURVE",
"190 554 CURVE SMOOTH",
"117 132 LINE SMOOTH",
"105 65 OFFCURVE",
"95 46 OFFCURVE",
"37 40 CURVE",
"31 27 OFFCURVE",
"29 11 OFFCURVE",
"29 -3 CURVE",
"68 0 OFFCURVE",
"98 0 OFFCURVE",
"144 0 CURVE SMOOTH",
"188 0 OFFCURVE",
"209 0 OFFCURVE",
"260 -3 CURVE",
"261 11 OFFCURVE",
"261 26 OFFCURVE",
"258 40 CURVE",
"209 47 OFFCURVE",
"198 55 OFFCURVE",
"209 122 CURVE SMOOTH",
"298 644 LINE",
"291 626 LINE",
"315 633 OFFCURVE",
"348 636 OFFCURVE",
"371 636 CURVE SMOOTH",
"454 636 OFFCURVE",
"507 588 OFFCURVE",
"487 487 CURVE SMOOTH",
"471 405 OFFCURVE",
"406 351 OFFCURVE",
"289 351 CURVE SMOOTH",
"274 351 OFFCURVE",
"259 351 OFFCURVE",
"240 354 CURVE",
"236 306 LINE",
"252 305 OFFCURVE",
"274 304 OFFCURVE",
"298 305 CURVE",
"375 319 LINE",
"508 343 OFFCURVE",
"570 405 OFFCURVE",
"587 493 CURVE SMOOTH",
"610 616 OFFCURVE",
"522 679 OFFCURVE",
"397 679 CURVE SMOOTH"
);
},
{
closed = 1;
nodes = (
"269 336 LINE",
"313 274 OFFCURVE",
"345 214 OFFCURVE",
"375 116 CURVE SMOOTH",
"398 37 OFFCURVE",
"419 -9 OFFCURVE",
"475 -9 CURVE SMOOTH",
"524 -9 OFFCURVE",
"556 15 OFFCURVE",
"591 58 CURVE",
"584 72 OFFCURVE",
"574 83 OFFCURVE",
"561 90 CURVE",
"547 77 OFFCURVE",
"540 74 OFFCURVE",
"527 74 CURVE SMOOTH",
"509 74 OFFCURVE",
"487 96 OFFCURVE",
"465 152 CURVE SMOOTH",
"424 255 OFFCURVE",
"401 292 OFFCURVE",
"358 344 CURVE"
);
}
);
width = 640;
}
);
leftKerningGroup = H;
leftMetricsKey = H;
rightKerningGroup = R;
unicode = 0052;
},
{
glyphname = S;
layers = (
{
anchors = (
{
name = bottom;
position = "{217, 0}";
},
{
name = center;
position = "{287, 338}";
},
{
name = top;
position = "{337, 676}";
}
);
layerId = "B20BA836-AF41-4C81-B953-D076FC766EB4";
paths = (
{
closed = 1;
nodes = (
"360 -9 OFFCURVE",
"479 65 OFFCURVE",
"499 183 CURVE SMOOTH",
"543 435 OFFCURVE",
"208 420 OFFCURVE",
"235 558 CURVE SMOOTH",
"241 591 OFFCURVE",
"268 605 OFFCURVE",
"305 605 CURVE SMOOTH",
"368 605 OFFCURVE",
"402 557 OFFCURVE",
"404 471 CURVE",
"443 467 OFFCURVE",
"481 470 OFFCURVE",
"515 481 CURVE",
"514 520 OFFCURVE",
"519 584 OFFCURVE",
"526 636 CURVE",
"493 663 OFFCURVE",
"429 685 OFFCURVE",
"343 685 CURVE SMOOTH",
"214 685 OFFCURVE",
"105 629 OFFCURVE",
"85 520 CURVE SMOOTH",
"34 243 OFFCURVE",
"347 259 OFFCURVE",
"325 131 CURVE SMOOTH",
"319 97 OFFCURVE",
"280 73 OFFCURVE",
"240 73 CURVE SMOOTH",
"169 73 OFFCURVE",
"140 120 OFFCURVE",
"149 219 CURVE",
"110 227 OFFCURVE",
"69 225 OFFCURVE",
"31 218 CURVE",
"24 162 OFFCURVE",
"11 110 OFFCURVE",
"-7 62 CURVE",
"58 12 OFFCURVE",
"104 -9 OFFCURVE",
"213 -9 CURVE SMOOTH"
);
}
);
width = 533;
},
{
anchors = (
{
name = bottom;
position = "{217, 0}";
},
{
name = center;
position = "{253, 338}";
},
{
name = top;
position = "{294, 676}";
}
);
background = {
anchors = (
{
name = bottom;
position = "{217, 0}";
},
{
name = center;
position = "{253, 338}";
},
{
name = top;
position = "{294, 676}";
}
);
paths = (
{
closed = 1;
nodes = (
"317 -9 OFFCURVE",
"408 56 OFFCURVE",
"425 153 CURVE SMOOTH",
"462 364 OFFCURVE",
"148 381 OFFCURVE",
"173 541 CURVE SMOOTH",
"184 611 OFFCURVE",
"226 639 OFFCURVE",
"291 639 CURVE SMOOTH",
"349 639 OFFCURVE",
"386 608 OFFCURVE",
"388 504 CURVE",
"407 501 OFFCURVE",
"428 503 OFFCURVE",
"443 509 CURVE",
"443 554 OFFCURVE",
"447 593 OFFCURVE",
"454 638 CURVE",
"421 665 OFFCURVE",
"367 685 OFFCURVE",
"298 685 CURVE SMOOTH",
"178 685 OFFCURVE",
"101 627 OFFCURVE",
"85 535 CURVE SMOOTH",
"44 302 OFFCURVE",
"361 308 OFFCURVE",
"328 136 CURVE SMOOTH",
"317 78 OFFCURVE",
"270 39 OFFCURVE",
"211 39 CURVE SMOOTH",
"110 39 OFFCURVE",
"78 87 OFFCURVE",
"85 204 CURVE",
"69 209 OFFCURVE",
"47 208 OFFCURVE",
"31 202 CURVE",
"28 157 OFFCURVE",
"17 110 OFFCURVE",
"2 63 CURVE",
"51 20 OFFCURVE",
"107 -9 OFFCURVE",
"209 -9 CURVE SMOOTH"
);
}
);
};
layerId = "9785DD90-0D66-4E3E-881E-09053C5F0A8A";
paths = (
{
closed = 1;
nodes = (
"317 -9 OFFCURVE",
"408 56 OFFCURVE",
"425 153 CURVE SMOOTH",
"462 364 OFFCURVE",
"148 381 OFFCURVE",
"173 541 CURVE SMOOTH",
"184 611 OFFCURVE",
"226 639 OFFCURVE",
"291 639 CURVE SMOOTH",
"349 639 OFFCURVE",
"386 608 OFFCURVE",
"388 504 CURVE",
"407 501 OFFCURVE",
"428 503 OFFCURVE",
"443 509 CURVE",
"443 554 OFFCURVE",
"447 593 OFFCURVE",
"454 638 CURVE",
"421 665 OFFCURVE",
"367 685 OFFCURVE",
"298 685 CURVE SMOOTH",
"178 685 OFFCURVE",
"101 627 OFFCURVE",
"85 535 CURVE SMOOTH",
"44 302 OFFCURVE",
"361 308 OFFCURVE",
"328 136 CURVE SMOOTH",
"317 78 OFFCURVE",
"270 39 OFFCURVE",
"211 39 CURVE SMOOTH",
"110 39 OFFCURVE",
"78 87 OFFCURVE",
"85 204 CURVE",
"69 209 OFFCURVE",
"47 208 OFFCURVE",
"31 202 CURVE",
"28 157 OFFCURVE",
"17 110 OFFCURVE",
"2 63 CURVE",
"51 20 OFFCURVE",
"107 -9 OFFCURVE",
"209 -9 CURVE SMOOTH"
);
}
);
width = 460;
}
);
leftKerningGroup = S;
rightKerningGroup = S;
unicode = 0053;
},
{
glyphname = Germandbls;
layers = (
{
background = {
paths = (
{
closed = 1;
nodes = (
"70 177 LINE SMOOTH",
"56 93 OFFCURVE",
"45 82 OFFCURVE",
"-4 75 CURVE",
"-15 48 OFFCURVE",
"-20 26 OFFCURVE",
"-23 -3 CURVE",
"73 0 OFFCURVE",
"169 0 OFFCURVE",
"242 0 CURVE",
"310 411 LINE SMOOTH",
"335 559 OFFCURVE",
"374 604 OFFCURVE",
"440 604 CURVE SMOOTH",
"461 604 OFFCURVE",
"483 604 OFFCURVE",
"507 603 CURVE",
"458 534 OFFCURVE",
"403 468 OFFCURVE",
"354 421 CURVE",
"352 391 OFFCURVE",
"358 359 OFFCURVE",
"372 337 CURVE",
"459 324 OFFCURVE",
"516 274 OFFCURVE",
"496 158 CURVE SMOOTH",
"486 102 OFFCURVE",
"462 75 OFFCURVE",
"437 75 CURVE SMOOTH",
"413 75 OFFCURVE",
"400 96 OFFCURVE",
"409 186 CURVE",
"372 195 OFFCURVE",
"335 193 OFFCURVE",
"306 183 CURVE",
"303 144 OFFCURVE",
"292 86 OFFCURVE",
"279 44 CURVE",
"316 11 OFFCURVE",
"361 -9 OFFCURVE",
"433 -9 CURVE SMOOTH",
"593 -9 OFFCURVE",
"679 59 OFFCURVE",
"701 185 CURVE SMOOTH",
"721 303 OFFCURVE",
"675 371 OFFCURVE",
"576 398 CURVE",
"632 460 OFFCURVE",
"687 532 OFFCURVE",
"728 595 CURVE",
"730 624 OFFCURVE",
"721 662 OFFCURVE",
"709 679 CURVE",
"670 676 OFFCURVE",
"639 676 OFFCURVE",
"603 676 CURVE SMOOTH",
"557 676 OFFCURVE",
"497 679 OFFCURVE",
"442 679 CURVE SMOOTH",
"282 679 OFFCURVE",
"149 638 OFFCURVE",
"112 422 CURVE SMOOTH"
);
}
);
};
layerId = "B20BA836-AF41-4C81-B953-D076FC766EB4";
paths = (
{
closed = 1;
nodes = (
"277 679 OFFCURVE",
"144 638 OFFCURVE",
"107 422 CURVE SMOOTH",
"65 177 LINE SMOOTH",
"51 93 OFFCURVE",
"40 82 OFFCURVE",
"-9 75 CURVE",
"-20 48 OFFCURVE",
"-25 26 OFFCURVE",
"-28 -3 CURVE",
"68 0 OFFCURVE",
"164 0 OFFCURVE",
"237 0 CURVE",
"305 411 LINE SMOOTH",
"330 559 OFFCURVE",
"369 604 OFFCURVE",
"435 604 CURVE SMOOTH",
"468 604 OFFCURVE",
"501 603 OFFCURVE",
"544 602 CURVE",
"524 635 LINE",
"470 554 OFFCURVE",
"406 475 OFFCURVE",
"349 421 CURVE",
"347 391 OFFCURVE",
"353 359 OFFCURVE",
"367 337 CURVE",
"454 324 OFFCURVE",
"511 274 OFFCURVE",
"491 158 CURVE SMOOTH",
"481 102 OFFCURVE",
"457 75 OFFCURVE",
"432 75 CURVE SMOOTH",
"408 75 OFFCURVE",
"395 96 OFFCURVE",
"404 186 CURVE",
"367 195 OFFCURVE",
"330 193 OFFCURVE",
"301 183 CURVE",
"298 144 OFFCURVE",
"287 86 OFFCURVE",
"274 44 CURVE",
"311 11 OFFCURVE",
"356 -9 OFFCURVE",
"428 -9 CURVE SMOOTH",
"588 -9 OFFCURVE",
"674 59 OFFCURVE",
"696 185 CURVE SMOOTH",
"721 329 OFFCURVE",
"647 399 OFFCURVE",
"499 409 CURVE",
"540 364 LINE",
"606 432 OFFCURVE",
"674 520 OFFCURVE",
"723 595 CURVE",
"725 624 OFFCURVE",
"716 662 OFFCURVE",
"704 679 CURVE",
"665 676 OFFCURVE",
"634 676 OFFCURVE",
"598 676 CURVE SMOOTH",
"552 676 OFFCURVE",
"492 679 OFFCURVE",
"437 679 CURVE SMOOTH"
);
}
);
width = 724.9;
},
{
background = {
paths = (
{
closed = 1;
nodes = (
"270 679 OFFCURVE",
"151 625 OFFCURVE",
"117 427 CURVE SMOOTH",
"65 127 LINE SMOOTH",
"53 60 OFFCURVE",
"40 46 OFFCURVE",
"-14 40 CURVE",
"-19 29 OFFCURVE",
"-22 14 OFFCURVE",
"-22 -3 CURVE",
"42 0 OFFCURVE",
"80 0 OFFCURVE",
"139 0 CURVE",
"210 424 LINE SMOOTH",
"238 593 OFFCURVE",
"310 638 OFFCURVE",
"400 638 CURVE SMOOTH",
"458 638 OFFCURVE",
"494 636 OFFCURVE",
"554 634 CURVE",
"558 668 LINE",
"498 581 OFFCURVE",
"416 475 OFFCURVE",
"345 396 CURVE",
"343 381 OFFCURVE",
"346 368 OFFCURVE",
"353 357 CURVE",
"488 338 OFFCURVE",
"534 268 OFFCURVE",
"516 164 CURVE SMOOTH",
"506 106 OFFCURVE",
"459 39 OFFCURVE",
"389 39 CURVE SMOOTH",
"318 39 OFFCURVE",
"303 75 OFFCURVE",
"311 188 CURVE",
"296 193 OFFCURVE",
"270 192 OFFCURVE",
"254 185 CURVE",
"251 147 OFFCURVE",
"239 94 OFFCURVE",
"224 53 CURVE",
"261 14 OFFCURVE",
"308 -9 OFFCURVE",
"389 -9 CURVE SMOOTH",
"525 -9 OFFCURVE",
"607 70 OFFCURVE",
"624 168 CURVE SMOOTH",
"646 292 OFFCURVE",
"575 377 OFFCURVE",
"450 390 CURVE",
"454 378 LINE",
"531 466 OFFCURVE",
"606 565 OFFCURVE",
"653 631 CURVE",
"655 650 OFFCURVE",
"651 666 OFFCURVE",
"643 679 CURVE",
"609 676 OFFCURVE",
"569 676 OFFCURVE",
"533 676 CURVE SMOOTH",
"499 676 OFFCURVE",
"463 679 OFFCURVE",
"420 679 CURVE SMOOTH"
);
}
);
};
layerId = "9785DD90-0D66-4E3E-881E-09053C5F0A8A";
paths = (
{
closed = 1;
nodes = (
"270 679 OFFCURVE",
"151 625 OFFCURVE",
"117 427 CURVE SMOOTH",
"65 127 LINE SMOOTH",
"53 60 OFFCURVE",
"40 46 OFFCURVE",
"-14 40 CURVE",
"-19 29 OFFCURVE",
"-22 14 OFFCURVE",
"-22 -3 CURVE",
"42 0 OFFCURVE",
"80 0 OFFCURVE",
"139 0 CURVE",
"210 424 LINE SMOOTH",
"238 593 OFFCURVE",
"310 638 OFFCURVE",
"400 638 CURVE SMOOTH",
"458 638 OFFCURVE",
"494 636 OFFCURVE",
"554 634 CURVE",
"558 668 LINE",
"498 581 OFFCURVE",
"416 475 OFFCURVE",
"345 396 CURVE",
"343 381 OFFCURVE",
"346 368 OFFCURVE",
"353 357 CURVE",
"488 338 OFFCURVE",
"534 268 OFFCURVE",
"516 164 CURVE SMOOTH",
"506 106 OFFCURVE",
"459 39 OFFCURVE",
"389 39 CURVE SMOOTH",
"318 39 OFFCURVE",
"303 75 OFFCURVE",
"311 188 CURVE",
"296 193 OFFCURVE",
"270 192 OFFCURVE",
"254 185 CURVE",
"251 147 OFFCURVE",
"239 94 OFFCURVE",
"224 53 CURVE",
"261 14 OFFCURVE",
"308 -9 OFFCURVE",
"389 -9 CURVE SMOOTH",
"525 -9 OFFCURVE",
"607 70 OFFCURVE",
"624 168 CURVE SMOOTH",
"646 292 OFFCURVE",
"575 377 OFFCURVE",
"450 390 CURVE",
"454 378 LINE",
"531 466 OFFCURVE",
"606 565 OFFCURVE",
"653 631 CURVE",
"655 650 OFFCURVE",
"651 666 OFFCURVE",
"643 679 CURVE",
"609 676 OFFCURVE",
"569 676 OFFCURVE",
"533 676 CURVE SMOOTH",
"499 676 OFFCURVE",
"463 679 OFFCURVE",
"420 679 CURVE SMOOTH"
);
}
);
width = 667;
}
);
leftMetricsKey = U;
rightKerningGroup = B;
rightMetricsKey = B;
unicode = 1E9E;
},
{
glyphname = Schwa;
layers = (
{
anchors = (
{
name = bottom;
position = "{276, 0}";
},
{
name = top;
position = "{368, 676}";
}
);
background = {
anchors = (
{
name = bottom;
position = "{276, 0}";
},
{
name = top;
position = "{368, 676}";
}
);
paths = (
{
closed = 1;
nodes = (
"456 -7 OFFCURVE",
"588 161 OFFCURVE",
"625 348 CURVE SMOOTH",
"661 531 OFFCURVE",
"597 685 OFFCURVE",
"369 685 CURVE SMOOTH",
"303 685 OFFCURVE",
"213 672 OFFCURVE",
"155 643 CURVE",
"153 597 OFFCURVE",
"143 553 OFFCURVE",
"133 513 CURVE",
"149 504 OFFCURVE",
"167 500 OFFCURVE",
"185 498 CURVE",
"218 593 OFFCURVE",
"258 639 OFFCURVE",
"356 639 CURVE SMOOTH",
"537 639 OFFCURVE",
"549 485 OFFCURVE",
"520 335 CURVE SMOOTH",
"477 114 OFFCURVE",
"372 41 OFFCURVE",
"277 41 CURVE SMOOTH",
"165 41 OFFCURVE",
"137 142 OFFCURVE",
"167 286 CURVE",
"292 294 OFFCURVE",
"414 295 OFFCURVE",
"527 295 CURVE",
"533 339 LINE",
"78 342 LINE",
"68 333 OFFCURVE",
"62 323 OFFCURVE",
"57 313 CURVE",
"37 137 OFFCURVE",
"74 -7 OFFCURVE",
"258 -7 CURVE SMOOTH"
);
}
);
};
layerId = "9785DD90-0D66-4E3E-881E-09053C5F0A8A";
paths = (
{
closed = 1;
nodes = (
"456 -7 OFFCURVE",
"588 161 OFFCURVE",
"625 348 CURVE SMOOTH",
"661 531 OFFCURVE",
"597 685 OFFCURVE",
"369 685 CURVE SMOOTH",
"303 685 OFFCURVE",
"213 672 OFFCURVE",
"155 643 CURVE",
"153 597 OFFCURVE",
"143 553 OFFCURVE",
"133 513 CURVE",
"149 504 OFFCURVE",
"167 500 OFFCURVE",
"185 498 CURVE",
"218 593 OFFCURVE",
"258 639 OFFCURVE",
"356 639 CURVE SMOOTH",
"537 639 OFFCURVE",
"549 485 OFFCURVE",
"520 335 CURVE SMOOTH",
"477 114 OFFCURVE",
"372 41 OFFCURVE",
"277 41 CURVE SMOOTH",
"165 41 OFFCURVE",
"137 142 OFFCURVE",
"167 286 CURVE",
"292 294 OFFCURVE",
"414 295 OFFCURVE",
"527 295 CURVE",
"533 339 LINE",
"78 342 LINE",
"68 333 OFFCURVE",
"62 323 OFFCURVE",
"57 313 CURVE",
"37 137 OFFCURVE",
"74 -7 OFFCURVE",
"258 -7 CURVE SMOOTH"
);
}
);
width = 642;
},
{
anchors = (
{
name = bottom;
position = "{298, 0}";
},
{
name = top;
position = "{400, 676}";
}
);
background = {
paths = (
{
closed = 1;
nodes = (
"482 -7 OFFCURVE",
"640 125 OFFCURVE",
"681 336 CURVE SMOOTH",
"718 525 OFFCURVE",
"652 685 OFFCURVE",
"377 685 CURVE SMOOTH",
"295 685 OFFCURVE",
"205 673 OFFCURVE",
"136 650 CURVE",
"136 595 OFFCURVE",
"124 545 OFFCURVE",
"111 498 CURVE",
"129 476 OFFCURVE",
"169 463 OFFCURVE",
"202 460 CURVE",
"228 561 OFFCURVE",
"263 610 OFFCURVE",
"349 610 CURVE SMOOTH",
"491 610 OFFCURVE",
"506 489 OFFCURVE",
"475 331 CURVE SMOOTH",
"435 128 OFFCURVE",
"365 68 OFFCURVE",
"297 68 CURVE SMOOTH",
"221 68 OFFCURVE",
"197 138 OFFCURVE",
"228 280 CURVE",
"325 292 OFFCURVE",
"390 294 OFFCURVE",
"485 294 CURVE",
"496 369 LINE",
"85 374 LINE",
"66 360 OFFCURVE",
"50 339 OFFCURVE",
"43 323 CURVE",
"14 146 OFFCURVE",
"70 -7 OFFCURVE",
"282 -7 CURVE SMOOTH"
);
}
);
};
layerId = "B20BA836-AF41-4C81-B953-D076FC766EB4";
paths = (
{
closed = 1;
nodes = (
"478 -7 OFFCURVE",
"636 118 OFFCURVE",
"681 336 CURVE SMOOTH",
"719 521 OFFCURVE",
"655 685 OFFCURVE",
"373 685 CURVE SMOOTH",
"297 685 OFFCURVE",
"205 673 OFFCURVE",
"136 650 CURVE",
"136 595 OFFCURVE",
"124 545 OFFCURVE",
"111 498 CURVE",
"129 476 OFFCURVE",
"169 463 OFFCURVE",
"202 460 CURVE",
"228 559 OFFCURVE",
"260 610 OFFCURVE",
"351 610 CURVE SMOOTH",
"489 610 OFFCURVE",
"506 493 OFFCURVE",
"475 331 CURVE SMOOTH",
"437 132 OFFCURVE",
"366 68 OFFCURVE",
"296 68 CURVE SMOOTH",
"219 68 OFFCURVE",
"198 144 OFFCURVE",
"228 280 CURVE",
"325 292 OFFCURVE",
"390 294 OFFCURVE",
"485 294 CURVE",
"496 369 LINE",
"85 374 LINE",
"66 360 OFFCURVE",
"50 339 OFFCURVE",
"43 323 CURVE",
"14 146 OFFCURVE",
"69 -7 OFFCURVE",
"284 -7 CURVE SMOOTH"
);
}
);
width = 685;
}
);
leftKerningGroup = O;
leftMetricsKey = "=O";
rightKerningGroup = O;
rightMetricsKey = "=O";
unicode = 018F;
},
{
glyphname = T;
layers = (
{
anchors = (
{
name = bottom;
position = "{300, 0}";
},
{
name = bottomright;
position = "{500, 75}";
},
{
name = center;
position = "{350, 348}";
},
{
name = top;
position = "{390, 676}";
}
);
background = {
paths = (
{
closed = 1;
nodes = (
"100 623 OFFCURVE",
"82 541 OFFCURVE",
"62 493 CURVE",
"89 477 OFFCURVE",
"118 472 OFFCURVE",
"157 472 CURVE",
"189 558 OFFCURVE",
"237 601 OFFCURVE",
"290 601 CURVE SMOOTH",
"291 601 LINE",
"221 197 LINE SMOOTH",
"204 98 OFFCURVE",
"191 86 OFFCURVE",
"103 75 CURVE",
"95 55 OFFCURVE",
"87 26 OFFCURVE",
"85 -3 CURVE",
"139 0 OFFCURVE",
"218 0 OFFCURVE",
"307 0 CURVE SMOOTH",
"388 0 OFFCURVE",
"459 0 OFFCURVE",
"503 -3 CURVE",
"505 21 OFFCURVE",
"505 50 OFFCURVE",
"500 75 CURVE",
"411 88 OFFCURVE",
"405 106 OFFCURVE",
"419 187 CURVE SMOOTH",
"491 601 LINE",
"492 601 LINE SMOOTH",
"547 601 OFFCURVE",
"573 567 OFFCURVE",
"580 473 CURVE",
"616 471 OFFCURVE",
"651 474 OFFCURVE",
"680 483 CURVE",
"673 547 OFFCURVE",
"677 624 OFFCURVE",
"683 679 CURVE",
"581 676 OFFCURVE",
"520 676 OFFCURVE",
"393 676 CURVE SMOOTH",
"255 676 OFFCURVE",
"187 676 OFFCURVE",
"106 679 CURVE"
);
}
);
};
layerId = "B20BA836-AF41-4C81-B953-D076FC766EB4";
paths = (
{
closed = 1;
nodes = (
"486 601 LINE SMOOTH",
"554 601 OFFCURVE",
"573 561 OFFCURVE",
"580 473 CURVE",
"616 471 OFFCURVE",
"651 474 OFFCURVE",
"680 483 CURVE",
"673 547 OFFCURVE",
"677 624 OFFCURVE",
"683 679 CURVE",
"581 676 OFFCURVE",
"520 676 OFFCURVE",
"393 676 CURVE SMOOTH",
"255 676 OFFCURVE",
"187 676 OFFCURVE",
"106 679 CURVE",
"100 623 OFFCURVE",
"82 541 OFFCURVE",
"62 493 CURVE",
"89 477 OFFCURVE",
"118 472 OFFCURVE",
"157 472 CURVE",
"190 559 OFFCURVE",
"231 601 OFFCURVE",
"304 601 CURVE SMOOTH"
);
},
{
closed = 1;
nodes = (
"221 197 LINE SMOOTH",
"204 98 OFFCURVE",
"191 86 OFFCURVE",
"103 75 CURVE",
"95 55 OFFCURVE",
"87 26 OFFCURVE",
"85 -3 CURVE",
"139 0 OFFCURVE",
"218 0 OFFCURVE",
"307 0 CURVE SMOOTH",
"388 0 OFFCURVE",
"459 0 OFFCURVE",
"503 -3 CURVE",
"505 21 OFFCURVE",
"505 50 OFFCURVE",
"500 75 CURVE",
"411 88 OFFCURVE",
"405 106 OFFCURVE",
"419 187 CURVE SMOOTH",
"498 641 LINE",
"298 641 LINE"
);
}
);
width = 641;
},
{
anchors = (
{
name = bottom;
position = "{249, 0}";
},
{
name = bottomright;
position = "{372, 40}";
},
{
name = center;
position = "{302, 348}";
},
{
name = top;
position = "{349, 676}";
}
);
background = {
anchors = (
{
name = bottom;
position = "{249, 0}";
},
{
name = bottomright;
position = "{372, 40}";
},
{
name = center;
position = "{302, 348}";
},
{
name = top;
position = "{349, 676}";
}
);
paths = (
{
closed = 1;
nodes = (
"445 637 LINE SMOOTH",
"528 637 OFFCURVE",
"547 605 OFFCURVE",
"548 513 CURVE",
"566 512 OFFCURVE",
"581 513 OFFCURVE",
"596 521 CURVE",
"596 577 OFFCURVE",
"601 632 OFFCURVE",
"609 679 CURVE",
"554 676 OFFCURVE",
"453 676 OFFCURVE",
"350 676 CURVE SMOOTH",
"251 676 OFFCURVE",
"154 676 OFFCURVE",
"99 679 CURVE",
"92 632 OFFCURVE",
"77 566 OFFCURVE",
"63 524 CURVE",
"74 512 OFFCURVE",
"90 510 OFFCURVE",
"110 510 CURVE",
"139 600 OFFCURVE",
"169 637 OFFCURVE",
"242 637 CURVE SMOOTH"
);
},
{
closed = 1;
nodes = (
"213 132 LINE SMOOTH",
"201 65 OFFCURVE",
"187 49 OFFCURVE",
"122 41 CURVE",
"118 30 OFFCURVE",
"115 15 OFFCURVE",
"115 -3 CURVE",
"151 0 OFFCURVE",
"202 0 OFFCURVE",
"246 0 CURVE SMOOTH",
"286 0 OFFCURVE",
"332 0 OFFCURVE",
"374 -3 CURVE",
"376 13 OFFCURVE",
"375 27 OFFCURVE",
"372 40 CURVE",
"301 49 OFFCURVE",
"295 65 OFFCURVE",
"305 122 CURVE SMOOTH",
"397 649 LINE",
"303 649 LINE"
);
}
);
};
layerId = "9785DD90-0D66-4E3E-881E-09053C5F0A8A";
paths = (
{
closed = 1;
nodes = (
"445 637 LINE SMOOTH",
"528 637 OFFCURVE",
"547 605 OFFCURVE",
"548 513 CURVE",
"566 512 OFFCURVE",
"581 513 OFFCURVE",
"596 521 CURVE",
"596 577 OFFCURVE",
"601 632 OFFCURVE",
"609 679 CURVE",
"554 676 OFFCURVE",
"453 676 OFFCURVE",
"350 676 CURVE SMOOTH",
"251 676 OFFCURVE",
"154 676 OFFCURVE",
"99 679 CURVE",
"92 632 OFFCURVE",
"77 566 OFFCURVE",
"63 524 CURVE",
"74 512 OFFCURVE",
"90 510 OFFCURVE",
"110 510 CURVE",
"139 600 OFFCURVE",
"169 637 OFFCURVE",
"242 637 CURVE SMOOTH"
);
},
{
closed = 1;
nodes = (
"213 132 LINE SMOOTH",
"201 65 OFFCURVE",
"187 49 OFFCURVE",
"122 41 CURVE",
"118 30 OFFCURVE",
"115 15 OFFCURVE",
"115 -3 CURVE",
"151 0 OFFCURVE",
"202 0 OFFCURVE",
"246 0 CURVE SMOOTH",
"286 0 OFFCURVE",
"332 0 OFFCURVE",
"374 -3 CURVE",
"376 13 OFFCURVE",
"375 27 OFFCURVE",
"372 40 CURVE",
"301 49 OFFCURVE",
"295 65 OFFCURVE",
"305 122 CURVE SMOOTH",
"397 649 LINE",
"303 649 LINE"
);
}
);
width = 545;
}
);
leftKerningGroup = T;
rightKerningGroup = T;
unicode = 0054;
},
{
glyphname = Tbar;
layers = (
{
background = {
components = (
{
name = T;
},
{
name = strokeshortcomb.case;
transform = "{1, 0, 0, 1, 66, 10}";
}
);
};
components = (
{
name = T;
},
{
name = strokeshortcomb.case;
transform = "{1, 0, 0, 1, 66, 10}";
}
);
layerId = "9785DD90-0D66-4E3E-881E-09053C5F0A8A";
width = 545;
},
{
background = {
components = (
{
name = T;
},
{
name = macroncomb;
transform = "{1, 0, 0, 1, 58, -271}";
}
);
paths = (
{
closed = 0;
nodes = (
"275 196 LINE"
);
}
);
};
components = (
{
name = T;
},
{
name = strokeshortcomb.case;
transform = "{1, 0, 0, 1, 81, -2}";
}
);
layerId = "B20BA836-AF41-4C81-B953-D076FC766EB4";
width = 641;
}
);
leftKerningGroup = T;
rightKerningGroup = T;
unicode = 0166;
},
{
glyphname = U;
layers = (
{
anchors = (
{
name = bottom;
position = "{361, 0}";
},
{
name = center;
position = "{442, 348}";
},
{
name = ogonek;
position = "{471, 16}";
},
{
name = top;
position = "{477, 676}";
},
{
name = topright;
position = "{745, 679}";
}
);
layerId = "B20BA836-AF41-4C81-B953-D076FC766EB4";
paths = (
{
closed = 1;
nodes = (
"510 -9 OFFCURVE",
"579 71 OFFCURVE",
"616 277 CURVE SMOOTH",
"649 466 LINE SMOOTH",
"670 588 OFFCURVE",
"676 594 OFFCURVE",
"731 601 CURVE",
"739 623 OFFCURVE",
"744 653 OFFCURVE",
"745 679 CURVE",
"709 676 OFFCURVE",
"684 676 OFFCURVE",
"641 676 CURVE SMOOTH",
"616 676 OFFCURVE",
"576 676 OFFCURVE",
"533 679 CURVE",
"529 649 OFFCURVE",
"530 625 OFFCURVE",
"534 601 CURVE",
"587 589 OFFCURVE",
"589 582 OFFCURVE",
"571 477 CURVE SMOOTH",
"534 267 LINE SMOOTH",
"514 151 OFFCURVE",
"472 72 OFFCURVE",
"385 72 CURVE SMOOTH",
"315 72 OFFCURVE",
"286 131 OFFCURVE",
"311 266 CURVE SMOOTH",
"350 481 LINE SMOOTH",
"368 582 OFFCURVE",
"374 595 OFFCURVE",
"429 601 CURVE",
"439 628 OFFCURVE",
"443 654 OFFCURVE",
"443 679 CURVE",
"384 676 OFFCURVE",
"323 676 OFFCURVE",
"271 676 CURVE SMOOTH",
"207 676 OFFCURVE",
"152 676 OFFCURVE",
"103 679 CURVE",
"99 652 OFFCURVE",
"100 623 OFFCURVE",
"104 601 CURVE",
"161 593 OFFCURVE",
"166 579 OFFCURVE",
"153 501 CURVE SMOOTH",
"110 259 LINE SMOOTH",
"79 84 OFFCURVE",
"142 -9 OFFCURVE",
"337 -9 CURVE SMOOTH"
);
}
);
width = 677;
},
{
anchors = (
{
name = bottom;
position = "{302, 0}";
},
{
name = center;
position = "{369, 348}";
},
{
name = ogonek;
position = "{423, 18}";
},
{
name = top;
position = "{419, 676}";
},
{
name = topright;
position = "{700, 679}";
}
);
background = {
anchors = (
{
name = bottom;
position = "{302, 0}";
},
{
name = center;
position = "{369, 348}";
},
{
name = ogonek;
position = "{423, 18}";
},
{
name = top;
position = "{419, 676}";
},
{
name = topright;
position = "{700, 679}";
}
);
paths = (
{
closed = 1;
nodes = (
"446 -9 OFFCURVE",
"529 75 OFFCURVE",
"561 255 CURVE SMOOTH",
"605 504 LINE SMOOTH",
"622 601 OFFCURVE",
"634 617 OFFCURVE",
"691 636 CURVE",
"697 650 OFFCURVE",
"700 663 OFFCURVE",
"700 679 CURVE",
"654 676 OFFCURVE",
"632 676 OFFCURVE",
"600 676 CURVE SMOOTH",
"572 676 OFFCURVE",
"543 676 OFFCURVE",
"501 679 CURVE",
"499 664 OFFCURVE",
"499 650 OFFCURVE",
"502 636 CURVE",
"559 617 OFFCURVE",
"571 600 OFFCURVE",
"556 514 CURVE SMOOTH",
"509 246 LINE SMOOTH",
"486 117 OFFCURVE",
"419 44 OFFCURVE",
"321 44 CURVE SMOOTH",
"222 44 OFFCURVE",
"166 107 OFFCURVE",
"193 260 CURVE SMOOTH",
"242 544 LINE SMOOTH",
"255 617 OFFCURVE",
"268 630 OFFCURVE",
"330 636 CURVE",
"336 650 OFFCURVE",
"338 663 OFFCURVE",
"339 679 CURVE",
"290 676 OFFCURVE",
"262 676 OFFCURVE",
"219 676 CURVE SMOOTH",
"180 676 OFFCURVE",
"155 676 OFFCURVE",
"108 679 CURVE",
"106 663 OFFCURVE",
"106 648 OFFCURVE",
"109 636 CURVE",
"153 630 OFFCURVE",
"161 615 OFFCURVE",
"150 554 CURVE SMOOTH",
"99 256 LINE SMOOTH",
"70 89 OFFCURVE",
"132 -9 OFFCURVE",
"301 -9 CURVE SMOOTH"
);
}
);
};
layerId = "9785DD90-0D66-4E3E-881E-09053C5F0A8A";
paths = (
{
closed = 1;
nodes = (
"446 -9 OFFCURVE",
"529 75 OFFCURVE",
"561 255 CURVE SMOOTH",
"605 504 LINE SMOOTH",
"622 601 OFFCURVE",
"634 617 OFFCURVE",
"691 636 CURVE",
"697 650 OFFCURVE",
"700 663 OFFCURVE",
"700 679 CURVE",
"654 676 OFFCURVE",
"632 676 OFFCURVE",
"600 676 CURVE SMOOTH",
"572 676 OFFCURVE",
"543 676 OFFCURVE",
"501 679 CURVE",
"499 664 OFFCURVE",
"499 650 OFFCURVE",
"502 636 CURVE",
"559 617 OFFCURVE",
"571 600 OFFCURVE",
"556 514 CURVE SMOOTH",
"509 246 LINE SMOOTH",
"486 117 OFFCURVE",
"419 44 OFFCURVE",
"321 44 CURVE SMOOTH",
"222 44 OFFCURVE",
"166 107 OFFCURVE",
"193 260 CURVE SMOOTH",
"242 544 LINE SMOOTH",
"255 617 OFFCURVE",
"268 630 OFFCURVE",
"330 636 CURVE",
"336 650 OFFCURVE",
"338 663 OFFCURVE",
"339 679 CURVE",
"290 676 OFFCURVE",
"262 676 OFFCURVE",
"219 676 CURVE SMOOTH",
"180 676 OFFCURVE",
"155 676 OFFCURVE",
"108 679 CURVE",
"106 663 OFFCURVE",
"106 648 OFFCURVE",
"109 636 CURVE",
"153 630 OFFCURVE",
"161 615 OFFCURVE",
"150 554 CURVE SMOOTH",
"99 256 LINE SMOOTH",
"70 89 OFFCURVE",
"132 -9 OFFCURVE",
"301 -9 CURVE SMOOTH"
);
}
);
width = 635;
}
);
leftKerningGroup = U;
rightKerningGroup = U;
unicode = 0055;
},
{
glyphname = V;
layers = (
{
background = {
paths = (
{
closed = 1;
nodes = (
"635 676 OFFCURVE",
"580 676 OFFCURVE",
"547 679 CURVE",
"543 651 OFFCURVE",
"543 625 OFFCURVE",
"548 601 CURVE",
"593 594 OFFCURVE",
"608 572 OFFCURVE",
"571 485 CURVE SMOOTH",
"542 416 OFFCURVE",
"499 331 OFFCURVE",
"431 219 CURVE",
"414 320 OFFCURVE",
"395 402 OFFCURVE",
"370 494 CURVE SMOOTH",
"351 563 OFFCURVE",
"356 594 OFFCURVE",
"413 601 CURVE",
"420 620 OFFCURVE",
"426 647 OFFCURVE",
"427 679 CURVE",
"364 676 OFFCURVE",
"285 676 OFFCURVE",
"249 676 CURVE SMOOTH",
"221 676 OFFCURVE",
"143 676 OFFCURVE",
"92 679 CURVE",
"88 649 OFFCURVE",
"89 620 OFFCURVE",
"93 601 CURVE",
"130 592 OFFCURVE",
"140 584 OFFCURVE",
"165 500 CURVE SMOOTH",
"213 337 OFFCURVE",
"261 162 OFFCURVE",
"303 -9 CURVE",
"332 -9 OFFCURVE",
"368 -8 OFFCURVE",
"394 0 CURVE",
"499 172 OFFCURVE",
"582 324 OFFCURVE",
"660 482 CURVE SMOOTH",
"703 570 OFFCURVE",
"718 594 OFFCURVE",
"753 601 CURVE",
"761 624 OFFCURVE",
"766 652 OFFCURVE",
"767 679 CURVE",
"725 676 OFFCURVE",
"701 676 OFFCURVE",
"664 676 CURVE SMOOTH"
);
}
);
};
layerId = "B20BA836-AF41-4C81-B953-D076FC766EB4";
paths = (
{
closed = 1;
nodes = (
"88 649 OFFCURVE",
"89 620 OFFCURVE",
"93 601 CURVE",
"130 592 OFFCURVE",
"140 584 OFFCURVE",
"165 500 CURVE SMOOTH",
"213 337 OFFCURVE",
"261 162 OFFCURVE",
"303 -9 CURVE",
"332 -9 OFFCURVE",
"368 -8 OFFCURVE",
"394 0 CURVE",
"499 172 OFFCURVE",
"582 324 OFFCURVE",
"660 482 CURVE SMOOTH",
"703 570 OFFCURVE",
"718 594 OFFCURVE",
"753 601 CURVE",
"761 624 OFFCURVE",
"766 652 OFFCURVE",
"767 679 CURVE",
"725 676 OFFCURVE",
"701 676 OFFCURVE",
"664 676 CURVE SMOOTH",
"635 676 OFFCURVE",
"580 676 OFFCURVE",
"547 679 CURVE",
"543 651 OFFCURVE",
"543 625 OFFCURVE",
"548 601 CURVE",
"593 594 OFFCURVE",
"608 572 OFFCURVE",
"571 485 CURVE SMOOTH",
"540 410 OFFCURVE",
"491 315 OFFCURVE",
"411 187 CURVE",
"439 168 LINE",
"420 294 OFFCURVE",
"399 387 OFFCURVE",
"370 494 CURVE SMOOTH",
"351 563 OFFCURVE",
"356 594 OFFCURVE",
"413 601 CURVE",
"420 620 OFFCURVE",
"426 647 OFFCURVE",
"427 679 CURVE",
"364 676 OFFCURVE",
"285 676 OFFCURVE",
"249 676 CURVE SMOOTH",
"221 676 OFFCURVE",
"143 676 OFFCURVE",
"92 679 CURVE"
);
}
);
width = 689;
},
{
background = {
paths = (
{
closed = 1;
nodes = (
"100 664 OFFCURVE",
"100 650 OFFCURVE",
"103 637 CURVE",
"137 628 OFFCURVE",
"147 615 OFFCURVE",
"170 529 CURVE SMOOTH",
"208 388 OFFCURVE",
"256 189 OFFCURVE",
"301 -6 CURVE",
"316 -8 OFFCURVE",
"332 -7 OFFCURVE",
"342 0 CURVE",
"445 175 OFFCURVE",
"535 342 OFFCURVE",
"621 510 CURVE SMOOTH",
"669 603 OFFCURVE",
"684 621 OFFCURVE",
"715 636 CURVE",
"721 650 OFFCURVE",
"724 664 OFFCURVE",
"724 679 CURVE",
"686 676 OFFCURVE",
"663 676 OFFCURVE",
"630 676 CURVE SMOOTH",
"591 676 OFFCURVE",
"567 676 OFFCURVE",
"539 679 CURVE",
"537 664 OFFCURVE",
"537 650 OFFCURVE",
"540 636 CURVE",
"609 620 OFFCURVE",
"608 601 OFFCURVE",
"570 522 CURVE SMOOTH",
"504 384 OFFCURVE",
"435 258 OFFCURVE",
"358 127 CURVE",
"371 119 LINE",
"340 264 OFFCURVE",
"308 395 OFFCURVE",
"273 523 CURVE",
"248 617 OFFCURVE",
"262 627 OFFCURVE",
"333 635 CURVE",
"339 649 OFFCURVE",
"342 667 OFFCURVE",
"342 679 CURVE",
"295 676 OFFCURVE",
"261 676 OFFCURVE",
"217 676 CURVE SMOOTH",
"177 676 OFFCURVE",
"147 676 OFFCURVE",
"102 679 CURVE"
);
}
);
};
layerId = "9785DD90-0D66-4E3E-881E-09053C5F0A8A";
paths = (
{
closed = 1;
nodes = (
"100 664 OFFCURVE",
"100 650 OFFCURVE",
"103 637 CURVE",
"137 628 OFFCURVE",
"147 615 OFFCURVE",
"170 529 CURVE SMOOTH",
"208 388 OFFCURVE",
"256 189 OFFCURVE",
"301 -6 CURVE",
"316 -8 OFFCURVE",
"332 -7 OFFCURVE",
"342 0 CURVE",
"445 175 OFFCURVE",
"535 342 OFFCURVE",
"621 510 CURVE SMOOTH",
"669 603 OFFCURVE",
"684 621 OFFCURVE",
"715 636 CURVE",
"721 650 OFFCURVE",
"724 664 OFFCURVE",
"724 679 CURVE",
"686 676 OFFCURVE",
"663 676 OFFCURVE",
"630 676 CURVE SMOOTH",
"591 676 OFFCURVE",
"567 676 OFFCURVE",
"539 679 CURVE",
"537 664 OFFCURVE",
"537 650 OFFCURVE",
"540 636 CURVE",
"609 620 OFFCURVE",
"608 601 OFFCURVE",
"570 522 CURVE SMOOTH",
"504 384 OFFCURVE",
"435 258 OFFCURVE",
"358 127 CURVE",
"371 119 LINE",
"340 264 OFFCURVE",
"308 395 OFFCURVE",
"273 523 CURVE",
"248 617 OFFCURVE",
"262 627 OFFCURVE",
"333 635 CURVE",
"339 649 OFFCURVE",
"342 667 OFFCURVE",
"342 679 CURVE",
"295 676 OFFCURVE",
"261 676 OFFCURVE",
"217 676 CURVE SMOOTH",
"177 676 OFFCURVE",
"147 676 OFFCURVE",
"102 679 CURVE"
);
}
);
width = 655;
}
);
leftKerningGroup = V;
leftMetricsKey = A;
rightKerningGroup = V;
rightMetricsKey = A;
unicode = 0056;
},
{
glyphname = W;
layers = (
{
anchors = (
{
name = center;
position = "{529, 281}";
},
{
name = top;
position = "{625, 676}";
}
);
background = {
paths = (
{
closed = 1;
nodes = (
"923 676 OFFCURVE",
"868 676 OFFCURVE",
"835 679 CURVE",
"831 651 OFFCURVE",
"831 625 OFFCURVE",
"836 601 CURVE",
"881 594 OFFCURVE",
"890 559 OFFCURVE",
"854 468 CURVE SMOOTH",
"827 400 OFFCURVE",
"798 333 OFFCURVE",
"765 266 CURVE",
"738 408 OFFCURVE",
"707 535 OFFCURVE",
"665 682 CURVE",
"640 684 OFFCURVE",
"611 682 OFFCURVE",
"585 676 CURVE",
"520 540 OFFCURVE",
"451 406 OFFCURVE",
"379 273 CURVE",
"370 352 OFFCURVE",
"358 414 OFFCURVE",
"350 466 CURVE SMOOTH",
"337 546 OFFCURVE",
"346 593 OFFCURVE",
"413 601 CURVE",
"420 620 OFFCURVE",
"426 647 OFFCURVE",
"427 679 CURVE",
"364 676 OFFCURVE",
"285 676 OFFCURVE",
"249 676 CURVE SMOOTH",
"221 676 OFFCURVE",
"143 676 OFFCURVE",
"92 679 CURVE",
"88 649 OFFCURVE",
"89 620 OFFCURVE",
"93 601 CURVE",
"127 592 OFFCURVE",
"131 580 OFFCURVE",
"149 485 CURVE SMOOTH",
"174 350 OFFCURVE",
"199 180 OFFCURVE",
"221 5 CURVE",
"244 -5 OFFCURVE",
"296 -10 OFFCURVE",
"323 -4 CURVE",
"395 128 OFFCURVE",
"464 261 OFFCURVE",
"528 396 CURVE",
"565 258 OFFCURVE",
"590 146 OFFCURVE",
"618 3 CURVE",
"650 -6 OFFCURVE",
"702 -9 OFFCURVE",
"724 -3 CURVE",
"798 147 OFFCURVE",
"866 298 OFFCURVE",
"930 448 CURVE SMOOTH",
"980 565 OFFCURVE",
"1006 594 OFFCURVE",
"1041 601 CURVE",
"1049 624 OFFCURVE",
"1054 652 OFFCURVE",
"1055 679 CURVE",
"1013 676 OFFCURVE",
"989 676 OFFCURVE",
"952 676 CURVE SMOOTH"
);
}
);
};
layerId = "B20BA836-AF41-4C81-B953-D076FC766EB4";
paths = (
{
closed = 1;
nodes = (
"88 649 OFFCURVE",
"89 620 OFFCURVE",
"93 601 CURVE",
"127 592 OFFCURVE",
"131 580 OFFCURVE",
"149 485 CURVE SMOOTH",
"174 350 OFFCURVE",
"199 180 OFFCURVE",
"221 5 CURVE",
"244 -5 OFFCURVE",
"296 -10 OFFCURVE",
"323 -4 CURVE",
"405 145 OFFCURVE",
"482 296 OFFCURVE",
"554 449 CURVE",
"512 458 LINE",
"558 290 OFFCURVE",
"586 167 OFFCURVE",
"618 3 CURVE",
"650 -6 OFFCURVE",
"702 -9 OFFCURVE",
"724 -3 CURVE",
"798 147 OFFCURVE",
"866 298 OFFCURVE",
"930 448 CURVE SMOOTH",
"980 565 OFFCURVE",
"1006 594 OFFCURVE",
"1041 601 CURVE",
"1049 624 OFFCURVE",
"1054 652 OFFCURVE",
"1055 679 CURVE",
"1013 676 OFFCURVE",
"989 676 OFFCURVE",
"952 676 CURVE SMOOTH",
"923 676 OFFCURVE",
"868 676 OFFCURVE",
"835 679 CURVE",
"831 651 OFFCURVE",
"831 625 OFFCURVE",
"836 601 CURVE",
"881 594 OFFCURVE",
"890 559 OFFCURVE",
"854 468 CURVE SMOOTH",
"820 381 OFFCURVE",
"781 295 OFFCURVE",
"737 208 CURVE",
"778 199 LINE",
"747 370 OFFCURVE",
"714 513 OFFCURVE",
"665 682 CURVE",
"640 684 OFFCURVE",
"611 682 OFFCURVE",
"585 676 CURVE",
"510 518 OFFCURVE",
"429 362 OFFCURVE",
"344 208 CURVE",
"388 198 LINE",
"377 314 OFFCURVE",
"361 399 OFFCURVE",
"350 466 CURVE SMOOTH",
"337 546 OFFCURVE",
"346 593 OFFCURVE",
"413 601 CURVE",
"420 620 OFFCURVE",
"426 647 OFFCURVE",
"427 679 CURVE",
"364 676 OFFCURVE",
"285 676 OFFCURVE",
"249 676 CURVE SMOOTH",
"221 676 OFFCURVE",
"143 676 OFFCURVE",
"92 679 CURVE"
);
}
);
width = 977;
},
{
anchors = (
{
name = center;
position = "{510, 281}";
},
{
name = top;
position = "{594, 676}";
}
);
background = {
anchors = (
{
name = top;
position = "{594, 676}";
}
);
paths = (
{
closed = 1;
nodes = (
"100 664 OFFCURVE",
"101 650 OFFCURVE",
"105 637 CURVE",
"135 627 OFFCURVE",
"139 620 OFFCURVE",
"156 529 CURVE SMOOTH",
"183 382 OFFCURVE",
"213 202 OFFCURVE",
"243 -6 CURVE",
"257 -8 OFFCURVE",
"276 -6 OFFCURVE",
"286 0 CURVE",
"382 178 OFFCURVE",
"478 369 OFFCURVE",
"563 555 CURVE",
"543 555 LINE",
"589 387 OFFCURVE",
"631 167 OFFCURVE",
"656 -5 CURVE",
"669 -7 OFFCURVE",
"685 -6 OFFCURVE",
"697 0 CURVE",
"780 162 OFFCURVE",
"854 324 OFFCURVE",
"924 486 CURVE SMOOTH",
"972 597 OFFCURVE",
"990 622 OFFCURVE",
"1023 636 CURVE",
"1029 650 OFFCURVE",
"1032 665 OFFCURVE",
"1032 679 CURVE",
"1006 676 OFFCURVE",
"970 676 OFFCURVE",
"937 676 CURVE SMOOTH",
"903 676 OFFCURVE",
"874 676 OFFCURVE",
"847 679 CURVE",
"845 665 OFFCURVE",
"845 650 OFFCURVE",
"848 636 CURVE",
"917 621 OFFCURVE",
"922 602 OFFCURVE",
"880 499 CURVE SMOOTH",
"829 375 OFFCURVE",
"773 252 OFFCURVE",
"709 128 CURVE",
"729 128 LINE",
"703 305 OFFCURVE",
"659 513 OFFCURVE",
"614 683 CURVE",
"596 685 OFFCURVE",
"582 683 OFFCURVE",
"571 678 CURVE",
"484 488 OFFCURVE",
"394 301 OFFCURVE",
"300 121 CURVE",
"318 121 LINE",
"300 249 OFFCURVE",
"274 407 OFFCURVE",
"254 525 CURVE SMOOTH",
"240 607 OFFCURVE",
"247 622 OFFCURVE",
"321 635 CURVE",
"327 650 OFFCURVE",
"328 664 OFFCURVE",
"328 679 CURVE",
"292 676 OFFCURVE",
"246 676 OFFCURVE",
"213 676 CURVE SMOOTH",
"184 676 OFFCURVE",
"154 676 OFFCURVE",
"102 679 CURVE"
);
}
);
};
layerId = "9785DD90-0D66-4E3E-881E-09053C5F0A8A";
paths = (
{
closed = 1;
nodes = (
"100 664 OFFCURVE",
"101 650 OFFCURVE",
"105 637 CURVE",
"135 627 OFFCURVE",
"139 620 OFFCURVE",
"156 529 CURVE SMOOTH",
"183 382 OFFCURVE",
"213 202 OFFCURVE",
"243 -6 CURVE",
"257 -8 OFFCURVE",
"276 -6 OFFCURVE",
"286 0 CURVE",
"382 178 OFFCURVE",
"478 369 OFFCURVE",
"563 555 CURVE",
"543 555 LINE",
"589 387 OFFCURVE",
"631 167 OFFCURVE",
"656 -5 CURVE",
"669 -7 OFFCURVE",
"685 -6 OFFCURVE",
"697 0 CURVE",
"780 162 OFFCURVE",
"854 324 OFFCURVE",
"924 486 CURVE SMOOTH",
"972 597 OFFCURVE",
"990 622 OFFCURVE",
"1023 636 CURVE",
"1029 650 OFFCURVE",
"1032 665 OFFCURVE",
"1032 679 CURVE",
"1006 676 OFFCURVE",
"970 676 OFFCURVE",
"937 676 CURVE SMOOTH",
"903 676 OFFCURVE",
"874 676 OFFCURVE",
"847 679 CURVE",
"845 665 OFFCURVE",
"845 650 OFFCURVE",
"848 636 CURVE",
"917 621 OFFCURVE",
"922 602 OFFCURVE",
"880 499 CURVE SMOOTH",
"829 375 OFFCURVE",
"773 252 OFFCURVE",
"709 128 CURVE",
"729 128 LINE",
"703 305 OFFCURVE",
"659 513 OFFCURVE",
"614 683 CURVE",
"596 685 OFFCURVE",
"582 683 OFFCURVE",
"571 678 CURVE",
"484 488 OFFCURVE",
"394 301 OFFCURVE",
"300 121 CURVE",
"318 121 LINE",
"300 249 OFFCURVE",
"274 407 OFFCURVE",
"254 525 CURVE SMOOTH",
"240 607 OFFCURVE",
"247 622 OFFCURVE",
"321 635 CURVE",
"327 650 OFFCURVE",
"328 664 OFFCURVE",
"328 679 CURVE",
"292 676 OFFCURVE",
"246 676 OFFCURVE",
"213 676 CURVE SMOOTH",
"184 676 OFFCURVE",
"154 676 OFFCURVE",
"102 679 CURVE"
);
}
);
width = 962;
}
);
leftKerningGroup = W;
leftMetricsKey = A;
rightKerningGroup = W;
rightMetricsKey = A;
unicode = 0057;
},
{
glyphname = X;
layers = (
{
anchors = (
{
name = bottom;
position = "{297, 0}";
},
{
name = bottomright;
position = "{632, 75}";
},
{
name = center;
position = "{370, 329}";
},
{
name = top;
position = "{429, 676}";
}
);
background = {
paths = (
{
closed = 1;
nodes = (
"90 649 OFFCURVE",
"91 620 OFFCURVE",
"95 601 CURVE",
"132 592 OFFCURVE",
"146 580 OFFCURVE",
"183 508 CURVE SMOOTH",
"213 450 OFFCURVE",
"242 389 OFFCURVE",
"266 336 CURVE",
"231 285 OFFCURVE",
"176 219 OFFCURVE",
"122 158 CURVE SMOOTH",
"76 106 OFFCURVE",
"43 84 OFFCURVE",
"-22 75 CURVE",
"-30 52 OFFCURVE",
"-35 24 OFFCURVE",
"-36 -3 CURVE",
"6 0 OFFCURVE",
"57 0 OFFCURVE",
"94 0 CURVE SMOOTH",
"123 0 OFFCURVE",
"178 0 OFFCURVE",
"211 -3 CURVE",
"215 25 OFFCURVE",
"215 51 OFFCURVE",
"210 75 CURVE",
"180 81 OFFCURVE",
"180 113 OFFCURVE",
"226 165 CURVE SMOOTH",
"253 196 OFFCURVE",
"279 227 OFFCURVE",
"301 256 CURVE",
"310 232 OFFCURVE",
"319 207 OFFCURVE",
"328 183 CURVE SMOOTH",
"358 104 OFFCURVE",
"352 81 OFFCURVE",
"303 75 CURVE",
"296 56 OFFCURVE",
"290 29 OFFCURVE",
"289 -3 CURVE",
"352 0 OFFCURVE",
"431 0 OFFCURVE",
"467 0 CURVE SMOOTH",
"495 0 OFFCURVE",
"582 0 OFFCURVE",
"633 -3 CURVE",
"637 27 OFFCURVE",
"636 56 OFFCURVE",
"632 75 CURVE",
"582 87 OFFCURVE",
"566 103 OFFCURVE",
"520 215 CURVE SMOOTH",
"507 247 OFFCURVE",
"488 293 OFFCURVE",
"467 343 CURVE",
"509 390 OFFCURVE",
"552 443 OFFCURVE",
"612 520 CURVE SMOOTH",
"660 582 OFFCURVE",
"684 592 OFFCURVE",
"730 601 CURVE",
"738 624 OFFCURVE",
"743 652 OFFCURVE",
"744 679 CURVE",
"702 676 OFFCURVE",
"665 676 OFFCURVE",
"628 676 CURVE SMOOTH",
"599 676 OFFCURVE",
"544 676 OFFCURVE",
"511 679 CURVE",
"507 651 OFFCURVE",
"507 625 OFFCURVE",
"512 601 CURVE",
"542 595 OFFCURVE",
"556 577 OFFCURVE",
"493 498 CURVE SMOOTH",
"474 475 OFFCURVE",
"453 448 OFFCURVE",
"432 423 CURVE",
"421 448 OFFCURVE",
"410 474 OFFCURVE",
"399 498 CURVE SMOOTH",
"363 575 OFFCURVE",
"367 594 OFFCURVE",
"424 601 CURVE",
"431 620 OFFCURVE",
"437 647 OFFCURVE",
"438 679 CURVE",
"375 676 OFFCURVE",
"296 676 OFFCURVE",
"260 676 CURVE SMOOTH",
"232 676 OFFCURVE",
"145 676 OFFCURVE",
"94 679 CURVE"
);
}
);
};
layerId = "B20BA836-AF41-4C81-B953-D076FC766EB4";
paths = (
{
closed = 1;
nodes = (
"352 0 OFFCURVE",
"431 0 OFFCURVE",
"467 0 CURVE SMOOTH",
"495 0 OFFCURVE",
"582 0 OFFCURVE",
"633 -3 CURVE",
"637 27 OFFCURVE",
"636 56 OFFCURVE",
"632 75 CURVE",
"582 87 OFFCURVE",
"566 103 OFFCURVE",
"520 215 CURVE SMOOTH",
"494 279 OFFCURVE",
"445 398 OFFCURVE",
"399 498 CURVE SMOOTH",
"363 575 OFFCURVE",
"367 594 OFFCURVE",
"424 601 CURVE",
"431 620 OFFCURVE",
"437 647 OFFCURVE",
"438 679 CURVE",
"375 676 OFFCURVE",
"296 676 OFFCURVE",
"260 676 CURVE SMOOTH",
"232 676 OFFCURVE",
"145 676 OFFCURVE",
"94 679 CURVE",
"90 649 OFFCURVE",
"91 620 OFFCURVE",
"95 601 CURVE",
"132 592 OFFCURVE",
"146 580 OFFCURVE",
"183 508 CURVE SMOOTH",
"235 407 OFFCURVE",
"285 299 OFFCURVE",
"309 235 CURVE SMOOTH",
"359 101 OFFCURVE",
"360 82 OFFCURVE",
"303 75 CURVE",
"296 56 OFFCURVE",
"290 29 OFFCURVE",
"289 -3 CURVE"
);
},
{
closed = 1;
nodes = (
"6 0 OFFCURVE",
"57 0 OFFCURVE",
"94 0 CURVE SMOOTH",
"123 0 OFFCURVE",
"178 0 OFFCURVE",
"211 -3 CURVE",
"215 25 OFFCURVE",
"215 51 OFFCURVE",
"210 75 CURVE",
"180 81 OFFCURVE",
"180 113 OFFCURVE",
"226 165 CURVE SMOOTH",
"267 211 OFFCURVE",
"304 259 OFFCURVE",
"330 295 CURVE",
"272 344 LINE",
"237 292 OFFCURVE",
"179 222 OFFCURVE",
"122 158 CURVE SMOOTH",
"76 106 OFFCURVE",
"43 84 OFFCURVE",
"-22 75 CURVE",
"-30 52 OFFCURVE",
"-35 24 OFFCURVE",
"-36 -3 CURVE"
);
},
{
closed = 1;
nodes = (
"497 375 OFFCURVE",
"544 432 OFFCURVE",
"612 520 CURVE SMOOTH",
"660 582 OFFCURVE",
"684 592 OFFCURVE",
"730 601 CURVE",
"738 624 OFFCURVE",
"743 652 OFFCURVE",
"744 679 CURVE",
"702 676 OFFCURVE",
"665 676 OFFCURVE",
"628 676 CURVE SMOOTH",
"599 676 OFFCURVE",
"544 676 OFFCURVE",
"511 679 CURVE",
"507 651 OFFCURVE",
"507 625 OFFCURVE",
"512 601 CURVE",
"542 595 OFFCURVE",
"556 577 OFFCURVE",
"493 498 CURVE SMOOTH",
"460 457 OFFCURVE",
"420 405 OFFCURVE",
"386 369 CURVE",
"449 323 LINE"
);
}
);
width = 684;
},
{
anchors = (
{
name = bottom;
position = "{264, 0}";
},
{
name = bottomright;
position = "{555, 39}";
},
{
name = center;
position = "{331, 336}";
},
{
name = top;
position = "{396, 676}";
}
);
background = {
anchors = (
{
name = bottom;
position = "{264, 0}";
},
{
name = bottomright;
position = "{555, 39}";
},
{
name = center;
position = "{331, 336}";
},
{
name = top;
position = "{396, 676}";
}
);
paths = (
{
closed = 1;
nodes = (
"345 0 OFFCURVE",
"393 0 OFFCURVE",
"436 0 CURVE SMOOTH",
"475 0 OFFCURVE",
"498 0 OFFCURVE",
"556 -3 CURVE",
"558 14 OFFCURVE",
"558 26 OFFCURVE",
"555 39 CURVE",
"516 51 OFFCURVE",
"499 57 OFFCURVE",
"462 149 CURVE SMOOTH",
"410 277 OFFCURVE",
"356 401 OFFCURVE",
"296 525 CURVE SMOOTH",
"258 603 OFFCURVE",
"266 624 OFFCURVE",
"334 635 CURVE",
"340 649 OFFCURVE",
"343 665 OFFCURVE",
"343 679 CURVE",
"292 676 OFFCURVE",
"259 676 OFFCURVE",
"219 676 CURVE SMOOTH",
"183 676 OFFCURVE",
"157 676 OFFCURVE",
"103 679 CURVE",
"101 665 OFFCURVE",
"101 652 OFFCURVE",
"104 637 CURVE",
"138 627 OFFCURVE",
"143 621 OFFCURVE",
"191 524 CURVE SMOOTH",
"255 396 OFFCURVE",
"310 276 OFFCURVE",
"359 152 CURVE SMOOTH",
"394 64 OFFCURVE",
"389 50 OFFCURVE",
"325 41 CURVE",
"319 26 OFFCURVE",
"316 11 OFFCURVE",
"316 -3 CURVE"
);
},
{
closed = 1;
nodes = (
"26 0 OFFCURVE",
"54 0 OFFCURVE",
"93 0 CURVE SMOOTH",
"128 0 OFFCURVE",
"155 0 OFFCURVE",
"198 -3 CURVE",
"199 12 OFFCURVE",
"199 25 OFFCURVE",
"197 40 CURVE",
"153 52 OFFCURVE",
"143 79 OFFCURVE",
"194 143 CURVE SMOOTH",
"236 196 OFFCURVE",
"275 243 OFFCURVE",
"317 300 CURVE",
"293 346 LINE",
"240 275 OFFCURVE",
"184 207 OFFCURVE",
"126 142 CURVE SMOOTH",
"60 68 OFFCURVE",
"34 50 OFFCURVE",
"-2 40 CURVE",
"-8 26 OFFCURVE",
"-11 13 OFFCURVE",
"-11 -3 CURVE"
);
},
{
closed = 1;
nodes = (
"423 384 OFFCURVE",
"472 450 OFFCURVE",
"519 517 CURVE SMOOTH",
"585 613 OFFCURVE",
"600 632 OFFCURVE",
"638 636 CURVE",
"644 650 OFFCURVE",
"647 667 OFFCURVE",
"647 679 CURVE",
"612 676 OFFCURVE",
"579 676 OFFCURVE",
"547 676 CURVE SMOOTH",
"519 676 OFFCURVE",
"494 676 OFFCURVE",
"462 679 CURVE",
"460 666 OFFCURVE",
"460 650 OFFCURVE",
"463 636 CURVE",
"510 625 OFFCURVE",
"521 603 OFFCURVE",
"463 518 CURVE SMOOTH",
"428 467 OFFCURVE",
"382 408 OFFCURVE",
"343 360 CURVE",
"370 319 LINE"
);
}
);
};
layerId = "9785DD90-0D66-4E3E-881E-09053C5F0A8A";
paths = (
{
closed = 1;
nodes = (
"345 0 OFFCURVE",
"393 0 OFFCURVE",
"436 0 CURVE SMOOTH",
"475 0 OFFCURVE",
"498 0 OFFCURVE",
"556 -3 CURVE",
"558 14 OFFCURVE",
"558 26 OFFCURVE",
"555 39 CURVE",
"516 51 OFFCURVE",
"499 57 OFFCURVE",
"462 149 CURVE SMOOTH",
"410 277 OFFCURVE",
"356 401 OFFCURVE",
"296 525 CURVE SMOOTH",
"258 603 OFFCURVE",
"266 624 OFFCURVE",
"334 635 CURVE",
"340 649 OFFCURVE",
"343 665 OFFCURVE",
"343 679 CURVE",
"292 676 OFFCURVE",
"259 676 OFFCURVE",
"219 676 CURVE SMOOTH",
"183 676 OFFCURVE",
"157 676 OFFCURVE",
"103 679 CURVE",
"101 665 OFFCURVE",
"101 652 OFFCURVE",
"104 637 CURVE",
"138 627 OFFCURVE",
"143 621 OFFCURVE",
"191 524 CURVE SMOOTH",
"255 396 OFFCURVE",
"310 276 OFFCURVE",
"359 152 CURVE SMOOTH",
"394 64 OFFCURVE",
"389 50 OFFCURVE",
"325 41 CURVE",
"319 26 OFFCURVE",
"316 11 OFFCURVE",
"316 -3 CURVE"
);
},
{
closed = 1;
nodes = (
"26 0 OFFCURVE",
"54 0 OFFCURVE",
"93 0 CURVE SMOOTH",
"128 0 OFFCURVE",
"155 0 OFFCURVE",
"198 -3 CURVE",
"199 12 OFFCURVE",
"199 25 OFFCURVE",
"197 40 CURVE",
"153 52 OFFCURVE",
"143 79 OFFCURVE",
"194 143 CURVE SMOOTH",
"236 196 OFFCURVE",
"275 243 OFFCURVE",
"317 300 CURVE",
"293 346 LINE",
"240 275 OFFCURVE",
"184 207 OFFCURVE",
"126 142 CURVE SMOOTH",
"60 68 OFFCURVE",
"34 50 OFFCURVE",
"-2 40 CURVE",
"-8 26 OFFCURVE",
"-11 13 OFFCURVE",
"-11 -3 CURVE"
);
},
{
closed = 1;
nodes = (
"423 384 OFFCURVE",
"472 450 OFFCURVE",
"519 517 CURVE SMOOTH",
"585 613 OFFCURVE",
"600 632 OFFCURVE",
"638 636 CURVE",
"644 650 OFFCURVE",
"647 667 OFFCURVE",
"647 679 CURVE",
"612 676 OFFCURVE",
"579 676 OFFCURVE",
"547 676 CURVE SMOOTH",
"519 676 OFFCURVE",
"494 676 OFFCURVE",
"462 679 CURVE",
"460 666 OFFCURVE",
"460 650 OFFCURVE",
"463 636 CURVE",
"510 625 OFFCURVE",
"521 603 OFFCURVE",
"463 518 CURVE SMOOTH",
"428 467 OFFCURVE",
"382 408 OFFCURVE",
"343 360 CURVE",
"370 319 LINE"
);
}
);
width = 617;
}
);
leftKerningGroup = X;
rightKerningGroup = X;
unicode = 0058;
},
